Walleye-Italic.ufo
<glyph name="exclam" format="1">
  <advance width="202"/>
  <unicode hex="0021"/>
  <outline>
    <contour>
      <point x="124" y="639" type="curve"/>
      <point x="139" y="636"/>
      <point x="152" y="635"/>
      <point x="166" y="635" type="curve" smooth="yes"/>
      <point x="185" y="635"/>
      <point x="204" y="638"/>
      <point x="227" y="641" type="curve"/>
      <point x="177" y="485"/>
      <point x="132" y="326"/>
      <point x="92" y="162" type="curve"/>
      <point x="65" y="162" type="line"/>
      <point x="95" y="353"/>
      <point x="112" y="482"/>
    </contour>
    <contour>
      <point x="53" y="-12" type="curve" smooth="yes"/>
      <point x="17" y="-14"/>
      <point x="6" y="13"/>
      <point x="7" y="33" type="curve" smooth="yes"/>
      <point x="8" y="58"/>
      <point x="27" y="82"/>
      <point x="59" y="84" type="curve"/>
      <point x="93" y="85"/>
      <point x="105" y="62"/>
      <point x="104" y="41" type="curve" smooth="yes"/>
      <point x="103" y="15"/>
      <point x="85" y="-10"/>
    </contour>
  </outline>
</glyph>
<glyph name="quotedbl" format="1">
  <advance width="316"/>
  <unicode hex="0022"/>
  <outline>
    <contour>
      <point x="111" y="639" type="curve"/>
      <point x="129" y="637"/>
      <point x="145" y="636"/>
      <point x="161" y="636" type="curve" smooth="yes"/>
      <point x="177" y="636"/>
      <point x="193" y="637"/>
      <point x="213" y="639" type="curve"/>
      <point x="181" y="575"/>
      <point x="144" y="465"/>
      <point x="128" y="398" type="curve"/>
      <point x="101" y="398" type="line"/>
      <point x="108" y="451"/>
      <point x="114" y="514"/>
      <point x="114" y="573" type="curve" smooth="yes"/>
      <point x="114" y="596"/>
      <point x="113" y="618"/>
    </contour>
    <contour>
      <point x="252" y="639" type="curve"/>
      <point x="270" y="637"/>
      <point x="286" y="636"/>
      <point x="302" y="636" type="curve" smooth="yes"/>
      <point x="318" y="636"/>
      <point x="334" y="637"/>
      <point x="354" y="639" type="curve"/>
      <point x="322" y="575"/>
      <point x="285" y="465"/>
      <point x="269" y="398" type="curve"/>
      <point x="242" y="398" type="line"/>
      <point x="249" y="451"/>
      <point x="255" y="514"/>
      <point x="255" y="573" type="curve" smooth="yes"/>
      <point x="255" y="596"/>
      <point x="254" y="618"/>
    </contour>
  </outline>
</glyph>
<glyph name="numbersign" format="1">
  <advance width="548"/>
  <unicode hex="0023"/>
  <outline>
    <contour>
      <point x="71" y="445" type="line"/>
      <point x="80" y="475" type="line"/>
      <point x="198" y="475" type="line"/>
      <point x="231" y="635" type="line"/>
      <point x="269" y="642" type="line"/>
      <point x="255" y="586"/>
      <point x="243" y="531"/>
      <point x="230" y="475" type="curve"/>
      <point x="382" y="475" type="line"/>
      <point x="415" y="635" type="line"/>
      <point x="453" y="642" type="line"/>
      <point x="440" y="586"/>
      <point x="427" y="531"/>
      <point x="415" y="475" type="curve"/>
      <point x="541" y="475" type="line"/>
      <point x="532" y="445" type="line"/>
      <point x="407" y="445" type="line"/>
      <point x="361" y="229" type="line"/>
      <point x="487" y="229" type="line"/>
      <point x="478" y="199" type="line"/>
      <point x="355" y="199" type="line"/>
      <point x="314" y="2" type="line"/>
      <point x="275" y="-6" type="line"/>
      <point x="291" y="61"/>
      <point x="306" y="130"/>
      <point x="322" y="199" type="curve"/>
      <point x="170" y="199" type="line"/>
      <point x="156" y="133"/>
      <point x="143" y="66"/>
      <point x="130" y="2" type="curve"/>
      <point x="92" y="-6" type="line"/>
      <point x="138" y="199" type="line"/>
      <point x="18" y="199" type="line"/>
      <point x="27" y="229" type="line"/>
      <point x="145" y="229" type="line"/>
      <point x="161" y="301"/>
      <point x="177" y="373"/>
      <point x="192" y="445" type="curve"/>
    </contour>
    <contour>
      <point x="224" y="445" type="line"/>
      <point x="207" y="373"/>
      <point x="192" y="301"/>
      <point x="177" y="229" type="curve"/>
      <point x="329" y="229" type="line"/>
      <point x="345" y="301"/>
      <point x="361" y="373"/>
      <point x="375" y="445" type="curve"/>
    </contour>
  </outline>
</glyph>
<glyph name="dollar" format="1">
  <advance width="362"/>
  <unicode hex="0024"/>
  <outline>
    <contour>
      <point x="4" y="21" type="curve"/>
      <point x="16" y="42"/>
      <point x="34" y="76"/>
      <point x="40" y="101" type="curve"/>
      <point x="59" y="88"/>
      <point x="111" y="60"/>
      <point x="156" y="53" type="curve"/>
      <point x="175" y="49"/>
      <point x="207" y="50"/>
      <point x="224" y="72" type="curve" smooth="yes"/>
      <point x="229" y="79"/>
      <point x="231" y="89"/>
      <point x="231" y="101" type="curve" smooth="yes"/>
      <point x="231" y="118"/>
      <point x="227" y="140"/>
      <point x="219" y="164" type="curve" smooth="yes"/>
      <point x="189" y="255"/>
      <point x="133" y="363"/>
      <point x="107" y="438" type="curve" smooth="yes"/>
      <point x="100" y="460"/>
      <point x="95" y="479"/>
      <point x="95" y="499" type="curve" smooth="yes"/>
      <point x="95" y="523"/>
      <point x="103" y="549"/>
      <point x="125" y="582" type="curve" smooth="yes"/>
      <point x="158" y="633"/>
      <point x="205" y="642"/>
      <point x="237" y="638" type="curve"/>
      <point x="246" y="667"/>
      <point x="255" y="695"/>
      <point x="260" y="718" type="curve"/>
      <point x="288" y="713" type="line"/>
      <point x="280" y="689"/>
      <point x="275" y="663"/>
      <point x="268" y="633" type="curve"/>
      <point x="300" y="627"/>
      <point x="329" y="619"/>
      <point x="348" y="621" type="curve"/>
      <point x="334" y="597"/>
      <point x="317" y="566"/>
      <point x="312" y="545" type="curve"/>
      <point x="290" y="559"/>
      <point x="237" y="580"/>
      <point x="207" y="585" type="curve" smooth="yes"/>
      <point x="175" y="591"/>
      <point x="157" y="584"/>
      <point x="149" y="567" type="curve" smooth="yes"/>
      <point x="141" y="550"/>
      <point x="148" y="515"/>
      <point x="156" y="490" type="curve" smooth="yes"/>
      <point x="187" y="396"/>
      <point x="246" y="280"/>
      <point x="266" y="223" type="curve" smooth="yes"/>
      <point x="275" y="196"/>
      <point x="282" y="171"/>
      <point x="282" y="146" type="curve" smooth="yes"/>
      <point x="282" y="118"/>
      <point x="274" y="90"/>
      <point x="250" y="57" type="curve" smooth="yes"/>
      <point x="210" y="1"/>
      <point x="171" y="-13"/>
      <point x="122" y="-7" type="curve"/>
      <point x="113" y="-39"/>
      <point x="103" y="-69"/>
      <point x="98" y="-95" type="curve"/>
      <point x="71" y="-88" type="line"/>
      <point x="79" y="-62"/>
      <point x="85" y="-34"/>
      <point x="92" y="-2" type="curve"/>
      <point x="64" y="4"/>
      <point x="27" y="16"/>
    </contour>
  </outline>
</glyph>
<glyph name="percent" format="1">
  <advance width="668"/>
  <unicode hex="0025"/>
  <outline>
    <contour>
      <point x="8" y="-10" type="curve"/>
      <point x="211" y="194"/>
      <point x="365" y="374"/>
      <point x="528" y="555" type="curve"/>
      <point x="483" y="540"/>
      <point x="448" y="530"/>
      <point x="416" y="530" type="curve" smooth="yes"/>
      <point x="384" y="530"/>
      <point x="356" y="540"/>
      <point x="323" y="565" type="curve"/>
      <point x="326" y="552"/>
      <point x="327" y="537"/>
      <point x="327" y="523" type="curve" smooth="yes"/>
      <point x="327" y="462"/>
      <point x="302" y="395"/>
      <point x="240" y="353" type="curve" smooth="yes"/>
      <point x="215" y="336"/>
      <point x="189" y="327"/>
      <point x="164" y="327" type="curve" smooth="yes"/>
      <point x="142" y="327"/>
      <point x="122" y="334"/>
      <point x="104" y="349" type="curve" smooth="yes"/>
      <point x="75" y="375"/>
      <point x="74" y="424"/>
      <point x="78" y="451" type="curve" smooth="yes"/>
      <point x="89" y="531"/>
      <point x="127" y="576"/>
      <point x="165" y="598" type="curve" smooth="yes"/>
      <point x="232" y="636"/>
      <point x="285" y="645"/>
      <point x="347" y="646" type="curve"/>
      <point x="385" y="599"/>
      <point x="427" y="585"/>
      <point x="491" y="585" type="curve" smooth="yes"/>
      <point x="515" y="585"/>
      <point x="564" y="599"/>
      <point x="615" y="646" type="curve"/>
      <point x="640" y="634" type="line"/>
      <point x="441" y="427"/>
      <point x="304" y="266"/>
      <point x="93" y="0" type="curve"/>
      <point x="70" y="0"/>
      <point x="45" y="-2"/>
    </contour>
    <contour>
      <point x="332" y="124" type="curve" smooth="yes"/>
      <point x="342" y="188"/>
      <point x="369" y="244"/>
      <point x="435" y="279" type="curve" smooth="yes"/>
      <point x="460" y="292"/>
      <point x="488" y="301"/>
      <point x="514" y="301" type="curve" smooth="yes"/>
      <point x="539" y="301"/>
      <point x="563" y="293"/>
      <point x="578" y="272" type="curve" smooth="yes"/>
      <point x="594" y="251"/>
      <point x="599" y="225"/>
      <point x="599" y="200" type="curve" smooth="yes"/>
      <point x="599" y="188"/>
      <point x="598" y="176"/>
      <point x="596" y="165" type="curve" smooth="yes"/>
      <point x="589" y="113"/>
      <point x="570" y="64"/>
      <point x="518" y="26" type="curve" smooth="yes"/>
      <point x="488" y="4"/>
      <point x="458" y="-12"/>
      <point x="427" y="-12" type="curve" smooth="yes"/>
      <point x="405" y="-12"/>
      <point x="382" y="-4"/>
      <point x="360" y="15" type="curve" smooth="yes"/>
      <point x="331" y="39"/>
      <point x="327" y="91"/>
    </contour>
    <contour>
      <point x="495" y="260" type="curve" smooth="yes"/>
      <point x="436" y="271"/>
      <point x="415" y="196"/>
      <point x="406" y="145" type="curve" smooth="yes"/>
      <point x="404" y="133"/>
      <point x="403" y="121"/>
      <point x="403" y="109" type="curve" smooth="yes"/>
      <point x="403" y="68"/>
      <point x="416" y="31"/>
      <point x="453" y="31" type="curve" smooth="yes"/>
      <point x="498" y="31"/>
      <point x="516" y="97"/>
      <point x="524" y="135" type="curve" smooth="yes"/>
      <point x="528" y="155"/>
      <point x="529" y="172"/>
      <point x="529" y="188" type="curve" smooth="yes"/>
      <point x="529" y="230"/>
      <point x="517" y="256"/>
    </contour>
    <contour>
      <point x="264" y="599" type="curve"/>
      <point x="199" y="591"/>
      <point x="166" y="549"/>
      <point x="155" y="473" type="curve"/>
      <point x="147" y="426"/>
      <point x="163" y="388"/>
      <point x="194" y="387" type="curve" smooth="yes"/>
      <point x="247" y="384"/>
      <point x="274" y="426"/>
      <point x="285" y="475" type="curve" smooth="yes"/>
      <point x="288" y="491"/>
      <point x="290" y="507"/>
      <point x="290" y="522" type="curve" smooth="yes"/>
      <point x="290" y="559"/>
      <point x="280" y="589"/>
    </contour>
  </outline>
</glyph>
<glyph name="ampersand" format="1">
  <advance width="740"/>
  <unicode hex="0026"/>
  <outline>
    <contour>
      <point x="402" y="421" type="curve"/>
      <point x="400" y="413" type="line"/>
      <point x="330" y="407"/>
      <point x="248" y="388"/>
      <point x="198" y="358" type="curve" smooth="yes"/>
      <point x="165" y="339"/>
      <point x="130" y="317"/>
      <point x="125" y="244" type="curve" smooth="yes"/>
      <point x="122" y="206"/>
      <point x="135" y="153"/>
      <point x="157" y="121" type="curve" smooth="yes"/>
      <point x="180" y="89"/>
      <point x="211" y="68"/>
      <point x="250" y="60" type="curve"/>
      <point x="287" y="51"/>
      <point x="325" y="47"/>
      <point x="364" y="47" type="curve" smooth="yes"/>
      <point x="379" y="47"/>
      <point x="394" y="48"/>
      <point x="409" y="49" type="curve" smooth="yes"/>
      <point x="442" y="52"/>
      <point x="470" y="65"/>
      <point x="497" y="91" type="curve"/>
      <point x="540" y="130"/>
      <point x="564" y="184"/>
      <point x="564" y="201" type="curve" smooth="yes"/>
      <point x="564" y="245"/>
      <point x="542" y="280"/>
      <point x="522" y="306" type="curve"/>
      <point x="463" y="307"/>
      <point x="421" y="305"/>
      <point x="373" y="299" type="curve" smooth="yes"/>
      <point x="338" y="294"/>
      <point x="311" y="285"/>
      <point x="311" y="258" type="curve" smooth="yes"/>
      <point x="311" y="243"/>
      <point x="319" y="224"/>
      <point x="337" y="197" type="curve"/>
      <point x="311" y="190"/>
      <point x="277" y="175"/>
      <point x="257" y="156" type="curve"/>
      <point x="250" y="181"/>
      <point x="245" y="201"/>
      <point x="245" y="217" type="curve" smooth="yes"/>
      <point x="245" y="240"/>
      <point x="253" y="255"/>
      <point x="271" y="273" type="curve" smooth="yes"/>
      <point x="280" y="283"/>
      <point x="306" y="313"/>
      <point x="338" y="331" type="curve" smooth="yes"/>
      <point x="375" y="352"/>
      <point x="409" y="359"/>
      <point x="483" y="364" type="curve" smooth="yes"/>
      <point x="622" y="372"/>
      <point x="673" y="372"/>
      <point x="727" y="399" type="curve"/>
      <point x="730" y="395" type="line"/>
      <point x="704" y="365"/>
      <point x="691" y="336"/>
      <point x="684" y="308" type="curve"/>
      <point x="655" y="305"/>
      <point x="615" y="305"/>
      <point x="601" y="305" type="curve"/>
      <point x="608" y="280"/>
      <point x="616" y="259"/>
      <point x="616" y="226" type="curve" smooth="yes"/>
      <point x="616" y="181"/>
      <point x="537" y="74"/>
      <point x="503" y="44" type="curve" smooth="yes"/>
      <point x="471" y="16"/>
      <point x="440" y="-4"/>
      <point x="399" y="-7" type="curve" smooth="yes"/>
      <point x="378" y="-9"/>
      <point x="357" y="-10"/>
      <point x="335" y="-10" type="curve" smooth="yes"/>
      <point x="288" y="-10"/>
      <point x="240" y="-5"/>
      <point x="197" y="5" type="curve" smooth="yes"/>
      <point x="160" y="13"/>
      <point x="116" y="41"/>
      <point x="94" y="75" type="curve" smooth="yes"/>
      <point x="73" y="107"/>
      <point x="50" y="157"/>
      <point x="54" y="235" type="curve"/>
      <point x="59" y="311"/>
      <point x="95" y="345"/>
      <point x="127" y="364" type="curve" smooth="yes"/>
      <point x="172" y="392"/>
      <point x="224" y="408"/>
      <point x="303" y="426" type="curve"/>
      <point x="267" y="469"/>
      <point x="253" y="497"/>
      <point x="253" y="520" type="curve" smooth="yes"/>
      <point x="253" y="539"/>
      <point x="262" y="554"/>
      <point x="277" y="569" type="curve" smooth="yes"/>
      <point x="298" y="592"/>
      <point x="328" y="615"/>
      <point x="352" y="628" type="curve" smooth="yes"/>
      <point x="381" y="644"/>
      <point x="401" y="650"/>
      <point x="423" y="650" type="curve" smooth="yes"/>
      <point x="435" y="650"/>
      <point x="449" y="648"/>
      <point x="465" y="645" type="curve" smooth="yes"/>
      <point x="503" y="639"/>
      <point x="530" y="628"/>
      <point x="561" y="623" type="curve"/>
      <point x="535" y="600"/>
      <point x="521" y="577"/>
      <point x="508" y="552" type="curve"/>
      <point x="457" y="581"/>
      <point x="414" y="596"/>
      <point x="382" y="596" type="curve" smooth="yes"/>
      <point x="366" y="596"/>
      <point x="352" y="592"/>
      <point x="342" y="584" type="curve" smooth="yes"/>
      <point x="332" y="575"/>
      <point x="320" y="564"/>
      <point x="320" y="544" type="curve" smooth="yes"/>
      <point x="320" y="528"/>
      <point x="328" y="506"/>
      <point x="352" y="475" type="curve" smooth="yes"/>
      <point x="362" y="461"/>
      <point x="381" y="436"/>
    </contour>
  </outline>
</glyph>
<glyph name="parenleft" format="1">
  <advance width="324"/>
  <unicode hex="0028"/>
  <outline>
    <contour>
      <point x="190" y="-162" type="curve"/>
      <point x="167" y="-178" type="line"/>
      <point x="132" y="-131"/>
      <point x="106" y="-82"/>
      <point x="82" y="-25" type="curve" smooth="yes"/>
      <point x="59" y="29"/>
      <point x="44" y="101"/>
      <point x="44" y="178" type="curve" smooth="yes"/>
      <point x="44" y="222"/>
      <point x="49" y="268"/>
      <point x="60" y="313" type="curve" smooth="yes"/>
      <point x="91" y="436"/>
      <point x="148" y="521"/>
      <point x="232" y="596" type="curve" smooth="yes"/>
      <point x="273" y="632"/>
      <point x="307" y="655"/>
      <point x="349" y="685" type="curve"/>
      <point x="365" y="663" type="line"/>
      <point x="333" y="636"/>
      <point x="303" y="611"/>
      <point x="277" y="583" type="curve" smooth="yes"/>
      <point x="217" y="518"/>
      <point x="161" y="425"/>
      <point x="133" y="304" type="curve" smooth="yes"/>
      <point x="121" y="249"/>
      <point x="116" y="195"/>
      <point x="116" y="145" type="curve" smooth="yes"/>
      <point x="116" y="66"/>
      <point x="128" y="-3"/>
      <point x="141" y="-45" type="curve" smooth="yes"/>
      <point x="155" y="-91"/>
      <point x="166" y="-117"/>
    </contour>
  </outline>
</glyph>
<glyph name="parenright" format="1">
  <advance width="324"/>
  <unicode hex="0029"/>
  <outline>
    <contour>
      <point x="123" y="669" type="curve"/>
      <point x="146" y="685" type="line"/>
      <point x="181" y="638"/>
      <point x="207" y="589"/>
      <point x="231" y="532" type="curve" smooth="yes"/>
      <point x="254" y="478"/>
      <point x="269" y="406"/>
      <point x="269" y="329" type="curve" smooth="yes"/>
      <point x="269" y="285"/>
      <point x="264" y="239"/>
      <point x="253" y="194" type="curve" smooth="yes"/>
      <point x="222" y="71"/>
      <point x="165" y="-14"/>
      <point x="81" y="-89" type="curve" smooth="yes"/>
      <point x="40" y="-125"/>
      <point x="6" y="-148"/>
      <point x="-36" y="-178" type="curve"/>
      <point x="-52" y="-156" type="line"/>
      <point x="-20" y="-129"/>
      <point x="10" y="-104"/>
      <point x="36" y="-76" type="curve" smooth="yes"/>
      <point x="96" y="-11"/>
      <point x="152" y="82"/>
      <point x="180" y="203" type="curve" smooth="yes"/>
      <point x="192" y="258"/>
      <point x="197" y="312"/>
      <point x="197" y="362" type="curve" smooth="yes"/>
      <point x="197" y="441"/>
      <point x="185" y="510"/>
      <point x="172" y="552" type="curve" smooth="yes"/>
      <point x="158" y="598"/>
      <point x="147" y="624"/>
    </contour>
  </outline>
</glyph>
<glyph name="asterisk" format="1">
  <advance width="384"/>
  <unicode hex="002A"/>
  <outline>
    <contour>
      <point x="81" y="361" type="curve"/>
      <point x="125" y="385"/>
      <point x="180" y="430"/>
      <point x="217" y="465" type="curve"/>
      <point x="173" y="481"/>
      <point x="110" y="498"/>
      <point x="66" y="506" type="curve"/>
      <point x="81" y="529"/>
      <point x="91" y="549"/>
      <point x="100" y="575" type="curve"/>
      <point x="138" y="541"/>
      <point x="183" y="507"/>
      <point x="227" y="483" type="curve"/>
      <point x="229" y="507"/>
      <point x="230" y="533"/>
      <point x="230" y="560" type="curve" smooth="yes"/>
      <point x="230" y="589"/>
      <point x="229" y="619"/>
      <point x="225" y="645" type="curve"/>
      <point x="251" y="638"/>
      <point x="274" y="635"/>
      <point x="300" y="634" type="curve"/>
      <point x="282" y="594"/>
      <point x="260" y="527"/>
      <point x="248" y="481" type="curve"/>
      <point x="297" y="493"/>
      <point x="351" y="511"/>
      <point x="395" y="533" type="curve"/>
      <point x="397" y="506"/>
      <point x="402" y="484"/>
      <point x="409" y="457" type="curve"/>
      <point x="381" y="461"/>
      <point x="342" y="463"/>
      <point x="306" y="463" type="curve" smooth="yes"/>
      <point x="286" y="463"/>
      <point x="267" y="462"/>
      <point x="250" y="461" type="curve"/>
      <point x="276" y="417"/>
      <point x="318" y="365"/>
      <point x="354" y="328" type="curve"/>
      <point x="329" y="318"/>
      <point x="309" y="308"/>
      <point x="286" y="293" type="curve"/>
      <point x="277" y="335"/>
      <point x="250" y="406"/>
      <point x="233" y="451" type="curve"/>
      <point x="203" y="414"/>
      <point x="156" y="346"/>
      <point x="135" y="308" type="curve"/>
      <point x="118" y="329"/>
      <point x="102" y="345"/>
    </contour>
  </outline>
</glyph>
<glyph name="plus" format="1">
  <advance width="469"/>
  <unicode hex="002B"/>
  <outline>
    <contour>
      <point x="23" y="270" type="line"/>
      <point x="23" y="305" type="line"/>
      <point x="212" y="305" type="line"/>
      <point x="212" y="495" type="line"/>
      <point x="247" y="495" type="line"/>
      <point x="247" y="305" type="line"/>
      <point x="437" y="305" type="line"/>
      <point x="437" y="270" type="line"/>
      <point x="247" y="270" type="line"/>
      <point x="247" y="80" type="line"/>
      <point x="212" y="80" type="line"/>
      <point x="212" y="270" type="line"/>
    </contour>
  </outline>
</glyph>
<glyph name="hyphen" format="1">
  <advance width="274"/>
  <unicode hex="002D"/>
  <outline>
    <contour>
      <point x="23" y="255" type="curve"/>
      <point x="28" y="271"/>
      <point x="32" y="294"/>
      <point x="32" y="305" type="curve"/>
      <point x="67" y="303"/>
      <point x="102" y="302"/>
      <point x="137" y="302" type="curve" smooth="yes"/>
      <point x="172" y="302"/>
      <point x="207" y="303"/>
      <point x="242" y="305" type="curve"/>
      <point x="237" y="291"/>
      <point x="234" y="266"/>
      <point x="234" y="255" type="curve"/>
      <point x="201" y="257"/>
      <point x="167" y="258"/>
      <point x="134" y="258" type="curve" smooth="yes"/>
      <point x="97" y="258"/>
      <point x="60" y="257"/>
    </contour>
  </outline>
</glyph>
<glyph name="period" format="1">
  <advance width="185"/>
  <unicode hex="002E"/>
  <outline>
    <contour>
      <point x="53" y="-12" type="curve" smooth="yes"/>
      <point x="17" y="-14"/>
      <point x="6" y="13"/>
      <point x="7" y="33" type="curve" smooth="yes"/>
      <point x="8" y="58"/>
      <point x="27" y="82"/>
      <point x="59" y="84" type="curve"/>
      <point x="93" y="85"/>
      <point x="105" y="62"/>
      <point x="104" y="41" type="curve" smooth="yes"/>
      <point x="103" y="15"/>
      <point x="85" y="-10"/>
    </contour>
  </outline>
</glyph>
<glyph name="slash" format="1">
  <advance width="425"/>
  <unicode hex="002F"/>
  <outline>
    <contour>
      <point x="439" y="681" type="curve"/>
      <point x="470" y="663" type="line"/>
      <point x="354" y="484"/>
      <point x="115" y="112"/>
      <point x="2" y="-69" type="curve"/>
      <point x="-28" y="-51" type="line"/>
      <point x="87" y="128"/>
      <point x="325" y="499"/>
    </contour>
  </outline>
</glyph>
<glyph name="zero" format="1">
  <advance width="505"/>
  <unicode hex="0030"/>
  <outline>
    <contour>
      <point x="176" y="-18" type="curve" smooth="yes"/>
      <point x="96" y="-18"/>
      <point x="45" y="49"/>
      <point x="33" y="135" type="curve" smooth="yes"/>
      <point x="31" y="153"/>
      <point x="30" y="171"/>
      <point x="30" y="191" type="curve" smooth="yes"/>
      <point x="30" y="281"/>
      <point x="53" y="386"/>
      <point x="88" y="457" type="curve" smooth="yes"/>
      <point x="124" y="530"/>
      <point x="139" y="554"/>
      <point x="227" y="612" type="curve" smooth="yes"/>
      <point x="259" y="633"/>
      <point x="313" y="651"/>
      <point x="346" y="650" type="curve" smooth="yes"/>
      <point x="422" y="649"/>
      <point x="464" y="578"/>
      <point x="474" y="505" type="curve" smooth="yes"/>
      <point x="477" y="487"/>
      <point x="478" y="467"/>
      <point x="478" y="445" type="curve" smooth="yes"/>
      <point x="478" y="358"/>
      <point x="457" y="247"/>
      <point x="418" y="166" type="curve" smooth="yes"/>
      <point x="387" y="102"/>
      <point x="365" y="69"/>
      <point x="303" y="28" type="curve" smooth="yes"/>
      <point x="262" y="1"/>
      <point x="222" y="-18"/>
    </contour>
    <contour>
      <point x="107" y="182" type="curve"/>
      <point x="110" y="126"/>
      <point x="138" y="32"/>
      <point x="217" y="32" type="curve" smooth="yes"/>
      <point x="282" y="32"/>
      <point x="316" y="82"/>
      <point x="353" y="177" type="curve"/>
      <point x="383" y="257"/>
      <point x="400" y="341"/>
      <point x="400" y="421" type="curve" smooth="yes"/>
      <point x="400" y="443"/>
      <point x="399" y="464"/>
      <point x="396" y="485" type="curve" smooth="yes"/>
      <point x="389" y="551"/>
      <point x="360" y="600"/>
      <point x="301" y="601" type="curve" smooth="yes"/>
      <point x="229" y="602"/>
      <point x="184" y="522"/>
      <point x="162" y="469" type="curve" smooth="yes"/>
      <point x="115" y="357"/>
      <point x="105" y="261"/>
    </contour>
  </outline>
</glyph>
<glyph name="one" format="1">
  <advance width="404"/>
  <unicode hex="0031"/>
  <outline>
    <contour>
      <point x="-16" y="-3" type="curve"/>
      <point x="-17" y="23" type="line"/>
      <point x="102" y="44"/>
      <point x="130" y="60"/>
      <point x="149" y="136" type="curve" smooth="yes"/>
      <point x="173" y="232"/>
      <point x="226" y="492"/>
      <point x="241" y="583" type="curve"/>
      <point x="175" y="567"/>
      <point x="123" y="539"/>
      <point x="71" y="502" type="curve"/>
      <point x="82" y="525"/>
      <point x="87" y="552"/>
      <point x="90" y="566" type="curve"/>
      <point x="165" y="601"/>
      <point x="335" y="647"/>
      <point x="352" y="647" type="curve"/>
      <point x="357" y="631" type="line"/>
      <point x="320" y="593"/>
      <point x="307" y="558"/>
      <point x="293" y="492" type="curve" smooth="yes"/>
      <point x="268" y="377"/>
      <point x="231" y="189"/>
      <point x="224" y="133" type="curve" smooth="yes"/>
      <point x="222" y="117"/>
      <point x="220" y="104"/>
      <point x="220" y="93" type="curve" smooth="yes"/>
      <point x="220" y="56"/>
      <point x="240" y="42"/>
      <point x="325" y="23" type="curve"/>
      <point x="314" y="-3" type="line"/>
      <point x="244" y="1"/>
      <point x="203" y="4"/>
      <point x="158" y="4" type="curve" smooth="yes"/>
      <point x="113" y="4"/>
      <point x="65" y="1"/>
    </contour>
  </outline>
</glyph>
<glyph name="two" format="1">
  <advance width="463"/>
  <unicode hex="0032"/>
  <outline>
    <contour>
      <point x="216" y="248" type="curve" smooth="yes"/>
      <point x="316" y="359"/>
      <point x="344" y="433"/>
      <point x="344" y="476" type="curve" smooth="yes"/>
      <point x="344" y="536"/>
      <point x="306" y="570"/>
      <point x="205" y="570" type="curve" smooth="yes"/>
      <point x="180" y="570"/>
      <point x="135" y="561"/>
      <point x="106" y="547" type="curve"/>
      <point x="127" y="583"/>
      <point x="134" y="603"/>
      <point x="143" y="635" type="curve"/>
      <point x="153" y="637"/>
      <point x="213" y="642"/>
      <point x="237" y="642" type="curve" smooth="yes"/>
      <point x="381" y="642"/>
      <point x="418" y="580"/>
      <point x="418" y="497" type="curve" smooth="yes"/>
      <point x="418" y="404"/>
      <point x="328" y="315"/>
      <point x="243" y="228" type="curve" smooth="yes"/>
      <point x="195" y="180"/>
      <point x="135" y="125"/>
      <point x="90" y="79" type="curve"/>
      <point x="117" y="85"/>
      <point x="146" y="87"/>
      <point x="174" y="87" type="curve" smooth="yes"/>
      <point x="203" y="87"/>
      <point x="230" y="85"/>
      <point x="250" y="83" type="curve" smooth="yes"/>
      <point x="326" y="75"/>
      <point x="351" y="99"/>
      <point x="393" y="163" type="curve"/>
      <point x="416" y="155" type="line"/>
      <point x="377" y="92"/>
      <point x="361" y="60"/>
      <point x="330" y="-10" type="curve"/>
      <point x="281" y="5"/>
      <point x="223" y="13"/>
      <point x="163" y="13" type="curve" smooth="yes"/>
      <point x="97" y="13"/>
      <point x="29" y="4"/>
      <point x="-35" y="-14" type="curve"/>
      <point x="-19" y="19"/>
      <point x="-13" y="35"/>
      <point x="-6" y="62" type="curve"/>
      <point x="96" y="122"/>
      <point x="151" y="175"/>
    </contour>
  </outline>
</glyph>
<glyph name="three" format="1">
  <advance width="425"/>
  <unicode hex="0033"/>
  <outline>
    <contour>
      <point x="126" y="-8" type="curve" smooth="yes"/>
      <point x="98" y="-4"/>
      <point x="5" y="28"/>
      <point x="-38" y="35" type="curve"/>
      <point x="-19" y="60"/>
      <point x="0" y="96"/>
      <point x="10" y="127" type="curve"/>
      <point x="30" y="110"/>
      <point x="65" y="86"/>
      <point x="112" y="69" type="curve" smooth="yes"/>
      <point x="145" y="57"/>
      <point x="172" y="52"/>
      <point x="194" y="52" type="curve" smooth="yes"/>
      <point x="232" y="52"/>
      <point x="256" y="66"/>
      <point x="275" y="86" type="curve" smooth="yes"/>
      <point x="299" y="112"/>
      <point x="311" y="151"/>
      <point x="311" y="191" type="curve" smooth="yes"/>
      <point x="311" y="226"/>
      <point x="302" y="260"/>
      <point x="283" y="287" type="curve" smooth="yes"/>
      <point x="255" y="326"/>
      <point x="203" y="355"/>
      <point x="135" y="357" type="curve"/>
      <point x="134" y="382" type="line"/>
      <point x="186" y="393"/>
      <point x="305" y="425"/>
      <point x="307" y="498" type="curve" smooth="yes"/>
      <point x="309" y="551"/>
      <point x="255" y="578"/>
      <point x="188" y="578" type="curve" smooth="yes"/>
      <point x="172" y="578"/>
      <point x="141" y="575"/>
      <point x="114" y="565" type="curve"/>
      <point x="135" y="597"/>
      <point x="139" y="615"/>
      <point x="145" y="640" type="curve"/>
      <point x="165" y="644"/>
      <point x="190" y="645"/>
      <point x="217" y="645" type="curve" smooth="yes"/>
      <point x="293" y="645"/>
      <point x="372" y="608"/>
      <point x="372" y="534" type="curve"/>
      <point x="371" y="478"/>
      <point x="344" y="447"/>
      <point x="260" y="395" type="curve"/>
      <point x="313" y="375"/>
      <point x="349" y="339"/>
      <point x="366" y="301" type="curve" smooth="yes"/>
      <point x="374" y="283"/>
      <point x="378" y="264"/>
      <point x="378" y="243" type="curve" smooth="yes"/>
      <point x="378" y="207"/>
      <point x="366" y="168"/>
      <point x="348" y="134" type="curve" smooth="yes"/>
      <point x="306" y="54"/>
      <point x="242" y="-10"/>
      <point x="155" y="-10" type="curve" smooth="yes"/>
      <point x="146" y="-10"/>
      <point x="136" y="-10"/>
    </contour>
  </outline>
</glyph>
<glyph name="four" format="1">
  <advance width="585"/>
  <unicode hex="0034"/>
  <outline>
    <contour>
      <point x="232" y="-54" type="curve"/>
      <point x="225" y="-47" type="line"/>
      <point x="265" y="22"/>
      <point x="285" y="114"/>
      <point x="298" y="199" type="curve"/>
      <point x="266" y="201"/>
      <point x="236" y="202"/>
      <point x="208" y="202" type="curve" smooth="yes"/>
      <point x="133" y="202"/>
      <point x="70" y="195"/>
      <point x="22" y="185" type="curve"/>
      <point x="24" y="200"/>
      <point x="20" y="208"/>
      <point x="14" y="225" type="curve"/>
      <point x="92" y="286"/>
      <point x="168" y="367"/>
      <point x="225" y="427" type="curve" smooth="yes"/>
      <point x="361" y="572"/>
      <point x="338" y="543"/>
      <point x="433" y="654" type="curve"/>
      <point x="442" y="646"/>
      <point x="448" y="642"/>
      <point x="460" y="639" type="curve"/>
      <point x="441" y="585"/>
      <point x="397" y="374"/>
      <point x="379" y="256" type="curve"/>
      <point x="394" y="256"/>
      <point x="409" y="255"/>
      <point x="425" y="255" type="curve" smooth="yes"/>
      <point x="466" y="255"/>
      <point x="510" y="260"/>
      <point x="563" y="288" type="curve"/>
      <point x="569" y="282" type="line"/>
      <point x="532" y="247"/>
      <point x="500" y="207"/>
      <point x="482" y="180" type="curve"/>
      <point x="450" y="187"/>
      <point x="423" y="194"/>
      <point x="369" y="197" type="curve"/>
      <point x="356" y="124"/>
      <point x="349" y="31"/>
      <point x="353" y="8" type="curve"/>
      <point x="317" y="-3"/>
      <point x="265" y="-27"/>
    </contour>
    <contour>
      <point x="361" y="527" type="curve"/>
      <point x="287" y="450"/>
      <point x="176" y="334"/>
      <point x="93" y="253" type="curve"/>
      <point x="142" y="259"/>
      <point x="183" y="262"/>
      <point x="229" y="262" type="curve" smooth="yes"/>
      <point x="254" y="262"/>
      <point x="280" y="261"/>
      <point x="309" y="260" type="curve"/>
      <point x="316" y="297"/>
      <point x="345" y="438"/>
    </contour>
  </outline>
</glyph>
<glyph name="five" format="1">
  <advance width="484"/>
  <unicode hex="0035"/>
  <outline>
    <contour>
      <point x="167" y="-6" type="curve" smooth="yes"/>
      <point x="88" y="6"/>
      <point x="32" y="20"/>
      <point x="-23" y="23" type="curve"/>
      <point x="5" y="55"/>
      <point x="25" y="91"/>
      <point x="33" y="115" type="curve"/>
      <point x="71" y="94"/>
      <point x="121" y="71"/>
      <point x="209" y="58" type="curve" smooth="yes"/>
      <point x="279" y="48"/>
      <point x="320" y="75"/>
      <point x="345" y="110" type="curve" smooth="yes"/>
      <point x="360" y="132"/>
      <point x="367" y="164"/>
      <point x="367" y="196" type="curve" smooth="yes"/>
      <point x="367" y="231"/>
      <point x="359" y="267"/>
      <point x="344" y="295" type="curve" smooth="yes"/>
      <point x="317" y="344"/>
      <point x="277" y="376"/>
      <point x="207" y="376" type="curve" smooth="yes"/>
      <point x="169" y="376"/>
      <point x="108" y="365"/>
      <point x="71" y="350" type="curve"/>
      <point x="51" y="366" type="line"/>
      <point x="93" y="431"/>
      <point x="172" y="567"/>
      <point x="206" y="639" type="curve"/>
      <point x="241" y="635"/>
      <point x="280" y="633"/>
      <point x="320" y="633" type="curve" smooth="yes"/>
      <point x="369" y="633"/>
      <point x="418" y="636"/>
      <point x="463" y="642" type="curve"/>
      <point x="446" y="618"/>
      <point x="431" y="579"/>
      <point x="424" y="550" type="curve"/>
      <point x="345" y="561"/>
      <point x="305" y="564"/>
      <point x="234" y="564" type="curve" smooth="yes"/>
      <point x="204" y="564" type="line"/>
      <point x="182" y="535"/>
      <point x="144" y="465"/>
      <point x="124" y="425" type="curve"/>
      <point x="168" y="436"/>
      <point x="205" y="444"/>
      <point x="257" y="444" type="curve" smooth="yes"/>
      <point x="355" y="444"/>
      <point x="411" y="364"/>
      <point x="426" y="302" type="curve" smooth="yes"/>
      <point x="430" y="288"/>
      <point x="431" y="273"/>
      <point x="431" y="258" type="curve" smooth="yes"/>
      <point x="431" y="199"/>
      <point x="405" y="138"/>
      <point x="372" y="91" type="curve" smooth="yes"/>
      <point x="315" y="11"/>
      <point x="253" y="-9"/>
      <point x="201" y="-9" type="curve" smooth="yes"/>
      <point x="189" y="-9"/>
      <point x="178" y="-8"/>
    </contour>
  </outline>
</glyph>
<glyph name="six" format="1">
  <advance width="511"/>
  <unicode hex="0036"/>
  <outline>
    <contour>
      <point x="185" y="-15" type="curve" smooth="yes"/>
      <point x="98" y="-15"/>
      <point x="32" y="61"/>
      <point x="32" y="179" type="curve" smooth="yes"/>
      <point x="32" y="345"/>
      <point x="138" y="538"/>
      <point x="275" y="615" type="curve"/>
      <point x="313" y="638"/>
      <point x="348" y="649"/>
      <point x="393" y="641" type="curve" smooth="yes"/>
      <point x="445" y="631"/>
      <point x="470" y="624"/>
      <point x="511" y="619" type="curve"/>
      <point x="493" y="594"/>
      <point x="474" y="564"/>
      <point x="463" y="534" type="curve"/>
      <point x="423" y="553"/>
      <point x="395" y="566"/>
      <point x="356" y="575" type="curve" smooth="yes"/>
      <point x="339" y="579"/>
      <point x="324" y="580"/>
      <point x="311" y="580" type="curve" smooth="yes"/>
      <point x="266" y="580"/>
      <point x="239" y="559"/>
      <point x="207" y="515" type="curve" smooth="yes"/>
      <point x="177" y="473"/>
      <point x="150" y="410"/>
      <point x="140" y="377" type="curve"/>
      <point x="187" y="391"/>
      <point x="264" y="419"/>
      <point x="330" y="419" type="curve" smooth="yes"/>
      <point x="359" y="419"/>
      <point x="386" y="413"/>
      <point x="407" y="399" type="curve" smooth="yes"/>
      <point x="440" y="377"/>
      <point x="463" y="338"/>
      <point x="463" y="276" type="curve" smooth="yes"/>
      <point x="463" y="221"/>
      <point x="435" y="134"/>
      <point x="395" y="85" type="curve"/>
      <point x="347" y="29"/>
      <point x="256" y="-15"/>
    </contour>
    <contour>
      <point x="131" y="343" type="curve"/>
      <point x="122" y="305"/>
      <point x="109" y="249"/>
      <point x="109" y="194" type="curve" smooth="yes"/>
      <point x="109" y="152"/>
      <point x="117" y="110"/>
      <point x="140" y="75" type="curve" smooth="yes"/>
      <point x="160" y="44"/>
      <point x="191" y="28"/>
      <point x="226" y="28" type="curve" smooth="yes"/>
      <point x="244" y="28"/>
      <point x="263" y="32"/>
      <point x="282" y="41" type="curve" smooth="yes"/>
      <point x="354" y="74"/>
      <point x="385" y="191"/>
      <point x="385" y="268" type="curve" smooth="yes"/>
      <point x="385" y="305"/>
      <point x="372" y="335"/>
      <point x="343" y="352" type="curve" smooth="yes"/>
      <point x="325" y="363"/>
      <point x="300" y="367"/>
      <point x="274" y="367" type="curve" smooth="yes"/>
      <point x="226" y="367"/>
      <point x="170" y="353"/>
    </contour>
  </outline>
</glyph>
<glyph name="seven" format="1">
  <advance width="435"/>
  <unicode hex="0037"/>
  <outline>
    <contour>
      <point x="43" y="-31" type="curve"/>
      <point x="104" y="172"/>
      <point x="134" y="207"/>
      <point x="214" y="323" type="curve" smooth="yes"/>
      <point x="269" y="401"/>
      <point x="361" y="517"/>
      <point x="399" y="559" type="curve"/>
      <point x="360" y="553"/>
      <point x="329" y="552"/>
      <point x="299" y="552" type="curve" smooth="yes"/>
      <point x="269" y="552"/>
      <point x="240" y="553"/>
      <point x="207" y="555" type="curve" smooth="yes"/>
      <point x="131" y="559"/>
      <point x="123" y="545"/>
      <point x="68" y="461" type="curve"/>
      <point x="45" y="472" type="line"/>
      <point x="86" y="543"/>
      <point x="104" y="577"/>
      <point x="124" y="641" type="curve"/>
      <point x="203" y="632"/>
      <point x="263" y="627"/>
      <point x="316" y="627" type="curve" smooth="yes"/>
      <point x="375" y="627"/>
      <point x="424" y="633"/>
      <point x="477" y="641" type="curve"/>
      <point x="485" y="626"/>
      <point x="489" y="622"/>
      <point x="489" y="622" type="curve"/>
      <point x="382" y="505"/>
      <point x="285" y="378"/>
      <point x="251" y="317" type="curve"/>
      <point x="195" y="221"/>
      <point x="177" y="194"/>
      <point x="146" y="19" type="curve"/>
      <point x="108" y="8"/>
      <point x="85" y="-4"/>
    </contour>
  </outline>
</glyph>
<glyph name="eight" format="1">
  <advance width="474"/>
  <unicode hex="0038"/>
  <outline>
    <contour>
      <point x="165" y="-19" type="curve" smooth="yes"/>
      <point x="114" y="-19"/>
      <point x="7" y="19"/>
      <point x="7" y="141" type="curve" smooth="yes"/>
      <point x="7" y="192"/>
      <point x="27" y="233"/>
      <point x="70" y="275" type="curve" smooth="yes"/>
      <point x="94" y="299"/>
      <point x="142" y="334"/>
      <point x="197" y="371" type="curve"/>
      <point x="177" y="389"/>
      <point x="156" y="409"/>
      <point x="143" y="426" type="curve" smooth="yes"/>
      <point x="125" y="449"/>
      <point x="111" y="478"/>
      <point x="111" y="508" type="curve" smooth="yes"/>
      <point x="111" y="535"/>
      <point x="122" y="564"/>
      <point x="151" y="590" type="curve"/>
      <point x="174" y="612"/>
      <point x="243" y="650"/>
      <point x="294" y="650" type="curve" smooth="yes"/>
      <point x="399" y="650"/>
      <point x="442" y="587"/>
      <point x="442" y="532" type="curve" smooth="yes"/>
      <point x="442" y="504"/>
      <point x="428" y="469"/>
      <point x="409" y="449" type="curve" smooth="yes"/>
      <point x="370" y="409"/>
      <point x="345" y="391"/>
      <point x="308" y="369" type="curve"/>
      <point x="337" y="347"/>
      <point x="369" y="315"/>
      <point x="378" y="304" type="curve" smooth="yes"/>
      <point x="405" y="271"/>
      <point x="419" y="228"/>
      <point x="419" y="185" type="curve" smooth="yes"/>
      <point x="419" y="150"/>
      <point x="410" y="114"/>
      <point x="389" y="84" type="curve" smooth="yes"/>
      <point x="352" y="29"/>
      <point x="245" y="-19"/>
    </contour>
    <contour>
      <point x="82" y="149" type="curve" smooth="yes"/>
      <point x="82" y="81"/>
      <point x="150" y="29"/>
      <point x="223" y="29" type="curve" smooth="yes"/>
      <point x="240" y="29"/>
      <point x="257" y="32"/>
      <point x="274" y="38" type="curve" smooth="yes"/>
      <point x="321" y="55"/>
      <point x="345" y="109"/>
      <point x="345" y="167" type="curve" smooth="yes"/>
      <point x="345" y="210"/>
      <point x="333" y="245"/>
      <point x="291" y="285" type="curve" smooth="yes"/>
      <point x="258" y="317"/>
      <point x="241" y="332"/>
      <point x="220" y="350" type="curve"/>
      <point x="176" y="321"/>
      <point x="150" y="300"/>
      <point x="122" y="261" type="curve"/>
      <point x="87" y="215"/>
      <point x="82" y="172"/>
    </contour>
    <contour>
      <point x="218" y="595" type="curve" smooth="yes"/>
      <point x="192" y="580"/>
      <point x="182" y="551"/>
      <point x="182" y="525" type="curve" smooth="yes"/>
      <point x="182" y="507"/>
      <point x="187" y="490"/>
      <point x="195" y="480" type="curve" smooth="yes"/>
      <point x="222" y="444"/>
      <point x="263" y="411"/>
      <point x="286" y="387" type="curve"/>
      <point x="355" y="434"/>
      <point x="371" y="471"/>
      <point x="371" y="518" type="curve" smooth="yes"/>
      <point x="371" y="564"/>
      <point x="314" y="607"/>
      <point x="261" y="607" type="curve" smooth="yes"/>
      <point x="246" y="607"/>
      <point x="231" y="603"/>
    </contour>
  </outline>
</glyph>
<glyph name="nine" format="1">
  <advance width="505"/>
  <unicode hex="0039"/>
  <outline>
    <contour>
      <point x="330" y="649" type="curve" smooth="yes"/>
      <point x="417" y="649"/>
      <point x="482" y="574"/>
      <point x="482" y="455" type="curve" smooth="yes"/>
      <point x="482" y="290"/>
      <point x="384" y="97"/>
      <point x="248" y="18" type="curve" smooth="yes"/>
      <point x="219" y="1"/>
      <point x="189" y="-7"/>
      <point x="156" y="-7" type="curve" smooth="yes"/>
      <point x="146" y="-7"/>
      <point x="136" y="-7"/>
      <point x="125" y="-5" type="curve" smooth="yes"/>
      <point x="73" y="5"/>
      <point x="48" y="11"/>
      <point x="6" y="16" type="curve"/>
      <point x="25" y="42"/>
      <point x="42" y="71"/>
      <point x="54" y="101" type="curve"/>
      <point x="93" y="80"/>
      <point x="125" y="67"/>
      <point x="160" y="62" type="curve" smooth="yes"/>
      <point x="177" y="59"/>
      <point x="192" y="58"/>
      <point x="205" y="58" type="curve" smooth="yes"/>
      <point x="251" y="58"/>
      <point x="280" y="75"/>
      <point x="311" y="120" type="curve" smooth="yes"/>
      <point x="340" y="162"/>
      <point x="363" y="234"/>
      <point x="373" y="266" type="curve"/>
      <point x="327" y="252"/>
      <point x="253" y="225"/>
      <point x="189" y="225" type="curve" smooth="yes"/>
      <point x="160" y="225"/>
      <point x="134" y="230"/>
      <point x="113" y="245" type="curve" smooth="yes"/>
      <point x="80" y="267"/>
      <point x="57" y="306"/>
      <point x="57" y="368" type="curve" smooth="yes"/>
      <point x="57" y="424"/>
      <point x="82" y="501"/>
      <point x="123" y="549" type="curve" smooth="yes"/>
      <point x="170" y="605"/>
      <point x="259" y="649"/>
    </contour>
    <contour>
      <point x="381" y="301" type="curve"/>
      <point x="390" y="340"/>
      <point x="403" y="393"/>
      <point x="403" y="446" type="curve" smooth="yes"/>
      <point x="403" y="486"/>
      <point x="395" y="526"/>
      <point x="373" y="560" type="curve" smooth="yes"/>
      <point x="353" y="590"/>
      <point x="325" y="607"/>
      <point x="291" y="607" type="curve" smooth="yes"/>
      <point x="275" y="607"/>
      <point x="257" y="603"/>
      <point x="239" y="595" type="curve" smooth="yes"/>
      <point x="165" y="562"/>
      <point x="135" y="454"/>
      <point x="135" y="376" type="curve" smooth="yes"/>
      <point x="135" y="339"/>
      <point x="147" y="311"/>
      <point x="176" y="294" type="curve" smooth="yes"/>
      <point x="195" y="283"/>
      <point x="219" y="278"/>
      <point x="246" y="278" type="curve" smooth="yes"/>
      <point x="292" y="278"/>
      <point x="343" y="291"/>
    </contour>
  </outline>
</glyph>
<glyph name="colon" format="1">
  <advance width="198"/>
  <unicode hex="003A"/>
  <outline>
    <contour>
      <point x="134" y="343" type="curve" smooth="yes"/>
      <point x="98" y="341"/>
      <point x="88" y="367"/>
      <point x="89" y="386" type="curve" smooth="yes"/>
      <point x="90" y="411"/>
      <point x="109" y="434"/>
      <point x="139" y="435" type="curve" smooth="yes"/>
      <point x="173" y="437"/>
      <point x="184" y="415"/>
      <point x="183" y="394" type="curve" smooth="yes"/>
      <point x="182" y="369"/>
      <point x="165" y="345"/>
    </contour>
    <contour>
      <point x="52" y="-12" type="curve" smooth="yes"/>
      <point x="16" y="-14"/>
      <point x="6" y="13"/>
      <point x="7" y="32" type="curve" smooth="yes"/>
      <point x="8" y="56"/>
      <point x="27" y="79"/>
      <point x="57" y="81" type="curve" smooth="yes"/>
      <point x="91" y="83"/>
      <point x="102" y="60"/>
      <point x="101" y="39" type="curve" smooth="yes"/>
      <point x="100" y="15"/>
      <point x="84" y="-10"/>
    </contour>
  </outline>
</glyph>
<glyph name="semicolon" format="1">
  <advance width="218"/>
  <unicode hex="003B"/>
  <outline>
    <contour>
      <point x="133" y="343" type="curve" smooth="yes"/>
      <point x="97" y="341"/>
      <point x="87" y="367"/>
      <point x="88" y="386" type="curve" smooth="yes"/>
      <point x="89" y="411"/>
      <point x="108" y="434"/>
      <point x="138" y="435" type="curve" smooth="yes"/>
      <point x="172" y="437"/>
      <point x="183" y="415"/>
      <point x="182" y="394" type="curve" smooth="yes"/>
      <point x="181" y="369"/>
      <point x="165" y="345"/>
    </contour>
    <contour>
      <point x="-31" y="-178" type="curve"/>
      <point x="-47" y="-155" type="line"/>
      <point x="-20" y="-130"/>
      <point x="8" y="-100"/>
      <point x="22" y="-80" type="curve"/>
      <point x="33" y="-62"/>
      <point x="38" y="-46"/>
      <point x="38" y="-30" type="curve" smooth="yes"/>
      <point x="38" y="-5"/>
      <point x="25" y="17"/>
      <point x="1" y="36" type="curve"/>
      <point x="28" y="59"/>
      <point x="41" y="71"/>
      <point x="64" y="101" type="curve"/>
      <point x="84" y="83"/>
      <point x="95" y="68"/>
      <point x="106" y="51" type="curve" smooth="yes"/>
      <point x="113" y="39"/>
      <point x="117" y="27"/>
      <point x="117" y="14" type="curve" smooth="yes"/>
      <point x="117" y="-12"/>
      <point x="103" y="-40"/>
      <point x="79" y="-68" type="curve"/>
      <point x="52" y="-103"/>
      <point x="5" y="-146"/>
    </contour>
  </outline>
</glyph>
<glyph name="less" format="1">
  <advance width="442"/>
  <unicode hex="003C"/>
  <outline>
    <contour>
      <point x="20" y="273" type="line"/>
      <point x="20" y="300" type="line"/>
      <point x="392" y="485" type="line"/>
      <point x="407" y="453" type="line"/>
      <point x="72" y="286" type="line"/>
      <point x="407" y="120" type="line"/>
      <point x="392" y="88" type="line"/>
    </contour>
  </outline>
</glyph>
<glyph name="equal" format="1">
  <advance width="469"/>
  <unicode hex="003D"/>
  <outline>
    <contour>
      <point x="28" y="343" type="line"/>
      <point x="28" y="378" type="line"/>
      <point x="444" y="378" type="line"/>
      <point x="444" y="343" type="line"/>
    </contour>
    <contour>
      <point x="28" y="197" type="line"/>
      <point x="28" y="233" type="line"/>
      <point x="444" y="233" type="line"/>
      <point x="444" y="197" type="line"/>
    </contour>
  </outline>
</glyph>
<glyph name="greater" format="1">
  <advance width="442"/>
  <unicode hex="003E"/>
  <outline>
    <contour>
      <point x="415" y="301" type="line"/>
      <point x="415" y="274" type="line"/>
      <point x="43" y="89" type="line"/>
      <point x="28" y="121" type="line"/>
      <point x="363" y="288" type="line"/>
      <point x="28" y="454" type="line"/>
      <point x="43" y="486" type="line"/>
    </contour>
  </outline>
</glyph>
<glyph name="question" format="1">
  <advance width="388"/>
  <unicode hex="003F"/>
  <outline>
    <contour>
      <point x="114" y="135" type="curve"/>
      <point x="86" y="137" type="line"/>
      <point x="101" y="180"/>
      <point x="120" y="245"/>
      <point x="131" y="304" type="curve"/>
      <point x="156" y="292"/>
      <point x="193" y="282"/>
      <point x="222" y="280" type="curve" smooth="yes"/>
      <point x="289" y="275"/>
      <point x="329" y="315"/>
      <point x="343" y="346" type="curve" smooth="yes"/>
      <point x="348" y="358"/>
      <point x="351" y="373"/>
      <point x="351" y="389" type="curve" smooth="yes"/>
      <point x="351" y="430"/>
      <point x="331" y="479"/>
      <point x="275" y="511" type="curve" smooth="yes"/>
      <point x="219" y="543"/>
      <point x="138" y="564"/>
      <point x="75" y="559" type="curve"/>
      <point x="95" y="591"/>
      <point x="104" y="613"/>
      <point x="115" y="655" type="curve"/>
      <point x="134" y="640"/>
      <point x="158" y="633"/>
      <point x="185" y="624" type="curve"/>
      <point x="225" y="609"/>
      <point x="272" y="596"/>
      <point x="309" y="571" type="curve" smooth="yes"/>
      <point x="363" y="535"/>
      <point x="389" y="478"/>
      <point x="389" y="418" type="curve" smooth="yes"/>
      <point x="389" y="392"/>
      <point x="384" y="365"/>
      <point x="374" y="339" type="curve" smooth="yes"/>
      <point x="353" y="280"/>
      <point x="285" y="211"/>
      <point x="215" y="211" type="curve" smooth="yes"/>
      <point x="195" y="211"/>
      <point x="161" y="217"/>
      <point x="143" y="224" type="curve"/>
      <point x="133" y="200"/>
      <point x="125" y="175"/>
    </contour>
    <contour>
      <point x="75" y="-12" type="curve" smooth="yes"/>
      <point x="40" y="-14"/>
      <point x="29" y="13"/>
      <point x="30" y="33" type="curve" smooth="yes"/>
      <point x="31" y="58"/>
      <point x="50" y="82"/>
      <point x="82" y="84" type="curve"/>
      <point x="115" y="85"/>
      <point x="127" y="62"/>
      <point x="126" y="41" type="curve" smooth="yes"/>
      <point x="125" y="15"/>
      <point x="108" y="-10"/>
    </contour>
  </outline>
</glyph>
<glyph name="at" format="1">
  <advance width="806"/>
  <unicode hex="0040"/>
  <outline>
    <contour>
      <point x="457" y="-13" type="curve" smooth="yes"/>
      <point x="429" y="-13"/>
      <point x="416" y="8"/>
      <point x="417" y="32" type="curve"/>
      <point x="377" y="15"/>
      <point x="319" y="-11"/>
      <point x="292" y="-11" type="curve" smooth="yes"/>
      <point x="235" y="-11"/>
      <point x="200" y="39"/>
      <point x="208" y="118" type="curve" smooth="yes"/>
      <point x="214" y="179"/>
      <point x="232" y="244"/>
      <point x="265" y="303" type="curve"/>
      <point x="291" y="347"/>
      <point x="323" y="385"/>
      <point x="395" y="415" type="curve"/>
      <point x="435" y="434"/>
      <point x="475" y="438"/>
      <point x="522" y="435" type="curve" smooth="yes"/>
      <point x="544" y="433"/>
      <point x="567" y="427"/>
      <point x="594" y="424" type="curve"/>
      <point x="584" y="412"/>
      <point x="569" y="378"/>
      <point x="567" y="372" type="curve" smooth="yes"/>
      <point x="538" y="269"/>
      <point x="517" y="192"/>
      <point x="502" y="98" type="curve" smooth="yes"/>
      <point x="495" y="60"/>
      <point x="513" y="46"/>
      <point x="548" y="47" type="curve"/>
      <point x="585" y="47"/>
      <point x="626" y="85"/>
      <point x="645" y="112" type="curve" smooth="yes"/>
      <point x="678" y="160"/>
      <point x="705" y="223"/>
      <point x="716" y="304" type="curve" smooth="yes"/>
      <point x="719" y="325"/>
      <point x="720" y="345"/>
      <point x="720" y="363" type="curve" smooth="yes"/>
      <point x="720" y="525"/>
      <point x="610" y="580"/>
      <point x="505" y="580" type="curve" smooth="yes"/>
      <point x="239" y="580"/>
      <point x="131" y="366"/>
      <point x="99" y="247" type="curve" smooth="yes"/>
      <point x="84" y="193"/>
      <point x="74" y="135"/>
      <point x="74" y="80" type="curve" smooth="yes"/>
      <point x="74" y="-50"/>
      <point x="132" y="-162"/>
      <point x="329" y="-162" type="curve" smooth="yes"/>
      <point x="380" y="-162"/>
      <point x="451" y="-145"/>
      <point x="485" y="-132" type="curve"/>
      <point x="495" y="-159" type="line"/>
      <point x="448" y="-180"/>
      <point x="375" y="-196"/>
      <point x="324" y="-196" type="curve" smooth="yes"/>
      <point x="116" y="-196"/>
      <point x="37" y="-83"/>
      <point x="37" y="74" type="curve" smooth="yes"/>
      <point x="37" y="130"/>
      <point x="47" y="192"/>
      <point x="65" y="257" type="curve" smooth="yes"/>
      <point x="125" y="480"/>
      <point x="300" y="612"/>
      <point x="511" y="612" type="curve" smooth="yes"/>
      <point x="662" y="612"/>
      <point x="757" y="526"/>
      <point x="757" y="369" type="curve" smooth="yes"/>
      <point x="757" y="348"/>
      <point x="756" y="326"/>
      <point x="752" y="302" type="curve" smooth="yes"/>
      <point x="743" y="237"/>
      <point x="717" y="156"/>
      <point x="676" y="100" type="curve" smooth="yes"/>
      <point x="621" y="25"/>
      <point x="556" y="-13"/>
    </contour>
    <contour>
      <point x="281" y="135" type="curve"/>
      <point x="273" y="72"/>
      <point x="295" y="47"/>
      <point x="335" y="47" type="curve" smooth="yes"/>
      <point x="362" y="47"/>
      <point x="396" y="55"/>
      <point x="423" y="61" type="curve"/>
      <point x="448" y="176"/>
      <point x="486" y="307"/>
      <point x="503" y="384" type="curve"/>
      <point x="494" y="388"/>
      <point x="465" y="395"/>
      <point x="452" y="397" type="curve" smooth="yes"/>
      <point x="395" y="403"/>
      <point x="353" y="366"/>
      <point x="323" y="295" type="curve" smooth="yes"/>
      <point x="302" y="245"/>
      <point x="285" y="187"/>
    </contour>
  </outline>
</glyph>
<glyph name="A" format="1">
  <advance width="709"/>
  <unicode hex="0041"/>
  <outline>
    <contour>
      <point x="381" y="-3" type="curve"/>
      <point x="384" y="23" type="line"/>
      <point x="444" y="35"/>
      <point x="484" y="42"/>
      <point x="480" y="91" type="curve" smooth="yes"/>
      <point x="479" y="105"/>
      <point x="468" y="175"/>
      <point x="464" y="195" type="curve"/>
      <point x="424" y="193"/>
      <point x="379" y="192"/>
      <point x="333" y="192" type="curve" smooth="yes"/>
      <point x="287" y="192"/>
      <point x="241" y="193"/>
      <point x="201" y="195" type="curve"/>
      <point x="176" y="156"/>
      <point x="157" y="114"/>
      <point x="150" y="96" type="curve" smooth="yes"/>
      <point x="146" y="84"/>
      <point x="143" y="75"/>
      <point x="143" y="67" type="curve" smooth="yes"/>
      <point x="143" y="48"/>
      <point x="159" y="36"/>
      <point x="211" y="23" type="curve"/>
      <point x="203" y="-3" type="line"/>
      <point x="169" y="1"/>
      <point x="129" y="3"/>
      <point x="88" y="3" type="curve" smooth="yes"/>
      <point x="47" y="3"/>
      <point x="6" y="1"/>
      <point x="-29" y="-3" type="curve"/>
      <point x="-29" y="23"/>
      <point x="-30" y="21"/>
      <point x="-30" y="21" type="curve"/>
      <point x="35" y="37"/>
      <point x="50" y="45"/>
      <point x="82" y="87" type="curve" smooth="yes"/>
      <point x="158" y="189"/>
      <point x="272" y="375"/>
      <point x="348" y="513" type="curve" smooth="yes"/>
      <point x="368" y="548"/>
      <point x="382" y="585"/>
      <point x="379" y="625" type="curve"/>
      <point x="413" y="632"/>
      <point x="432" y="637"/>
      <point x="462" y="652" type="curve"/>
      <point x="462" y="637"/>
      <point x="465" y="607"/>
      <point x="471" y="569" type="curve" smooth="yes"/>
      <point x="492" y="437"/>
      <point x="546" y="181"/>
      <point x="568" y="91" type="curve" smooth="yes"/>
      <point x="578" y="52"/>
      <point x="592" y="39"/>
      <point x="648" y="23" type="curve"/>
      <point x="640" y="-3" type="line"/>
      <point x="604" y="2"/>
      <point x="564" y="4"/>
      <point x="522" y="4" type="curve" smooth="yes"/>
      <point x="473" y="4"/>
      <point x="424" y="1"/>
    </contour>
    <contour>
      <point x="221" y="228" type="curve"/>
      <point x="256" y="225"/>
      <point x="292" y="224"/>
      <point x="328" y="224" type="curve" smooth="yes"/>
      <point x="371" y="224"/>
      <point x="414" y="226"/>
      <point x="458" y="229" type="curve"/>
      <point x="436" y="350"/>
      <point x="423" y="420"/>
      <point x="397" y="534" type="curve"/>
      <point x="342" y="442"/>
      <point x="280" y="328"/>
    </contour>
  </outline>
</glyph>
<glyph name="C" format="1">
  <advance width="623"/>
  <unicode hex="0043"/>
  <outline>
    <contour>
      <point x="37" y="249" type="curve"/>
      <point x="37" y="425"/>
      <point x="160" y="594"/>
      <point x="338" y="635" type="curve" smooth="yes"/>
      <point x="366" y="642"/>
      <point x="394" y="645"/>
      <point x="423" y="645" type="curve" smooth="yes"/>
      <point x="452" y="645"/>
      <point x="481" y="642"/>
      <point x="512" y="637" type="curve" smooth="yes"/>
      <point x="541" y="633"/>
      <point x="563" y="630"/>
      <point x="579" y="636" type="curve"/>
      <point x="583" y="593"/>
      <point x="596" y="525"/>
      <point x="606" y="493" type="curve"/>
      <point x="584" y="482" type="line"/>
      <point x="580" y="492"/>
      <point x="576" y="503"/>
      <point x="570" y="514" type="curve" smooth="yes"/>
      <point x="558" y="535"/>
      <point x="535" y="564"/>
      <point x="505" y="582" type="curve" smooth="yes"/>
      <point x="469" y="603"/>
      <point x="425" y="615"/>
      <point x="375" y="609" type="curve" smooth="yes"/>
      <point x="215" y="587"/>
      <point x="122" y="409"/>
      <point x="122" y="254" type="curve" smooth="yes"/>
      <point x="121" y="83"/>
      <point x="247" y="19"/>
      <point x="325" y="17" type="curve" smooth="yes"/>
      <point x="403" y="15"/>
      <point x="456" y="35"/>
      <point x="527" y="98" type="curve"/>
      <point x="546" y="85" type="line"/>
      <point x="528" y="60"/>
      <point x="502" y="20"/>
      <point x="492" y="4" type="curve"/>
      <point x="434" y="-9"/>
      <point x="389" y="-15"/>
      <point x="310" y="-16" type="curve"/>
      <point x="157" y="-16"/>
      <point x="36" y="83"/>
    </contour>
  </outline>
</glyph>
<glyph name="D" format="1">
  <advance width="701"/>
  <unicode hex="0044"/>
  <outline>
    <contour>
      <point x="-28" y="-3" type="curve"/>
      <point x="-29" y="23" type="line"/>
      <point x="61" y="35"/>
      <point x="69" y="45"/>
      <point x="85" y="96" type="curve" smooth="yes"/>
      <point x="105" y="164"/>
      <point x="159" y="457"/>
      <point x="172" y="539" type="curve" smooth="yes"/>
      <point x="180" y="590"/>
      <point x="158" y="599"/>
      <point x="94" y="614" type="curve"/>
      <point x="103" y="639" type="line"/>
      <point x="130" y="635"/>
      <point x="189" y="634"/>
      <point x="219" y="634" type="curve" smooth="yes"/>
      <point x="295" y="634"/>
      <point x="312" y="639"/>
      <point x="399" y="639" type="curve" smooth="yes"/>
      <point x="580" y="639"/>
      <point x="671" y="541"/>
      <point x="673" y="408" type="curve"/>
      <point x="673" y="331"/>
      <point x="654" y="239"/>
      <point x="610" y="178" type="curve" smooth="yes"/>
      <point x="572" y="125"/>
      <point x="469" y="-2"/>
      <point x="220" y="-2" type="curve" smooth="yes"/>
      <point x="183" y="-2"/>
      <point x="112" y="3"/>
      <point x="73" y="3" type="curve" smooth="yes"/>
      <point x="44" y="3"/>
      <point x="2" y="0"/>
    </contour>
    <contour>
      <point x="155" y="63" type="curve"/>
      <point x="175" y="55"/>
      <point x="260" y="45"/>
      <point x="283" y="45" type="curve" smooth="yes"/>
      <point x="499" y="41"/>
      <point x="587" y="221"/>
      <point x="587" y="395" type="curve" smooth="yes"/>
      <point x="587" y="518"/>
      <point x="515" y="603"/>
      <point x="339" y="603" type="curve" smooth="yes"/>
      <point x="324" y="603"/>
      <point x="284" y="601"/>
      <point x="266" y="598" type="curve"/>
      <point x="248" y="533"/>
      <point x="166" y="139"/>
    </contour>
  </outline>
</glyph>
<glyph name="F" format="1">
  <advance width="494"/>
  <unicode hex="0046"/>
  <outline>
    <contour>
      <point x="85" y="104" type="curve"/>
      <point x="119" y="233"/>
      <point x="150" y="391"/>
      <point x="174" y="531" type="curve" smooth="yes"/>
      <point x="184" y="589"/>
      <point x="158" y="596"/>
      <point x="87" y="614" type="curve"/>
      <point x="95" y="639" type="line"/>
      <point x="141" y="633"/>
      <point x="185" y="633"/>
      <point x="239" y="633" type="curve" smooth="yes"/>
      <point x="335" y="633"/>
      <point x="452" y="634"/>
      <point x="515" y="646" type="curve"/>
      <point x="515" y="608"/>
      <point x="529" y="529"/>
      <point x="544" y="496" type="curve"/>
      <point x="515" y="487" type="line"/>
      <point x="478" y="585"/>
      <point x="445" y="593"/>
      <point x="383" y="595" type="curve" smooth="yes"/>
      <point x="371" y="596"/>
      <point x="353" y="596"/>
      <point x="334" y="596" type="curve" smooth="yes"/>
      <point x="308" y="596"/>
      <point x="281" y="596"/>
      <point x="261" y="595" type="curve"/>
      <point x="251" y="567"/>
      <point x="226" y="430"/>
      <point x="210" y="347" type="curve"/>
      <point x="282" y="345"/>
      <point x="371" y="357"/>
      <point x="445" y="381" type="curve"/>
      <point x="425" y="352"/>
      <point x="412" y="315"/>
      <point x="407" y="282" type="curve"/>
      <point x="357" y="299"/>
      <point x="297" y="315"/>
      <point x="204" y="315" type="curve"/>
      <point x="191" y="249"/>
      <point x="176" y="174"/>
      <point x="165" y="111" type="curve" smooth="yes"/>
      <point x="162" y="97"/>
      <point x="160" y="85"/>
      <point x="160" y="76" type="curve" smooth="yes"/>
      <point x="160" y="45"/>
      <point x="180" y="36"/>
      <point x="250" y="23" type="curve"/>
      <point x="243" y="-3" type="line"/>
      <point x="194" y="1"/>
      <point x="151" y="3"/>
      <point x="107" y="3" type="curve" smooth="yes"/>
      <point x="63" y="3"/>
      <point x="19" y="1"/>
      <point x="-30" y="-3" type="curve"/>
      <point x="-31" y="23" type="line"/>
      <point x="61" y="36"/>
      <point x="73" y="52"/>
    </contour>
  </outline>
</glyph>
<glyph name="K" format="1">
  <advance width="671"/>
  <unicode hex="004B"/>
  <outline>
    <contour>
      <point x="211" y="355" type="curve"/>
      <point x="385" y="500"/>
      <point x="468" y="557"/>
      <point x="639" y="653" type="curve"/>
      <point x="637" y="627"/>
      <point x="642" y="592"/>
      <point x="650" y="562" type="curve"/>
      <point x="463" y="504"/>
      <point x="403" y="471"/>
      <point x="286" y="377" type="curve"/>
      <point x="329" y="307"/>
      <point x="404" y="183"/>
      <point x="458" y="115" type="curve" smooth="yes"/>
      <point x="500" y="62"/>
      <point x="535" y="30"/>
      <point x="599" y="23" type="curve"/>
      <point x="593" y="-3" type="line"/>
      <point x="564" y="2"/>
      <point x="524" y="3"/>
      <point x="488" y="3" type="curve" smooth="yes"/>
      <point x="445" y="3"/>
      <point x="408" y="1"/>
      <point x="401" y="-3" type="curve"/>
      <point x="399" y="23"/>
      <point x="398" y="39"/>
      <point x="378" y="77" type="curve" smooth="yes"/>
      <point x="335" y="163"/>
      <point x="256" y="291"/>
    </contour>
    <contour>
      <point x="88" y="614" type="curve"/>
      <point x="98" y="639" type="line"/>
      <point x="148" y="634"/>
      <point x="190" y="632"/>
      <point x="233" y="632" type="curve" smooth="yes"/>
      <point x="273" y="632"/>
      <point x="314" y="634"/>
      <point x="363" y="639" type="curve"/>
      <point x="361" y="614" type="line"/>
      <point x="278" y="604"/>
      <point x="265" y="592"/>
      <point x="253" y="540" type="curve"/>
      <point x="226" y="437"/>
      <point x="185" y="234"/>
      <point x="162" y="100" type="curve" smooth="yes"/>
      <point x="153" y="45"/>
      <point x="163" y="36"/>
      <point x="245" y="23" type="curve"/>
      <point x="237" y="-3" type="line"/>
      <point x="189" y="1"/>
      <point x="147" y="3"/>
      <point x="105" y="3" type="curve" smooth="yes"/>
      <point x="63" y="3"/>
      <point x="19" y="1"/>
      <point x="-30" y="-3" type="curve"/>
      <point x="-31" y="23" type="line"/>
      <point x="59" y="34"/>
      <point x="70" y="45"/>
      <point x="84" y="96" type="curve"/>
      <point x="118" y="233"/>
      <point x="149" y="399"/>
      <point x="172" y="535" type="curve" smooth="yes"/>
      <point x="181" y="586"/>
      <point x="173" y="599"/>
    </contour>
  </outline>
</glyph>
<glyph name="O" format="1">
  <advance width="723"/>
  <unicode hex="004F"/>
  <outline>
    <contour>
      <point x="312" y="-21" type="curve" smooth="yes"/>
      <point x="132" y="-21"/>
      <point x="42" y="118"/>
      <point x="42" y="256" type="curve"/>
      <point x="43" y="322"/>
      <point x="56" y="383"/>
      <point x="83" y="435" type="curve" smooth="yes"/>
      <point x="135" y="539"/>
      <point x="256" y="653"/>
      <point x="419" y="653" type="curve" smooth="yes"/>
      <point x="585" y="653"/>
      <point x="685" y="523"/>
      <point x="685" y="365" type="curve" smooth="yes"/>
      <point x="685" y="294"/>
      <point x="665" y="218"/>
      <point x="626" y="157" type="curve"/>
      <point x="570" y="66"/>
      <point x="455" y="-21"/>
    </contour>
    <contour>
      <point x="123" y="272" type="curve" smooth="yes"/>
      <point x="123" y="95"/>
      <point x="246" y="25"/>
      <point x="345" y="25" type="curve" smooth="yes"/>
      <point x="436" y="25"/>
      <point x="495" y="54"/>
      <point x="551" y="147" type="curve" smooth="yes"/>
      <point x="585" y="204"/>
      <point x="605" y="278"/>
      <point x="605" y="352" type="curve" smooth="yes"/>
      <point x="605" y="545"/>
      <point x="467" y="608"/>
      <point x="378" y="608" type="curve" smooth="yes"/>
      <point x="326" y="608"/>
      <point x="276" y="599"/>
      <point x="212" y="525" type="curve" smooth="yes"/>
      <point x="160" y="466"/>
      <point x="123" y="372"/>
    </contour>
  </outline>
</glyph>
<glyph name="Q" format="1">
  <advance width="723"/>
  <unicode hex="0051"/>
  <outline>
    <contour>
      <point x="476" y="-232" type="curve" smooth="yes"/>
      <point x="276" y="-214"/>
      <point x="180" y="-184"/>
      <point x="41" y="-107" type="curve" smooth="yes"/>
      <point x="17" y="-94"/>
      <point x="-8" y="-77"/>
      <point x="-38" y="-57" type="curve"/>
      <point x="-23" y="-45"/>
      <point x="-13" y="-37"/>
      <point x="-6" y="-15" type="curve"/>
      <point x="23" y="-31"/>
      <point x="38" y="-39"/>
      <point x="73" y="-41" type="curve" smooth="yes"/>
      <point x="121" y="-44"/>
      <point x="196" y="-30"/>
      <point x="255" y="-16" type="curve"/>
      <point x="113" y="10"/>
      <point x="42" y="133"/>
      <point x="42" y="256" type="curve"/>
      <point x="43" y="322"/>
      <point x="56" y="383"/>
      <point x="83" y="435" type="curve" smooth="yes"/>
      <point x="135" y="539"/>
      <point x="256" y="653"/>
      <point x="419" y="653" type="curve" smooth="yes"/>
      <point x="585" y="653"/>
      <point x="685" y="523"/>
      <point x="685" y="365" type="curve" smooth="yes"/>
      <point x="685" y="294"/>
      <point x="665" y="218"/>
      <point x="626" y="157" type="curve"/>
      <point x="584" y="89"/>
      <point x="510" y="24"/>
      <point x="417" y="-5" type="curve"/>
      <point x="420" y="-5" type="line"/>
      <point x="276" y="-51"/>
      <point x="184" y="-71"/>
      <point x="108" y="-75" type="curve"/>
      <point x="227" y="-125"/>
      <point x="313" y="-147"/>
      <point x="483" y="-156" type="curve" smooth="yes"/>
      <point x="496" y="-157"/>
      <point x="508" y="-157"/>
      <point x="520" y="-157" type="curve" smooth="yes"/>
      <point x="550" y="-157"/>
      <point x="578" y="-154"/>
      <point x="605" y="-148" type="curve"/>
      <point x="580" y="-183"/>
      <point x="563" y="-210"/>
      <point x="559" y="-235" type="curve"/>
      <point x="533" y="-236"/>
      <point x="503" y="-235"/>
    </contour>
    <contour>
      <point x="123" y="272" type="curve" smooth="yes"/>
      <point x="123" y="95"/>
      <point x="246" y="21"/>
      <point x="345" y="21" type="curve" smooth="yes"/>
      <point x="426" y="21"/>
      <point x="489" y="43"/>
      <point x="551" y="147" type="curve" smooth="yes"/>
      <point x="585" y="204"/>
      <point x="605" y="278"/>
      <point x="605" y="352" type="curve" smooth="yes"/>
      <point x="605" y="545"/>
      <point x="467" y="608"/>
      <point x="378" y="608" type="curve" smooth="yes"/>
      <point x="326" y="608"/>
      <point x="276" y="599"/>
      <point x="212" y="525" type="curve" smooth="yes"/>
      <point x="160" y="466"/>
      <point x="123" y="372"/>
    </contour>
  </outline>
</glyph>
<glyph name="S" format="1">
  <advance width="505"/>
  <unicode hex="0053"/>
  <outline>
    <contour>
      <point x="418" y="69" type="curve" smooth="yes"/>
      <point x="370" y="5"/>
      <point x="316" y="-21"/>
      <point x="251" y="-21" type="curve" smooth="yes"/>
      <point x="210" y="-21"/>
      <point x="164" y="-11"/>
      <point x="112" y="8" type="curve" smooth="yes"/>
      <point x="57" y="28"/>
      <point x="10" y="48"/>
      <point x="-23" y="56" type="curve"/>
      <point x="-6" y="78"/>
      <point x="15" y="118"/>
      <point x="24" y="150" type="curve"/>
      <point x="72" y="115"/>
      <point x="158" y="66"/>
      <point x="233" y="47" type="curve" smooth="yes"/>
      <point x="256" y="41"/>
      <point x="275" y="38"/>
      <point x="293" y="38" type="curve" smooth="yes"/>
      <point x="333" y="38"/>
      <point x="360" y="53"/>
      <point x="382" y="80" type="curve" smooth="yes"/>
      <point x="397" y="99"/>
      <point x="403" y="120"/>
      <point x="403" y="141" type="curve" smooth="yes"/>
      <point x="403" y="181"/>
      <point x="379" y="221"/>
      <point x="345" y="250" type="curve" smooth="yes"/>
      <point x="283" y="305"/>
      <point x="242" y="324"/>
      <point x="160" y="389" type="curve" smooth="yes"/>
      <point x="127" y="415"/>
      <point x="113" y="449"/>
      <point x="113" y="482" type="curve" smooth="yes"/>
      <point x="113" y="498"/>
      <point x="116" y="513"/>
      <point x="122" y="528" type="curve" smooth="yes"/>
      <point x="138" y="567"/>
      <point x="179" y="604"/>
      <point x="214" y="621" type="curve" smooth="yes"/>
      <point x="242" y="635"/>
      <point x="267" y="639"/>
      <point x="293" y="639" type="curve" smooth="yes"/>
      <point x="305" y="639"/>
      <point x="316" y="638"/>
      <point x="329" y="637" type="curve" smooth="yes"/>
      <point x="367" y="635"/>
      <point x="394" y="633"/>
      <point x="413" y="633" type="curve" smooth="yes"/>
      <point x="427" y="633"/>
      <point x="438" y="634"/>
      <point x="445" y="638" type="curve"/>
      <point x="448" y="580"/>
      <point x="459" y="535"/>
      <point x="471" y="495" type="curve"/>
      <point x="445" y="485" type="line"/>
      <point x="443" y="495"/>
      <point x="438" y="509"/>
      <point x="433" y="518" type="curve" smooth="yes"/>
      <point x="402" y="572"/>
      <point x="348" y="596"/>
      <point x="308" y="601" type="curve" smooth="yes"/>
      <point x="283" y="604"/>
      <point x="256" y="604"/>
      <point x="234" y="593" type="curve" smooth="yes"/>
      <point x="205" y="578"/>
      <point x="184" y="549"/>
      <point x="186" y="513" type="curve" smooth="yes"/>
      <point x="188" y="489"/>
      <point x="203" y="460"/>
      <point x="223" y="444" type="curve" smooth="yes"/>
      <point x="280" y="399"/>
      <point x="320" y="377"/>
      <point x="392" y="321" type="curve" smooth="yes"/>
      <point x="435" y="287"/>
      <point x="463" y="241"/>
      <point x="463" y="188" type="curve" smooth="yes"/>
      <point x="463" y="151"/>
      <point x="450" y="111"/>
    </contour>
  </outline>
</glyph>
<glyph name="V" format="1">
  <advance width="585"/>
  <unicode hex="0056"/>
  <outline>
    <contour>
      <point x="197" y="121" type="curve" smooth="yes"/>
      <point x="190" y="247"/>
      <point x="175" y="395"/>
      <point x="159" y="521" type="curve" smooth="yes"/>
      <point x="152" y="576"/>
      <point x="145" y="598"/>
      <point x="81" y="614" type="curve"/>
      <point x="88" y="639" type="line"/>
      <point x="119" y="632"/>
      <point x="155" y="629"/>
      <point x="192" y="629" type="curve" smooth="yes"/>
      <point x="230" y="629"/>
      <point x="269" y="632"/>
      <point x="305" y="639" type="curve"/>
      <point x="308" y="614" type="line"/>
      <point x="244" y="599"/>
      <point x="236" y="582"/>
      <point x="240" y="535" type="curve" smooth="yes"/>
      <point x="267" y="179" type="line" smooth="yes"/>
      <point x="268" y="166"/>
      <point x="272" y="126"/>
      <point x="270" y="110" type="curve"/>
      <point x="296" y="155"/>
      <point x="384" y="260"/>
      <point x="398" y="279" type="curve" smooth="yes"/>
      <point x="490" y="399"/>
      <point x="517" y="458"/>
      <point x="517" y="537" type="curve" smooth="yes"/>
      <point x="517" y="563"/>
      <point x="514" y="591"/>
      <point x="510" y="624" type="curve"/>
      <point x="547" y="632"/>
      <point x="577" y="646"/>
      <point x="606" y="670" type="curve"/>
      <point x="607" y="658"/>
      <point x="608" y="645"/>
      <point x="608" y="633" type="curve" smooth="yes"/>
      <point x="608" y="519"/>
      <point x="545" y="403"/>
      <point x="427" y="263" type="curve" smooth="yes"/>
      <point x="355" y="177"/>
      <point x="304" y="114"/>
      <point x="225" y="-25" type="curve"/>
      <point x="199" y="-16" type="line"/>
      <point x="200" y="-11"/>
      <point x="200" y="0"/>
      <point x="200" y="13" type="curve" smooth="yes"/>
      <point x="200" y="51"/>
      <point x="198" y="109"/>
    </contour>
  </outline>
</glyph>
<glyph name="bracketleft" format="1">
  <advance width="312"/>
  <unicode hex="005B"/>
  <outline>
    <contour>
      <point x="-29" y="-147" type="curve"/>
      <point x="13" y="-24"/>
      <point x="130" y="542"/>
      <point x="137" y="647" type="curve"/>
      <point x="210" y="646"/>
      <point x="280" y="652"/>
      <point x="336" y="670" type="curve"/>
      <point x="339" y="637" type="line"/>
      <point x="299" y="625"/>
      <point x="253" y="619"/>
      <point x="214" y="618" type="curve"/>
      <point x="161" y="409"/>
      <point x="100" y="101"/>
      <point x="60" y="-121" type="curve"/>
      <point x="99" y="-122"/>
      <point x="148" y="-135"/>
      <point x="179" y="-147" type="curve"/>
      <point x="165" y="-178" type="line"/>
      <point x="117" y="-155"/>
      <point x="40" y="-147"/>
    </contour>
  </outline>
</glyph>
<glyph name="backslash" format="1">
  <advance width="383"/>
  <unicode hex="005C"/>
  <outline>
    <contour>
      <point x="92" y="674" type="curve"/>
      <point x="126" y="681" type="line"/>
      <point x="177" y="473"/>
      <point x="260" y="145"/>
      <point x="315" y="-62" type="curve"/>
      <point x="280" y="-69" type="line"/>
      <point x="229" y="139"/>
      <point x="146" y="466"/>
    </contour>
  </outline>
</glyph>
<glyph name="bracketright" format="1">
  <advance width="312"/>
  <unicode hex="005D"/>
  <outline>
    <contour>
      <point x="325" y="639" type="curve"/>
      <point x="283" y="516"/>
      <point x="166" y="-50"/>
      <point x="159" y="-155" type="curve"/>
      <point x="86" y="-154"/>
      <point x="16" y="-160"/>
      <point x="-40" y="-178" type="curve"/>
      <point x="-43" y="-145" type="line"/>
      <point x="-3" y="-133"/>
      <point x="43" y="-127"/>
      <point x="82" y="-126" type="curve"/>
      <point x="135" y="83"/>
      <point x="196" y="391"/>
      <point x="236" y="613" type="curve"/>
      <point x="197" y="614"/>
      <point x="148" y="627"/>
      <point x="117" y="639" type="curve"/>
      <point x="131" y="670" type="line"/>
      <point x="179" y="647"/>
      <point x="256" y="639"/>
    </contour>
  </outline>
</glyph>
<glyph name="asciicircum" format="1">
  <advance width="360"/>
  <unicode hex="005E"/>
  <outline>
    <contour>
      <point x="65" y="388" type="line"/>
      <point x="36" y="405" type="line"/>
      <point x="189" y="659" type="line"/>
      <point x="208" y="659" type="line"/>
      <point x="360" y="405" type="line"/>
      <point x="332" y="388" type="line"/>
      <point x="198" y="609" type="line"/>
    </contour>
  </outline>
</glyph>
<glyph name="grave" format="1">
  <advance width="364"/>
  <unicode hex="0060"/>
  <outline>
    <contour>
      <point x="242" y="500" type="curve"/>
      <point x="219" y="490" type="line"/>
      <point x="191" y="549"/>
      <point x="154" y="606"/>
      <point x="121" y="648" type="curve"/>
      <point x="145" y="654"/>
      <point x="179" y="669"/>
      <point x="197" y="683" type="curve"/>
      <point x="202" y="628"/>
      <point x="222" y="556"/>
    </contour>
  </outline>
</glyph>
<glyph name="c" format="1">
  <advance width="367"/>
  <unicode hex="0063"/>
  <outline>
    <contour>
      <point x="31" y="116" type="curve" smooth="yes"/>
      <point x="31" y="171"/>
      <point x="45" y="231"/>
      <point x="73" y="285" type="curve" smooth="yes"/>
      <point x="93" y="325"/>
      <point x="120" y="361"/>
      <point x="159" y="395" type="curve"/>
      <point x="191" y="425"/>
      <point x="218" y="443"/>
      <point x="257" y="442" type="curve" smooth="yes"/>
      <point x="286" y="441"/>
      <point x="328" y="434"/>
      <point x="357" y="433" type="curve"/>
      <point x="345" y="405"/>
      <point x="333" y="377"/>
      <point x="328" y="346" type="curve"/>
      <point x="299" y="360"/>
      <point x="252" y="375"/>
      <point x="230" y="377" type="curve"/>
      <point x="177" y="385"/>
      <point x="154" y="355"/>
      <point x="138" y="318" type="curve"/>
      <point x="118" y="268"/>
      <point x="100" y="195"/>
      <point x="100" y="140" type="curve" smooth="yes"/>
      <point x="100" y="103"/>
      <point x="114" y="34"/>
      <point x="167" y="34" type="curve" smooth="yes"/>
      <point x="207" y="34"/>
      <point x="255" y="45"/>
      <point x="294" y="56" type="curve"/>
      <point x="302" y="35" type="line"/>
      <point x="257" y="12"/>
      <point x="175" y="-21"/>
      <point x="133" y="-21" type="curve" smooth="yes"/>
      <point x="58" y="-21"/>
      <point x="31" y="55"/>
    </contour>
  </outline>
</glyph>
<glyph name="f" format="1">
  <advance width="295"/>
  <unicode hex="0066"/>
  <outline>
    <contour>
      <point x="-117" y="-260" type="curve" smooth="yes"/>
      <point x="-134" y="-255"/>
      <point x="-192" y="-238"/>
      <point x="-206" y="-238" type="curve"/>
      <point x="-190" y="-215"/>
      <point x="-174" y="-175"/>
      <point x="-167" y="-152" type="curve"/>
      <point x="-144" y="-165"/>
      <point x="-104" y="-182"/>
      <point x="-73" y="-185" type="curve"/>
      <point x="-2" y="-195"/>
      <point x="18" y="-130"/>
      <point x="36" y="-64" type="curve" smooth="yes"/>
      <point x="76" y="85"/>
      <point x="100" y="255"/>
      <point x="120" y="395" type="curve"/>
      <point x="91" y="397"/>
      <point x="47" y="392"/>
      <point x="43" y="390" type="curve"/>
      <point x="40" y="404" type="line"/>
      <point x="64" y="411"/>
      <point x="106" y="423"/>
      <point x="125" y="433" type="curve"/>
      <point x="132" y="457"/>
      <point x="133" y="489"/>
      <point x="143" y="533" type="curve" smooth="yes"/>
      <point x="160" y="605"/>
      <point x="177" y="614"/>
      <point x="222" y="657" type="curve" smooth="yes"/>
      <point x="253" y="686"/>
      <point x="284" y="713"/>
      <point x="330" y="713" type="curve" smooth="yes"/>
      <point x="365" y="713"/>
      <point x="424" y="691"/>
      <point x="451" y="689" type="curve"/>
      <point x="435" y="655"/>
      <point x="427" y="639"/>
      <point x="420" y="597" type="curve"/>
      <point x="387" y="622"/>
      <point x="323" y="644"/>
      <point x="305" y="647" type="curve" smooth="yes"/>
      <point x="261" y="655"/>
      <point x="240" y="640"/>
      <point x="222" y="586" type="curve" smooth="yes"/>
      <point x="203" y="528"/>
      <point x="197" y="469"/>
      <point x="192" y="433" type="curve"/>
      <point x="208" y="431"/>
      <point x="226" y="431"/>
      <point x="244" y="431" type="curve" smooth="yes"/>
      <point x="270" y="431"/>
      <point x="297" y="432"/>
      <point x="323" y="435" type="curve"/>
      <point x="308" y="415"/>
      <point x="299" y="399"/>
      <point x="293" y="383" type="curve"/>
      <point x="262" y="390"/>
      <point x="220" y="396"/>
      <point x="185" y="396" type="curve"/>
      <point x="157" y="244"/>
      <point x="145" y="132"/>
      <point x="108" y="-22" type="curve"/>
      <point x="94" y="-85"/>
      <point x="55" y="-145"/>
      <point x="13" y="-194" type="curve" smooth="yes"/>
      <point x="-16" y="-228"/>
      <point x="-67" y="-274"/>
    </contour>
  </outline>
</glyph>
<glyph name="h" format="1">
  <advance width="500"/>
  <unicode hex="0068"/>
  <outline>
    <contour>
      <point x="115" y="6" type="curve"/>
      <point x="78" y="6"/>
      <point x="41" y="1"/>
      <point x="5" y="-12" type="curve"/>
      <point x="39" y="78"/>
      <point x="62" y="171"/>
      <point x="84" y="276" type="curve" smooth="yes"/>
      <point x="107" y="385"/>
      <point x="129" y="485"/>
      <point x="141" y="578" type="curve" smooth="yes"/>
      <point x="147" y="624"/>
      <point x="136" y="641"/>
      <point x="101" y="641" type="curve" smooth="yes"/>
      <point x="92" y="641"/>
      <point x="81" y="640"/>
      <point x="69" y="638" type="curve"/>
      <point x="65" y="665" type="line"/>
      <point x="114" y="673"/>
      <point x="168" y="685"/>
      <point x="241" y="709" type="curve"/>
      <point x="219" y="639"/>
      <point x="203" y="557"/>
      <point x="177" y="409" type="curve"/>
      <point x="250" y="429"/>
      <point x="314" y="445"/>
      <point x="347" y="445" type="curve" smooth="yes"/>
      <point x="396" y="445"/>
      <point x="421" y="399"/>
      <point x="415" y="352" type="curve"/>
      <point x="406" y="293"/>
      <point x="378" y="178"/>
      <point x="368" y="119" type="curve" smooth="yes"/>
      <point x="366" y="107"/>
      <point x="365" y="98"/>
      <point x="365" y="89" type="curve" smooth="yes"/>
      <point x="365" y="56"/>
      <point x="380" y="43"/>
      <point x="420" y="43" type="curve" smooth="yes"/>
      <point x="430" y="43"/>
      <point x="442" y="44"/>
      <point x="455" y="45" type="curve"/>
      <point x="462" y="19" type="line"/>
      <point x="424" y="8"/>
      <point x="359" y="-11"/>
      <point x="330" y="-11" type="curve" smooth="yes"/>
      <point x="297" y="-11"/>
      <point x="273" y="8"/>
      <point x="285" y="65" type="curve"/>
      <point x="303" y="143"/>
      <point x="328" y="253"/>
      <point x="337" y="315" type="curve" smooth="yes"/>
      <point x="344" y="357"/>
      <point x="331" y="387"/>
      <point x="273" y="387" type="curve" smooth="yes"/>
      <point x="245" y="387"/>
      <point x="206" y="383"/>
      <point x="172" y="375" type="curve"/>
      <point x="159" y="324"/>
      <point x="112" y="68"/>
    </contour>
  </outline>
</glyph>
<glyph name="i" format="1">
  <advance width="251"/>
  <unicode hex="0069"/>
  <outline>
    <contour>
      <point x="203" y="447" type="curve"/>
      <point x="193" y="420"/>
      <point x="184" y="393"/>
      <point x="176" y="366" type="curve"/>
      <point x="154" y="280"/>
      <point x="132" y="193"/>
      <point x="115" y="103" type="curve" smooth="yes"/>
      <point x="106" y="54"/>
      <point x="124" y="40"/>
      <point x="163" y="39" type="curve" smooth="yes"/>
      <point x="175" y="38"/>
      <point x="195" y="40"/>
      <point x="210" y="42" type="curve"/>
      <point x="210" y="42"/>
      <point x="215" y="19"/>
      <point x="215" y="18" type="curve" smooth="yes"/>
      <point x="181" y="7"/>
      <point x="108" y="-15"/>
      <point x="75" y="-15" type="curve" smooth="yes"/>
      <point x="41" y="-15"/>
      <point x="34" y="27"/>
      <point x="38" y="61" type="curve"/>
      <point x="45" y="106"/>
      <point x="90" y="276"/>
      <point x="103" y="345" type="curve" smooth="yes"/>
      <point x="109" y="375"/>
      <point x="93" y="389"/>
      <point x="61" y="389" type="curve" smooth="yes"/>
      <point x="52" y="389"/>
      <point x="43" y="388"/>
      <point x="32" y="386" type="curve"/>
      <point x="26" y="413" type="line"/>
      <point x="85" y="421"/>
      <point x="142" y="431"/>
    </contour>
    <contour>
      <point x="188" y="557" type="curve" smooth="yes"/>
      <point x="153" y="555"/>
      <point x="143" y="582"/>
      <point x="144" y="601" type="curve" smooth="yes"/>
      <point x="145" y="625"/>
      <point x="164" y="648"/>
      <point x="194" y="650" type="curve" smooth="yes"/>
      <point x="227" y="652"/>
      <point x="238" y="629"/>
      <point x="237" y="608" type="curve" smooth="yes"/>
      <point x="236" y="584"/>
      <point x="219" y="559"/>
    </contour>
  </outline>
</glyph>
<glyph name="j" format="1">
  <advance width="251"/>
  <unicode hex="006A"/>
  <outline>
    <contour>
      <point x="-135" y="-248" type="curve" smooth="yes"/>
      <point x="-162" y="-240"/>
      <point x="-178" y="-233"/>
      <point x="-207" y="-225" type="curve"/>
      <point x="-193" y="-204"/>
      <point x="-178" y="-177"/>
      <point x="-169" y="-146" type="curve"/>
      <point x="-139" y="-168"/>
      <point x="-66" y="-203"/>
      <point x="-36" y="-189" type="curve" smooth="yes"/>
      <point x="6" y="-169"/>
      <point x="37" y="-15"/>
      <point x="42" y="6" type="curve" smooth="yes"/>
      <point x="65" y="111"/>
      <point x="91" y="242"/>
      <point x="106" y="345" type="curve" smooth="yes"/>
      <point x="111" y="375"/>
      <point x="98" y="388"/>
      <point x="67" y="388" type="curve" smooth="yes"/>
      <point x="58" y="388"/>
      <point x="48" y="387"/>
      <point x="36" y="385" type="curve"/>
      <point x="30" y="414" type="line"/>
      <point x="89" y="421"/>
      <point x="139" y="432"/>
      <point x="201" y="447" type="curve"/>
      <point x="169" y="318"/>
      <point x="134" y="137"/>
      <point x="103" y="-22" type="curve" smooth="yes"/>
      <point x="88" y="-96"/>
      <point x="78" y="-137"/>
      <point x="-3" y="-204" type="curve" smooth="yes"/>
      <point x="-34" y="-229"/>
      <point x="-69" y="-253"/>
      <point x="-107" y="-253" type="curve" smooth="yes"/>
      <point x="-116" y="-253"/>
      <point x="-125" y="-251"/>
    </contour>
    <contour>
      <point x="188" y="557" type="curve" smooth="yes"/>
      <point x="153" y="555"/>
      <point x="143" y="582"/>
      <point x="144" y="601" type="curve" smooth="yes"/>
      <point x="145" y="625"/>
      <point x="164" y="648"/>
      <point x="194" y="650" type="curve" smooth="yes"/>
      <point x="227" y="652"/>
      <point x="238" y="629"/>
      <point x="237" y="608" type="curve" smooth="yes"/>
      <point x="236" y="584"/>
      <point x="219" y="559"/>
    </contour>
  </outline>
</glyph>
<glyph name="r" format="1">
  <advance width="341"/>
  <unicode hex="0072"/>
  <outline>
    <contour>
      <point x="27" y="-13" type="curve"/>
      <point x="71" y="109"/>
      <point x="96" y="218"/>
      <point x="117" y="345" type="curve" smooth="yes"/>
      <point x="123" y="377"/>
      <point x="113" y="393"/>
      <point x="74" y="393" type="curve" smooth="yes"/>
      <point x="66" y="393"/>
      <point x="56" y="392"/>
      <point x="45" y="391" type="curve"/>
      <point x="44" y="416" type="line"/>
      <point x="113" y="426"/>
      <point x="162" y="436"/>
      <point x="205" y="447" type="curve"/>
      <point x="197" y="415"/>
      <point x="186" y="363"/>
      <point x="179" y="329" type="curve"/>
      <point x="199" y="363"/>
      <point x="227" y="399"/>
      <point x="252" y="425" type="curve"/>
      <point x="269" y="441"/>
      <point x="287" y="448"/>
      <point x="319" y="440" type="curve" smooth="yes"/>
      <point x="329" y="437"/>
      <point x="342" y="435"/>
      <point x="351" y="434" type="curve"/>
      <point x="331" y="405"/>
      <point x="322" y="384"/>
      <point x="312" y="350" type="curve"/>
      <point x="302" y="356"/>
      <point x="282" y="362"/>
      <point x="270" y="364" type="curve" smooth="yes"/>
      <point x="261" y="365"/>
      <point x="243" y="365"/>
      <point x="224" y="345" type="curve" smooth="yes"/>
      <point x="186" y="304"/>
      <point x="166" y="247"/>
      <point x="155" y="205" type="curve"/>
      <point x="147" y="170"/>
      <point x="124" y="74"/>
      <point x="127" y="4" type="curve"/>
      <point x="83" y="0"/>
      <point x="69" y="-1"/>
    </contour>
  </outline>
</glyph>
<glyph name="s" format="1">
  <advance width="314"/>
  <unicode hex="0073"/>
  <outline>
    <contour>
      <point x="4" y="12" type="curve"/>
      <point x="16" y="33"/>
      <point x="35" y="68"/>
      <point x="40" y="93" type="curve"/>
      <point x="59" y="80"/>
      <point x="97" y="61"/>
      <point x="144" y="53" type="curve" smooth="yes"/>
      <point x="163" y="50"/>
      <point x="190" y="53"/>
      <point x="203" y="76" type="curve" smooth="yes"/>
      <point x="213" y="94"/>
      <point x="199" y="122"/>
      <point x="179" y="149" type="curve" smooth="yes"/>
      <point x="148" y="191"/>
      <point x="106" y="225"/>
      <point x="79" y="263" type="curve" smooth="yes"/>
      <point x="65" y="282"/>
      <point x="58" y="301"/>
      <point x="58" y="321" type="curve" smooth="yes"/>
      <point x="58" y="347"/>
      <point x="70" y="373"/>
      <point x="98" y="403" type="curve" smooth="yes"/>
      <point x="134" y="440"/>
      <point x="166" y="445"/>
      <point x="198" y="441" type="curve" smooth="yes"/>
      <point x="242" y="435"/>
      <point x="267" y="429"/>
      <point x="293" y="431" type="curve"/>
      <point x="278" y="407"/>
      <point x="261" y="372"/>
      <point x="255" y="350" type="curve"/>
      <point x="234" y="362"/>
      <point x="203" y="377"/>
      <point x="173" y="385" type="curve" smooth="yes"/>
      <point x="145" y="393"/>
      <point x="132" y="392"/>
      <point x="122" y="381" type="curve" smooth="yes"/>
      <point x="110" y="367"/>
      <point x="117" y="335"/>
      <point x="132" y="314" type="curve" smooth="yes"/>
      <point x="154" y="282"/>
      <point x="210" y="229"/>
      <point x="227" y="206" type="curve" smooth="yes"/>
      <point x="247" y="180"/>
      <point x="256" y="159"/>
      <point x="256" y="135" type="curve" smooth="yes"/>
      <point x="256" y="112"/>
      <point x="247" y="86"/>
      <point x="228" y="55" type="curve" smooth="yes"/>
      <point x="191" y="-5"/>
      <point x="145" y="-19"/>
      <point x="92" y="-10" type="curve" smooth="yes"/>
      <point x="64" y="-5"/>
      <point x="34" y="6"/>
    </contour>
  </outline>
</glyph>
<glyph name="t" format="1">
  <advance width="293"/>
  <unicode hex="0074"/>
  <outline>
    <contour>
      <point x="77" y="-20" type="curve" smooth="yes"/>
      <point x="49" y="-20"/>
      <point x="32" y="1"/>
      <point x="32" y="42" type="curve" smooth="yes"/>
      <point x="32" y="51"/>
      <point x="33" y="61"/>
      <point x="35" y="73" type="curve" smooth="yes"/>
      <point x="48" y="146"/>
      <point x="91" y="311"/>
      <point x="105" y="397" type="curve"/>
      <point x="93" y="397"/>
      <point x="73" y="398"/>
      <point x="51" y="396" type="curve"/>
      <point x="47" y="412" type="line"/>
      <point x="69" y="416"/>
      <point x="93" y="424"/>
      <point x="114" y="432" type="curve"/>
      <point x="122" y="465"/>
      <point x="132" y="519"/>
      <point x="131" y="546" type="curve"/>
      <point x="161" y="545"/>
      <point x="202" y="553"/>
      <point x="226" y="560" type="curve"/>
      <point x="211" y="530"/>
      <point x="195" y="475"/>
      <point x="183" y="429" type="curve"/>
      <point x="233" y="429"/>
      <point x="277" y="435"/>
      <point x="305" y="441" type="curve"/>
      <point x="291" y="426"/>
      <point x="280" y="406"/>
      <point x="274" y="393" type="curve"/>
      <point x="249" y="395"/>
      <point x="211" y="398"/>
      <point x="175" y="398" type="curve"/>
      <point x="158" y="325"/>
      <point x="126" y="183"/>
      <point x="118" y="129" type="curve" smooth="yes"/>
      <point x="116" y="113"/>
      <point x="114" y="99"/>
      <point x="114" y="87" type="curve" smooth="yes"/>
      <point x="114" y="57"/>
      <point x="125" y="40"/>
      <point x="170" y="41" type="curve" smooth="yes"/>
      <point x="187" y="41"/>
      <point x="206" y="43"/>
      <point x="225" y="45" type="curve"/>
      <point x="230" y="19" type="line"/>
      <point x="180" y="2"/>
      <point x="106" y="-20"/>
    </contour>
  </outline>
</glyph>
<glyph name="v" format="1">
  <advance width="480"/>
  <unicode hex="0076"/>
  <outline>
    <contour>
      <point x="170" y="-25" type="curve"/>
      <point x="144" y="-20" type="line"/>
      <point x="145" y="-9"/>
      <point x="145" y="3"/>
      <point x="145" y="14" type="curve" smooth="yes"/>
      <point x="145" y="49"/>
      <point x="142" y="82"/>
      <point x="138" y="115" type="curve" smooth="yes"/>
      <point x="128" y="214"/>
      <point x="113" y="323"/>
      <point x="109" y="343" type="curve" smooth="yes"/>
      <point x="97" y="398"/>
      <point x="74" y="398"/>
      <point x="24" y="395" type="curve"/>
      <point x="20" y="420" type="line"/>
      <point x="79" y="426"/>
      <point x="124" y="434"/>
      <point x="176" y="449" type="curve"/>
      <point x="175" y="376"/>
      <point x="185" y="277"/>
      <point x="197" y="193" type="curve" smooth="yes"/>
      <point x="202" y="160"/>
      <point x="205" y="115"/>
      <point x="205" y="89" type="curve"/>
      <point x="215" y="102"/>
      <point x="229" y="121"/>
      <point x="245" y="138" type="curve" smooth="yes"/>
      <point x="321" y="223"/>
      <point x="359" y="294"/>
      <point x="359" y="381" type="curve" smooth="yes"/>
      <point x="359" y="394"/>
      <point x="358" y="407"/>
      <point x="356" y="421" type="curve"/>
      <point x="390" y="430"/>
      <point x="417" y="439"/>
      <point x="443" y="458" type="curve"/>
      <point x="451" y="368"/>
      <point x="415" y="298"/>
      <point x="359" y="227" type="curve" smooth="yes"/>
      <point x="333" y="193"/>
      <point x="302" y="155"/>
      <point x="256" y="101" type="curve" smooth="yes"/>
      <point x="206" y="42"/>
      <point x="185" y="8"/>
    </contour>
  </outline>
</glyph>
<glyph name="braceleft" format="1">
  <advance width="302"/>
  <unicode hex="007B"/>
  <outline>
    <contour>
      <point x="177" y="-152" type="curve"/>
      <point x="162" y="-176" type="line"/>
      <point x="124" y="-160"/>
      <point x="91" y="-145"/>
      <point x="68" y="-129" type="curve" smooth="yes"/>
      <point x="43" y="-111"/>
      <point x="32" y="-86"/>
      <point x="38" y="-45" type="curve" smooth="yes"/>
      <point x="44" y="0"/>
      <point x="74" y="135"/>
      <point x="77" y="165" type="curve" smooth="yes"/>
      <point x="82" y="224"/>
      <point x="66" y="240"/>
      <point x="15" y="269" type="curve"/>
      <point x="20" y="288" type="line"/>
      <point x="79" y="307"/>
      <point x="99" y="317"/>
      <point x="114" y="360" type="curve" smooth="yes"/>
      <point x="125" y="389"/>
      <point x="148" y="527"/>
      <point x="157" y="556" type="curve" smooth="yes"/>
      <point x="175" y="610"/>
      <point x="185" y="635"/>
      <point x="231" y="654" type="curve" smooth="yes"/>
      <point x="255" y="663"/>
      <point x="290" y="672"/>
      <point x="335" y="685" type="curve"/>
      <point x="340" y="658" type="line"/>
      <point x="273" y="633"/>
      <point x="258" y="625"/>
      <point x="237" y="566" type="curve" smooth="yes"/>
      <point x="227" y="537"/>
      <point x="204" y="411"/>
      <point x="190" y="371" type="curve" smooth="yes"/>
      <point x="181" y="344"/>
      <point x="169" y="323"/>
      <point x="143" y="308" type="curve" smooth="yes"/>
      <point x="123" y="297"/>
      <point x="96" y="286"/>
      <point x="65" y="275" type="curve"/>
      <point x="93" y="261"/>
      <point x="112" y="247"/>
      <point x="125" y="236" type="curve" smooth="yes"/>
      <point x="152" y="215"/>
      <point x="152" y="197"/>
      <point x="149" y="158" type="curve" smooth="yes"/>
      <point x="147" y="135"/>
      <point x="122" y="-8"/>
      <point x="120" y="-30" type="curve" smooth="yes"/>
      <point x="118" y="-47"/>
      <point x="117" y="-61"/>
      <point x="117" y="-73" type="curve" smooth="yes"/>
      <point x="117" y="-109"/>
      <point x="129" y="-123"/>
    </contour>
  </outline>
</glyph>
<glyph name="bar" format="1">
  <advance width="219"/>
  <unicode hex="007C"/>
  <outline>
    <contour>
      <point x="105" y="675" type="curve"/>
      <point x="141" y="676" type="line"/>
      <point x="139" y="512"/>
      <point x="137" y="289"/>
      <point x="137" y="98" type="curve" smooth="yes"/>
      <point x="137" y="40"/>
      <point x="138" y="-15"/>
      <point x="138" y="-65" type="curve"/>
      <point x="104" y="-65" type="line"/>
      <point x="105" y="68"/>
      <point x="106" y="238"/>
      <point x="106" y="399" type="curve" smooth="yes"/>
      <point x="106" y="498"/>
      <point x="106" y="594"/>
    </contour>
  </outline>
</glyph>
<glyph name="braceright" format="1">
  <advance width="302"/>
  <unicode hex="007D"/>
  <outline>
    <contour>
      <point x="117" y="656" type="curve"/>
      <point x="132" y="680" type="line"/>
      <point x="171" y="664"/>
      <point x="204" y="648"/>
      <point x="227" y="632" type="curve" smooth="yes"/>
      <point x="252" y="615"/>
      <point x="263" y="589"/>
      <point x="256" y="548" type="curve"/>
      <point x="251" y="509"/>
      <point x="230" y="421"/>
      <point x="227" y="392" type="curve" smooth="yes"/>
      <point x="222" y="333"/>
      <point x="238" y="317"/>
      <point x="288" y="288" type="curve"/>
      <point x="284" y="269" type="line"/>
      <point x="225" y="250"/>
      <point x="205" y="240"/>
      <point x="189" y="197" type="curve" smooth="yes"/>
      <point x="179" y="168"/>
      <point x="141" y="-20"/>
      <point x="132" y="-48" type="curve" smooth="yes"/>
      <point x="116" y="-101"/>
      <point x="104" y="-127"/>
      <point x="60" y="-145" type="curve" smooth="yes"/>
      <point x="36" y="-155"/>
      <point x="0" y="-163"/>
      <point x="-45" y="-176" type="curve"/>
      <point x="-50" y="-150" type="line"/>
      <point x="18" y="-125"/>
      <point x="31" y="-116"/>
      <point x="52" y="-58" type="curve" smooth="yes"/>
      <point x="63" y="-30"/>
      <point x="100" y="146"/>
      <point x="114" y="186" type="curve" smooth="yes"/>
      <point x="123" y="213"/>
      <point x="135" y="237"/>
      <point x="161" y="252" type="curve" smooth="yes"/>
      <point x="180" y="263"/>
      <point x="207" y="274"/>
      <point x="238" y="285" type="curve"/>
      <point x="210" y="299"/>
      <point x="192" y="313"/>
      <point x="178" y="324" type="curve" smooth="yes"/>
      <point x="152" y="345"/>
      <point x="152" y="360"/>
      <point x="155" y="399" type="curve"/>
      <point x="155" y="421"/>
      <point x="175" y="512"/>
      <point x="176" y="534" type="curve" smooth="yes"/>
      <point x="177" y="549"/>
      <point x="178" y="562"/>
      <point x="178" y="573" type="curve" smooth="yes"/>
      <point x="178" y="612"/>
      <point x="166" y="626"/>
    </contour>
  </outline>
</glyph>
<glyph name="asciitilde" format="1">
  <advance width="486"/>
  <unicode hex="007E"/>
  <outline>
    <contour>
      <point x="265" y="315" type="curve" smooth="yes"/>
      <point x="303" y="305"/>
      <point x="329" y="299"/>
      <point x="351" y="299" type="curve" smooth="yes"/>
      <point x="381" y="299"/>
      <point x="403" y="310"/>
      <point x="439" y="337" type="curve"/>
      <point x="462" y="325" type="line"/>
      <point x="427" y="291"/>
      <point x="400" y="272"/>
      <point x="365" y="252" type="curve" smooth="yes"/>
      <point x="347" y="242"/>
      <point x="330" y="238"/>
      <point x="312" y="238" type="curve" smooth="yes"/>
      <point x="283" y="238"/>
      <point x="254" y="248"/>
      <point x="219" y="258" type="curve" smooth="yes"/>
      <point x="183" y="269"/>
      <point x="157" y="277"/>
      <point x="131" y="277" type="curve" smooth="yes"/>
      <point x="105" y="277"/>
      <point x="79" y="268"/>
      <point x="45" y="246" type="curve"/>
      <point x="25" y="260" type="line"/>
      <point x="63" y="292"/>
      <point x="83" y="307"/>
      <point x="111" y="324" type="curve" smooth="yes"/>
      <point x="130" y="335"/>
      <point x="147" y="339"/>
      <point x="164" y="339" type="curve" smooth="yes"/>
      <point x="195" y="339"/>
      <point x="225" y="326"/>
    </contour>
  </outline>
</glyph>
<glyph name="exclamdown" format="1">
  <advance width="262"/>
  <unicode hex="00A1"/>
  <outline>
    <contour>
      <point x="90" y="-206" type="curve"/>
      <point x="75" y="-203"/>
      <point x="62" y="-202"/>
      <point x="48" y="-202" type="curve" smooth="yes"/>
      <point x="29" y="-202"/>
      <point x="10" y="-205"/>
      <point x="-13" y="-208" type="curve"/>
      <point x="37" y="-52"/>
      <point x="82" y="107"/>
      <point x="122" y="271" type="curve"/>
      <point x="149" y="271" type="line"/>
      <point x="119" y="80"/>
      <point x="102" y="-49"/>
    </contour>
    <contour>
      <point x="161" y="445" type="curve" smooth="yes"/>
      <point x="197" y="447"/>
      <point x="208" y="420"/>
      <point x="207" y="400" type="curve" smooth="yes"/>
      <point x="206" y="375"/>
      <point x="187" y="351"/>
      <point x="155" y="349" type="curve"/>
      <point x="121" y="348"/>
      <point x="109" y="371"/>
      <point x="110" y="392" type="curve" smooth="yes"/>
      <point x="111" y="418"/>
      <point x="129" y="443"/>
    </contour>
  </outline>
</glyph>
<glyph name="cent" format="1">
  <advance width="367"/>
  <unicode hex="00A2"/>
  <outline>
    <contour>
      <point x="317" y="525" type="line"/>
      <point x="347" y="513" type="line"/>
      <point x="337" y="486"/>
      <point x="326" y="460"/>
      <point x="315" y="433" type="curve"/>
      <point x="330" y="432"/>
      <point x="345" y="430"/>
      <point x="356" y="430" type="curve"/>
      <point x="344" y="402"/>
      <point x="332" y="375"/>
      <point x="327" y="345" type="curve"/>
      <point x="315" y="350"/>
      <point x="300" y="355"/>
      <point x="285" y="360" type="curve"/>
      <point x="242" y="253"/>
      <point x="197" y="143"/>
      <point x="155" y="35" type="curve"/>
      <point x="190" y="26"/>
      <point x="254" y="45"/>
      <point x="294" y="55" type="curve"/>
      <point x="301" y="34" type="line"/>
      <point x="257" y="12"/>
      <point x="176" y="-20"/>
      <point x="134" y="-21" type="curve"/>
      <point x="123" y="-48"/>
      <point x="112" y="-75"/>
      <point x="102" y="-102" type="curve"/>
      <point x="73" y="-89" type="line"/>
      <point x="102" y="-15" type="line"/>
      <point x="51" y="2"/>
      <point x="32" y="65"/>
      <point x="32" y="115" type="curve" smooth="yes"/>
      <point x="32" y="170"/>
      <point x="46" y="230"/>
      <point x="73" y="284" type="curve" smooth="yes"/>
      <point x="94" y="324"/>
      <point x="120" y="359"/>
      <point x="159" y="394" type="curve" smooth="yes"/>
      <point x="191" y="422"/>
      <point x="218" y="440"/>
      <point x="257" y="439" type="curve"/>
      <point x="284" y="437" type="line"/>
    </contour>
    <contour>
      <point x="100" y="139" type="curve" smooth="yes"/>
      <point x="100" y="113"/>
      <point x="106" y="73"/>
      <point x="128" y="50" type="curve"/>
      <point x="171" y="155"/>
      <point x="215" y="263"/>
      <point x="256" y="369" type="curve"/>
      <point x="246" y="372"/>
      <point x="236" y="375"/>
      <point x="230" y="375" type="curve" smooth="yes"/>
      <point x="177" y="383"/>
      <point x="154" y="354"/>
      <point x="139" y="316" type="curve" smooth="yes"/>
      <point x="118" y="266"/>
      <point x="101" y="195"/>
    </contour>
  </outline>
</glyph>
<glyph name="sterling" format="1">
  <advance width="490"/>
  <unicode hex="00A3"/>
  <outline>
    <contour>
      <point x="113" y="195" type="curve"/>
      <point x="123" y="244"/>
      <point x="127" y="285"/>
      <point x="132" y="330" type="curve"/>
      <point x="104" y="329"/>
      <point x="85" y="326"/>
      <point x="59" y="320" type="curve"/>
      <point x="56" y="334" type="line"/>
      <point x="78" y="340"/>
      <point x="114" y="351"/>
      <point x="135" y="360" type="curve"/>
      <point x="136" y="385"/>
      <point x="139" y="411"/>
      <point x="143" y="439" type="curve" smooth="yes"/>
      <point x="150" y="495"/>
      <point x="181" y="537"/>
      <point x="238" y="586" type="curve" smooth="yes"/>
      <point x="285" y="626"/>
      <point x="320" y="651"/>
      <point x="397" y="643" type="curve" smooth="yes"/>
      <point x="422" y="640"/>
      <point x="451" y="634"/>
      <point x="475" y="630" type="curve"/>
      <point x="455" y="609"/>
      <point x="441" y="579"/>
      <point x="431" y="550" type="curve"/>
      <point x="399" y="565"/>
      <point x="378" y="572"/>
      <point x="342" y="578" type="curve" smooth="yes"/>
      <point x="331" y="580"/>
      <point x="320" y="581"/>
      <point x="311" y="581" type="curve" smooth="yes"/>
      <point x="245" y="581"/>
      <point x="231" y="529"/>
      <point x="215" y="447" type="curve" smooth="yes"/>
      <point x="209" y="417"/>
      <point x="205" y="389"/>
      <point x="202" y="361" type="curve"/>
      <point x="243" y="360"/>
      <point x="329" y="363"/>
      <point x="373" y="368" type="curve"/>
      <point x="356" y="348"/>
      <point x="349" y="334"/>
      <point x="342" y="317" type="curve"/>
      <point x="312" y="326"/>
      <point x="235" y="331"/>
      <point x="198" y="331" type="curve"/>
      <point x="195" y="307"/>
      <point x="191" y="283"/>
      <point x="186" y="257" type="curve" smooth="yes"/>
      <point x="171" y="175"/>
      <point x="145" y="148"/>
      <point x="79" y="74" type="curve"/>
      <point x="125" y="83"/>
      <point x="164" y="87"/>
      <point x="205" y="87" type="curve" smooth="yes"/>
      <point x="231" y="87"/>
      <point x="258" y="85"/>
      <point x="289" y="82" type="curve" smooth="yes"/>
      <point x="305" y="80"/>
      <point x="317" y="79"/>
      <point x="329" y="79" type="curve" smooth="yes"/>
      <point x="368" y="79"/>
      <point x="389" y="92"/>
      <point x="425" y="147" type="curve"/>
      <point x="445" y="136" type="line"/>
      <point x="411" y="90"/>
      <point x="382" y="28"/>
      <point x="370" y="-7" type="curve"/>
      <point x="325" y="5"/>
      <point x="248" y="13"/>
      <point x="169" y="13" type="curve" smooth="yes"/>
      <point x="103" y="13"/>
      <point x="36" y="7"/>
      <point x="-16" y="-6" type="curve"/>
      <point x="-5" y="18"/>
      <point x="5" y="43"/>
      <point x="10" y="68" type="curve"/>
      <point x="65" y="99"/>
      <point x="97" y="124"/>
    </contour>
  </outline>
</glyph>
<glyph name="currency" format="1">
  <advance width="419"/>
  <unicode hex="00A4"/>
  <outline>
    <contour>
      <point x="63" y="330" type="curve" smooth="yes"/>
      <point x="65" y="362"/>
      <point x="79" y="395"/>
      <point x="96" y="419" type="curve"/>
      <point x="19" y="489" type="line"/>
      <point x="52" y="523" type="line"/>
      <point x="122" y="443" type="line"/>
      <point x="146" y="460"/>
      <point x="181" y="474"/>
      <point x="213" y="474" type="curve" smooth="yes"/>
      <point x="245" y="474"/>
      <point x="278" y="460"/>
      <point x="303" y="445" type="curve"/>
      <point x="373" y="521" type="line"/>
      <point x="405" y="489" type="line"/>
      <point x="327" y="421" type="line"/>
      <point x="345" y="398"/>
      <point x="360" y="365"/>
      <point x="360" y="330" type="curve"/>
      <point x="359" y="297"/>
      <point x="344" y="265"/>
      <point x="325" y="243" type="curve"/>
      <point x="405" y="174" type="line"/>
      <point x="373" y="140" type="line"/>
      <point x="300" y="218" type="line"/>
      <point x="274" y="201"/>
      <point x="238" y="186"/>
      <point x="205" y="186" type="curve" smooth="yes"/>
      <point x="175" y="186"/>
      <point x="141" y="198"/>
      <point x="117" y="214" type="curve"/>
      <point x="48" y="141" type="line"/>
      <point x="14" y="172" type="line"/>
      <point x="94" y="237" type="line"/>
      <point x="75" y="261"/>
      <point x="61" y="295"/>
    </contour>
    <contour>
      <point x="106" y="330" type="curve" smooth="yes"/>
      <point x="105" y="275"/>
      <point x="152" y="222"/>
      <point x="207" y="222" type="curve" smooth="yes"/>
      <point x="270" y="222"/>
      <point x="315" y="275"/>
      <point x="317" y="330" type="curve"/>
      <point x="318" y="387"/>
      <point x="268" y="439"/>
      <point x="212" y="439" type="curve" smooth="yes"/>
      <point x="151" y="439"/>
      <point x="107" y="387"/>
    </contour>
  </outline>
</glyph>
<glyph name="yen" format="1">
  <advance width="611"/>
  <unicode hex="00A5"/>
  <outline>
    <contour>
      <point x="499" y="529" type="curve" smooth="yes"/>
      <point x="420" y="415"/>
      <point x="389" y="360"/>
      <point x="331" y="266" type="curve"/>
      <point x="445" y="266" type="line"/>
      <point x="437" y="231" type="line"/>
      <point x="318" y="231" type="line"/>
      <point x="306" y="173" type="line"/>
      <point x="422" y="173" type="line"/>
      <point x="415" y="137" type="line"/>
      <point x="300" y="137" type="line"/>
      <point x="299" y="130"/>
      <point x="298" y="123"/>
      <point x="296" y="115" type="curve" smooth="yes"/>
      <point x="287" y="60"/>
      <point x="305" y="43"/>
      <point x="377" y="23" type="curve"/>
      <point x="370" y="-3" type="line"/>
      <point x="321" y="1"/>
      <point x="279" y="3"/>
      <point x="237" y="3" type="curve" smooth="yes"/>
      <point x="194" y="3"/>
      <point x="151" y="1"/>
      <point x="102" y="-3" type="curve"/>
      <point x="102" y="23" type="line"/>
      <point x="187" y="40"/>
      <point x="207" y="65"/>
      <point x="221" y="116" type="curve" smooth="yes"/>
      <point x="223" y="124"/>
      <point x="225" y="130"/>
      <point x="225" y="137" type="curve"/>
      <point x="109" y="137" type="line"/>
      <point x="116" y="173" type="line"/>
      <point x="235" y="173" type="line"/>
      <point x="239" y="193"/>
      <point x="244" y="211"/>
      <point x="247" y="231" type="curve"/>
      <point x="132" y="231" type="line"/>
      <point x="139" y="266" type="line"/>
      <point x="247" y="266" type="line"/>
      <point x="216" y="392"/>
      <point x="195" y="456"/>
      <point x="166" y="540" type="curve" smooth="yes"/>
      <point x="151" y="582"/>
      <point x="124" y="605"/>
      <point x="85" y="614" type="curve"/>
      <point x="93" y="639" type="line"/>
      <point x="127" y="634"/>
      <point x="160" y="631"/>
      <point x="192" y="631" type="curve" smooth="yes"/>
      <point x="231" y="631"/>
      <point x="270" y="635"/>
      <point x="308" y="639" type="curve"/>
      <point x="311" y="614" type="line"/>
      <point x="259" y="605"/>
      <point x="243" y="579"/>
      <point x="251" y="538" type="curve" smooth="yes"/>
      <point x="264" y="475"/>
      <point x="288" y="378"/>
      <point x="315" y="296" type="curve"/>
      <point x="378" y="394"/>
      <point x="389" y="426"/>
      <point x="445" y="522" type="curve" smooth="yes"/>
      <point x="452" y="534"/>
      <point x="457" y="547"/>
      <point x="457" y="560" type="curve" smooth="yes"/>
      <point x="457" y="583"/>
      <point x="442" y="605"/>
      <point x="402" y="613" type="curve"/>
      <point x="410" y="638" type="line"/>
      <point x="439" y="635"/>
      <point x="475" y="633"/>
      <point x="511" y="633" type="curve" smooth="yes"/>
      <point x="542" y="633"/>
      <point x="574" y="634"/>
      <point x="602" y="638" type="curve"/>
      <point x="604" y="613" type="line"/>
      <point x="565" y="603"/>
      <point x="527" y="570"/>
    </contour>
  </outline>
</glyph>
<glyph name="brokenbar" format="1">
  <advance width="219"/>
  <unicode hex="00A6"/>
  <outline>
    <contour>
      <point x="106" y="291" type="line"/>
      <point x="138" y="291" type="line"/>
      <point x="137" y="225"/>
      <point x="137" y="163"/>
      <point x="137" y="104" type="curve" smooth="yes"/>
      <point x="137" y="45"/>
      <point x="137" y="-12"/>
      <point x="138" y="-65" type="curve"/>
      <point x="104" y="-65" type="line"/>
    </contour>
    <contour>
      <point x="138" y="354" type="line"/>
      <point x="106" y="354" type="line"/>
      <point x="106" y="469"/>
      <point x="106" y="581"/>
      <point x="105" y="675" type="curve"/>
      <point x="141" y="676" type="line"/>
    </contour>
  </outline>
</glyph>
<glyph name="section" format="1">
  <advance width="341"/>
  <unicode hex="00A7"/>
  <outline>
    <contour>
      <point x="74" y="419" type="curve" smooth="yes"/>
      <point x="93" y="437"/>
      <point x="112" y="452"/>
      <point x="130" y="465" type="curve"/>
      <point x="116" y="483"/>
      <point x="108" y="503"/>
      <point x="108" y="523" type="curve" smooth="yes"/>
      <point x="108" y="548"/>
      <point x="120" y="574"/>
      <point x="148" y="603" type="curve" smooth="yes"/>
      <point x="184" y="640"/>
      <point x="216" y="645"/>
      <point x="247" y="641" type="curve" smooth="yes"/>
      <point x="290" y="635"/>
      <point x="316" y="630"/>
      <point x="341" y="631" type="curve"/>
      <point x="326" y="608"/>
      <point x="309" y="573"/>
      <point x="304" y="551" type="curve"/>
      <point x="282" y="563"/>
      <point x="252" y="578"/>
      <point x="222" y="586" type="curve" smooth="yes"/>
      <point x="195" y="594"/>
      <point x="181" y="592"/>
      <point x="172" y="582" type="curve" smooth="yes"/>
      <point x="159" y="568"/>
      <point x="167" y="536"/>
      <point x="181" y="515" type="curve" smooth="yes"/>
      <point x="203" y="481"/>
      <point x="273" y="416"/>
      <point x="291" y="390" type="curve" smooth="yes"/>
      <point x="307" y="367"/>
      <point x="315" y="347"/>
      <point x="315" y="327" type="curve" smooth="yes"/>
      <point x="315" y="302"/>
      <point x="302" y="278"/>
      <point x="276" y="245" type="curve" smooth="yes"/>
      <point x="257" y="222"/>
      <point x="236" y="204"/>
      <point x="225" y="194" type="curve"/>
      <point x="240" y="172"/>
      <point x="247" y="153"/>
      <point x="247" y="133" type="curve" smooth="yes"/>
      <point x="247" y="110"/>
      <point x="238" y="85"/>
      <point x="218" y="54" type="curve" smooth="yes"/>
      <point x="181" y="-5"/>
      <point x="135" y="-19"/>
      <point x="83" y="-10" type="curve" smooth="yes"/>
      <point x="55" y="-5"/>
      <point x="25" y="5"/>
      <point x="-5" y="12" type="curve"/>
      <point x="8" y="33"/>
      <point x="25" y="67"/>
      <point x="32" y="92" type="curve"/>
      <point x="51" y="79"/>
      <point x="88" y="60"/>
      <point x="135" y="53" type="curve"/>
      <point x="153" y="49"/>
      <point x="181" y="53"/>
      <point x="193" y="75" type="curve" smooth="yes"/>
      <point x="203" y="93"/>
      <point x="188" y="119"/>
      <point x="170" y="147" type="curve" smooth="yes"/>
      <point x="142" y="192"/>
      <point x="79" y="250"/>
      <point x="53" y="290" type="curve" smooth="yes"/>
      <point x="41" y="308"/>
      <point x="34" y="326"/>
      <point x="34" y="344" type="curve" smooth="yes"/>
      <point x="34" y="368"/>
      <point x="46" y="393"/>
    </contour>
    <contour>
      <point x="105" y="339" type="curve" smooth="yes"/>
      <point x="125" y="306"/>
      <point x="184" y="249"/>
      <point x="210" y="215" type="curve"/>
      <point x="221" y="226"/>
      <point x="238" y="245"/>
      <point x="250" y="266" type="curve" smooth="yes"/>
      <point x="260" y="284"/>
      <point x="262" y="305"/>
      <point x="244" y="333" type="curve"/>
      <point x="219" y="369"/>
      <point x="175" y="411"/>
      <point x="145" y="445" type="curve"/>
      <point x="134" y="435"/>
      <point x="116" y="419"/>
      <point x="105" y="404" type="curve" smooth="yes"/>
      <point x="98" y="394"/>
      <point x="94" y="383"/>
      <point x="94" y="372" type="curve" smooth="yes"/>
      <point x="94" y="361"/>
      <point x="98" y="350"/>
    </contour>
  </outline>
</glyph>
<glyph name="dieresis" format="1">
  <advance width="387"/>
  <unicode hex="00A8"/>
  <outline>
    <contour>
      <point x="116" y="525" type="curve" smooth="yes"/>
      <point x="86" y="524"/>
      <point x="77" y="546"/>
      <point x="78" y="563" type="curve" smooth="yes"/>
      <point x="79" y="584"/>
      <point x="95" y="603"/>
      <point x="121" y="605" type="curve"/>
      <point x="149" y="606"/>
      <point x="159" y="586"/>
      <point x="158" y="569" type="curve" smooth="yes"/>
      <point x="157" y="548"/>
      <point x="143" y="526"/>
    </contour>
    <contour>
      <point x="267" y="525" type="curve" smooth="yes"/>
      <point x="237" y="524"/>
      <point x="229" y="546"/>
      <point x="229" y="563" type="curve" smooth="yes"/>
      <point x="230" y="584"/>
      <point x="246" y="603"/>
      <point x="273" y="605" type="curve"/>
      <point x="301" y="606"/>
      <point x="309" y="586"/>
      <point x="309" y="569" type="curve" smooth="yes"/>
      <point x="309" y="548"/>
      <point x="295" y="526"/>
    </contour>
  </outline>
</glyph>
<glyph name="copyright" format="1">
  <advance width="843"/>
  <unicode hex="00A9"/>
  <outline>
    <contour>
      <point x="41" y="365" type="curve" smooth="yes"/>
      <point x="41" y="575"/>
      <point x="211" y="745"/>
      <point x="421" y="745" type="curve" smooth="yes"/>
      <point x="631" y="745"/>
      <point x="802" y="575"/>
      <point x="802" y="365" type="curve" smooth="yes"/>
      <point x="802" y="155"/>
      <point x="631" y="-15"/>
      <point x="421" y="-15" type="curve" smooth="yes"/>
      <point x="211" y="-15"/>
      <point x="41" y="155"/>
    </contour>
    <contour>
      <point x="78" y="365" type="curve" smooth="yes"/>
      <point x="78" y="176"/>
      <point x="231" y="21"/>
      <point x="421" y="21" type="curve" smooth="yes"/>
      <point x="611" y="21"/>
      <point x="765" y="176"/>
      <point x="765" y="365" type="curve" smooth="yes"/>
      <point x="765" y="556"/>
      <point x="611" y="712"/>
      <point x="421" y="712" type="curve" smooth="yes"/>
      <point x="231" y="712"/>
      <point x="78" y="556"/>
    </contour>
    <contour>
      <point x="424" y="107" type="curve" smooth="yes"/>
      <point x="276" y="107"/>
      <point x="185" y="198"/>
      <point x="185" y="356" type="curve" smooth="yes"/>
      <point x="185" y="483"/>
      <point x="290" y="625"/>
      <point x="445" y="625" type="curve" smooth="yes"/>
      <point x="460" y="625"/>
      <point x="532" y="619"/>
      <point x="563" y="601" type="curve"/>
      <point x="571" y="573"/>
      <point x="581" y="544"/>
      <point x="595" y="516" type="curve"/>
      <point x="580" y="506" type="line"/>
      <point x="547" y="555"/>
      <point x="501" y="597"/>
      <point x="435" y="597" type="curve" smooth="yes"/>
      <point x="345" y="597"/>
      <point x="254" y="514"/>
      <point x="254" y="368" type="curve" smooth="yes"/>
      <point x="254" y="176"/>
      <point x="377" y="133"/>
      <point x="432" y="133" type="curve" smooth="yes"/>
      <point x="499" y="133"/>
      <point x="551" y="165"/>
      <point x="589" y="218" type="curve"/>
      <point x="605" y="212" type="line"/>
      <point x="577" y="144" type="line"/>
      <point x="546" y="127"/>
      <point x="501" y="107"/>
    </contour>
  </outline>
</glyph>
<glyph name="ordfeminine" format="1">
  <advance width="403"/>
  <unicode hex="00AA"/>
  <outline>
    <contour>
      <point x="265" y="314" type="curve" smooth="yes"/>
      <point x="245" y="314"/>
      <point x="235" y="329"/>
      <point x="236" y="346" type="curve"/>
      <point x="207" y="335"/>
      <point x="164" y="315"/>
      <point x="144" y="315" type="curve" smooth="yes"/>
      <point x="96" y="315"/>
      <point x="70" y="352"/>
      <point x="75" y="410" type="curve"/>
      <point x="80" y="455"/>
      <point x="93" y="505"/>
      <point x="117" y="546" type="curve" smooth="yes"/>
      <point x="136" y="579"/>
      <point x="166" y="606"/>
      <point x="219" y="629" type="curve" smooth="yes"/>
      <point x="249" y="643"/>
      <point x="275" y="647"/>
      <point x="310" y="643" type="curve" smooth="yes"/>
      <point x="377" y="635" type="line"/>
      <point x="370" y="626"/>
      <point x="359" y="599"/>
      <point x="357" y="595" type="curve" smooth="yes"/>
      <point x="340" y="545"/>
      <point x="320" y="471"/>
      <point x="311" y="403" type="curve" smooth="yes"/>
      <point x="307" y="374"/>
      <point x="321" y="361"/>
      <point x="346" y="362" type="curve" smooth="yes"/>
      <point x="355" y="362"/>
      <point x="367" y="362"/>
      <point x="378" y="364" type="curve"/>
      <point x="380" y="345" type="line"/>
      <point x="345" y="332"/>
      <point x="286" y="314"/>
    </contour>
    <contour>
      <point x="142" y="417" type="curve" smooth="yes"/>
      <point x="139" y="378"/>
      <point x="150" y="363"/>
      <point x="178" y="363" type="curve" smooth="yes"/>
      <point x="198" y="363"/>
      <point x="220" y="368"/>
      <point x="239" y="372" type="curve"/>
      <point x="257" y="456"/>
      <point x="280" y="544"/>
      <point x="295" y="600" type="curve"/>
      <point x="287" y="603"/>
      <point x="269" y="605"/>
      <point x="258" y="606" type="curve" smooth="yes"/>
      <point x="216" y="610"/>
      <point x="195" y="593"/>
      <point x="172" y="541" type="curve" smooth="yes"/>
      <point x="154" y="499"/>
      <point x="145" y="456"/>
    </contour>
  </outline>
</glyph>
<glyph name="logicalnot" format="1">
  <advance width="442"/>
  <unicode hex="00AC"/>
  <outline>
    <contour>
      <point x="13" y="270" type="line"/>
      <point x="13" y="305" type="line"/>
      <point x="414" y="305" type="line"/>
      <point x="414" y="125" type="line"/>
      <point x="378" y="125" type="line"/>
      <point x="378" y="270" type="line"/>
    </contour>
  </outline>
</glyph>
<glyph name="registered" format="1">
  <advance width="843"/>
  <unicode hex="00AE"/>
  <outline>
    <contour>
      <point x="41" y="365" type="curve" smooth="yes"/>
      <point x="41" y="575"/>
      <point x="211" y="745"/>
      <point x="421" y="745" type="curve" smooth="yes"/>
      <point x="631" y="745"/>
      <point x="802" y="575"/>
      <point x="802" y="365" type="curve" smooth="yes"/>
      <point x="802" y="155"/>
      <point x="631" y="-15"/>
      <point x="421" y="-15" type="curve" smooth="yes"/>
      <point x="211" y="-15"/>
      <point x="41" y="155"/>
    </contour>
    <contour>
      <point x="78" y="365" type="curve" smooth="yes"/>
      <point x="78" y="176"/>
      <point x="231" y="21"/>
      <point x="421" y="21" type="curve" smooth="yes"/>
      <point x="611" y="21"/>
      <point x="765" y="176"/>
      <point x="765" y="365" type="curve" smooth="yes"/>
      <point x="765" y="556"/>
      <point x="611" y="712"/>
      <point x="421" y="712" type="curve" smooth="yes"/>
      <point x="231" y="712"/>
      <point x="78" y="556"/>
    </contour>
    <contour>
      <point x="299" y="611" type="curve" smooth="yes"/>
      <point x="340" y="611"/>
      <point x="380" y="616"/>
      <point x="426" y="616" type="curve" smooth="yes"/>
      <point x="501" y="616"/>
      <point x="602" y="596"/>
      <point x="602" y="494" type="curve" smooth="yes"/>
      <point x="602" y="399"/>
      <point x="527" y="351"/>
      <point x="472" y="351" type="curve" smooth="yes"/>
      <point x="465" y="351"/>
      <point x="449" y="351"/>
      <point x="443" y="354" type="curve"/>
      <point x="483" y="300"/>
      <point x="568" y="202"/>
      <point x="652" y="149" type="curve"/>
      <point x="633" y="138"/>
      <point x="605" y="118"/>
      <point x="590" y="96" type="curve"/>
      <point x="536" y="146"/>
      <point x="433" y="268"/>
      <point x="370" y="368" type="curve"/>
      <point x="376" y="373"/>
      <point x="385" y="383"/>
      <point x="391" y="391" type="curve"/>
      <point x="405" y="381"/>
      <point x="421" y="375"/>
      <point x="439" y="375" type="curve" smooth="yes"/>
      <point x="501" y="375"/>
      <point x="537" y="409"/>
      <point x="537" y="475" type="curve" smooth="yes"/>
      <point x="537" y="555"/>
      <point x="485" y="587"/>
      <point x="416" y="587" type="curve" smooth="yes"/>
      <point x="397" y="587"/>
      <point x="376" y="585"/>
      <point x="358" y="583" type="curve"/>
      <point x="355" y="505"/>
      <point x="354" y="437"/>
      <point x="354" y="368" type="curve" smooth="yes"/>
      <point x="354" y="314"/>
      <point x="355" y="260"/>
      <point x="356" y="199" type="curve"/>
      <point x="358" y="155"/>
      <point x="379" y="146"/>
      <point x="442" y="135" type="curve"/>
      <point x="436" y="115" type="line"/>
      <point x="398" y="118"/>
      <point x="363" y="119"/>
      <point x="327" y="119" type="curve" smooth="yes"/>
      <point x="291" y="119"/>
      <point x="255" y="118"/>
      <point x="217" y="115" type="curve"/>
      <point x="215" y="135" type="line"/>
      <point x="273" y="145"/>
      <point x="288" y="155"/>
      <point x="291" y="195" type="curve" smooth="yes"/>
      <point x="293" y="216"/>
      <point x="294" y="285"/>
      <point x="294" y="358" type="curve" smooth="yes"/>
      <point x="294" y="421"/>
      <point x="293" y="487"/>
      <point x="291" y="527" type="curve" smooth="yes"/>
      <point x="289" y="575"/>
      <point x="257" y="591"/>
      <point x="216" y="597" type="curve"/>
      <point x="219" y="617" type="line"/>
      <point x="221" y="617" type="line"/>
      <point x="240" y="614"/>
      <point x="263" y="611"/>
    </contour>
  </outline>
</glyph>
<glyph name="macron" format="1">
  <advance width="364"/>
  <unicode hex="00AF"/>
  <outline>
    <contour>
      <point x="282" y="564" type="curve"/>
      <point x="239" y="565"/>
      <point x="197" y="565"/>
      <point x="157" y="565" type="curve" smooth="yes"/>
      <point x="127" y="565"/>
      <point x="97" y="565"/>
      <point x="65" y="564" type="curve"/>
      <point x="74" y="578"/>
      <point x="80" y="601"/>
      <point x="81" y="613" type="curve"/>
      <point x="118" y="611"/>
      <point x="153" y="611"/>
      <point x="189" y="611" type="curve" smooth="yes"/>
      <point x="224" y="611"/>
      <point x="260" y="611"/>
      <point x="298" y="613" type="curve"/>
      <point x="290" y="598"/>
      <point x="285" y="578"/>
    </contour>
  </outline>
</glyph>
<glyph name="degree" format="1">
  <advance width="322"/>
  <unicode hex="00B0"/>
  <outline>
    <contour>
      <point x="76" y="520" type="curve"/>
      <point x="80" y="595"/>
      <point x="139" y="647"/>
      <point x="208" y="647" type="curve" smooth="yes"/>
      <point x="278" y="647"/>
      <point x="338" y="598"/>
      <point x="338" y="520" type="curve"/>
      <point x="336" y="445"/>
      <point x="273" y="394"/>
      <point x="202" y="394" type="curve" smooth="yes"/>
      <point x="134" y="394"/>
      <point x="73" y="443"/>
    </contour>
    <contour>
      <point x="119" y="520" type="curve"/>
      <point x="117" y="471"/>
      <point x="155" y="433"/>
      <point x="204" y="433" type="curve" smooth="yes"/>
      <point x="259" y="433"/>
      <point x="293" y="471"/>
      <point x="295" y="520" type="curve"/>
      <point x="296" y="570"/>
      <point x="257" y="608"/>
      <point x="208" y="608" type="curve" smooth="yes"/>
      <point x="155" y="608"/>
      <point x="120" y="570"/>
    </contour>
  </outline>
</glyph>
<glyph name="plusminus" format="1">
  <advance width="469"/>
  <unicode hex="00B1"/>
  <outline>
    <contour>
      <point x="23" y="68" type="line"/>
      <point x="23" y="104" type="line"/>
      <point x="212" y="104" type="line"/>
      <point x="212" y="270" type="line"/>
      <point x="23" y="270" type="line"/>
      <point x="23" y="305" type="line"/>
      <point x="212" y="305" type="line"/>
      <point x="212" y="473" type="line"/>
      <point x="247" y="473" type="line"/>
      <point x="247" y="305" type="line"/>
      <point x="437" y="305" type="line"/>
      <point x="437" y="270" type="line"/>
      <point x="247" y="270" type="line"/>
      <point x="247" y="104" type="line"/>
      <point x="437" y="104" type="line"/>
      <point x="437" y="68" type="line"/>
    </contour>
  </outline>
</glyph>
<glyph name="acute" format="1">
  <advance width="364"/>
  <unicode hex="00B4"/>
  <outline>
    <contour>
      <point x="118" y="496" type="curve"/>
      <point x="97" y="512" type="line"/>
      <point x="139" y="568"/>
      <point x="180" y="635"/>
      <point x="205" y="688" type="curve"/>
      <point x="219" y="674"/>
      <point x="244" y="652"/>
      <point x="265" y="642" type="curve"/>
      <point x="218" y="602"/>
      <point x="168" y="555"/>
    </contour>
  </outline>
</glyph>
<glyph name="mu" format="1">
  <advance width="629"/>
  <unicode hex="00B5"/>
  <outline>
    <contour>
      <point x="0" y="-245" type="curve"/>
      <point x="4" y="-28"/>
      <point x="45" y="195"/>
      <point x="136" y="446" type="curve"/>
      <point x="159" y="434"/>
      <point x="178" y="429"/>
      <point x="206" y="425" type="curve"/>
      <point x="174" y="357"/>
      <point x="159" y="304"/>
      <point x="156" y="252" type="curve" smooth="yes"/>
      <point x="155" y="242"/>
      <point x="155" y="232"/>
      <point x="155" y="221" type="curve" smooth="yes"/>
      <point x="155" y="179"/>
      <point x="162" y="135"/>
      <point x="181" y="101" type="curve" smooth="yes"/>
      <point x="197" y="73"/>
      <point x="218" y="60"/>
      <point x="241" y="60" type="curve" smooth="yes"/>
      <point x="258" y="60"/>
      <point x="276" y="67"/>
      <point x="294" y="82" type="curve" smooth="yes"/>
      <point x="323" y="105"/>
      <point x="357" y="153"/>
      <point x="371" y="180" type="curve" smooth="yes"/>
      <point x="412" y="258"/>
      <point x="432" y="359"/>
      <point x="442" y="441" type="curve"/>
      <point x="468" y="426"/>
      <point x="490" y="420"/>
      <point x="518" y="415" type="curve"/>
      <point x="502" y="361"/>
      <point x="473" y="274"/>
      <point x="464" y="225" type="curve" smooth="yes"/>
      <point x="462" y="215"/>
      <point x="456" y="183"/>
      <point x="457" y="156" type="curve" smooth="yes"/>
      <point x="458" y="115"/>
      <point x="468" y="85"/>
      <point x="498" y="80" type="curve" smooth="yes"/>
      <point x="530" y="75"/>
      <point x="551" y="92"/>
      <point x="579" y="122" type="curve"/>
      <point x="597" y="108" type="line"/>
      <point x="558" y="41"/>
      <point x="502" y="-14"/>
      <point x="472" y="-14" type="curve" smooth="yes"/>
      <point x="440" y="-14"/>
      <point x="426" y="24"/>
      <point x="426" y="83" type="curve" smooth="yes"/>
      <point x="426" y="104"/>
      <point x="428" y="129"/>
      <point x="431" y="155" type="curve"/>
      <point x="387" y="72"/>
      <point x="336" y="25"/>
      <point x="297" y="0" type="curve" smooth="yes"/>
      <point x="280" y="-11"/>
      <point x="262" y="-17"/>
      <point x="244" y="-17" type="curve" smooth="yes"/>
      <point x="222" y="-17"/>
      <point x="202" y="-8"/>
      <point x="185" y="12" type="curve" smooth="yes"/>
      <point x="152" y="52"/>
      <point x="131" y="114"/>
      <point x="127" y="186" type="curve"/>
      <point x="95" y="52"/>
      <point x="77" y="-78"/>
      <point x="79" y="-264" type="curve"/>
      <point x="54" y="-253"/>
      <point x="30" y="-247"/>
    </contour>
  </outline>
</glyph>
<glyph name="paragraph" format="1">
  <advance width="518"/>
  <unicode hex="00B6"/>
  <outline>
    <contour>
      <point x="275" y="174" type="curve" smooth="yes"/>
      <point x="288" y="219"/>
      <point x="295" y="249"/>
      <point x="307" y="299" type="curve"/>
      <point x="232" y="269"/>
      <point x="211" y="256"/>
      <point x="167" y="257" type="curve" smooth="yes"/>
      <point x="88" y="259"/>
      <point x="51" y="322"/>
      <point x="51" y="375" type="curve" smooth="yes"/>
      <point x="51" y="531"/>
      <point x="195" y="641"/>
      <point x="348" y="641" type="curve" smooth="yes"/>
      <point x="382" y="641"/>
      <point x="438" y="634"/>
      <point x="495" y="634" type="curve" smooth="yes"/>
      <point x="519" y="634"/>
      <point x="544" y="635"/>
      <point x="567" y="639" type="curve"/>
      <point x="566" y="614" type="line"/>
      <point x="495" y="603"/>
      <point x="475" y="592"/>
      <point x="462" y="540" type="curve" smooth="yes"/>
      <point x="442" y="458"/>
      <point x="360" y="80"/>
      <point x="351" y="0" type="curve"/>
      <point x="338" y="1"/>
      <point x="319" y="-2"/>
      <point x="305" y="-5" type="curve"/>
      <point x="325" y="71"/>
      <point x="428" y="520"/>
      <point x="444" y="605" type="curve"/>
      <point x="407" y="609" type="line"/>
      <point x="382" y="515"/>
      <point x="313" y="190"/>
      <point x="303" y="142" type="curve"/>
      <point x="288" y="77"/>
      <point x="279" y="68"/>
      <point x="234" y="44" type="curve" smooth="yes"/>
      <point x="203" y="27"/>
      <point x="140" y="2"/>
      <point x="111" y="-10" type="curve"/>
      <point x="111" y="15"/>
      <point x="103" y="45"/>
      <point x="90" y="73" type="curve"/>
      <point x="130" y="77"/>
      <point x="172" y="89"/>
      <point x="207" y="104" type="curve"/>
      <point x="252" y="121"/>
      <point x="264" y="133"/>
    </contour>
    <contour>
      <point x="312" y="325" type="curve"/>
      <point x="334" y="420"/>
      <point x="354" y="515"/>
      <point x="370" y="609" type="curve"/>
      <point x="355" y="611"/>
      <point x="341" y="611"/>
      <point x="328" y="611" type="curve" smooth="yes"/>
      <point x="259" y="611"/>
      <point x="128" y="557"/>
      <point x="125" y="395" type="curve" smooth="yes"/>
      <point x="124" y="355"/>
      <point x="141" y="314"/>
      <point x="204" y="313" type="curve" smooth="yes"/>
      <point x="241" y="313"/>
      <point x="276" y="318"/>
    </contour>
  </outline>
</glyph>
<glyph name="periodcentered" format="1">
  <advance width="185"/>
  <unicode hex="00B7"/>
  <outline>
    <contour>
      <point x="92" y="247" type="curve" smooth="yes"/>
      <point x="56" y="245"/>
      <point x="45" y="272"/>
      <point x="46" y="292" type="curve" smooth="yes"/>
      <point x="47" y="317"/>
      <point x="66" y="341"/>
      <point x="98" y="343" type="curve"/>
      <point x="132" y="344"/>
      <point x="144" y="321"/>
      <point x="143" y="300" type="curve" smooth="yes"/>
      <point x="142" y="274"/>
      <point x="124" y="249"/>
    </contour>
  </outline>
</glyph>
<glyph name="onesuperior" format="1">
  <advance width="293"/>
  <unicode hex="00B9"/>
  <outline>
    <contour>
      <point x="68" y="364" type="curve"/>
      <point x="66" y="387" type="line"/>
      <point x="140" y="399"/>
      <point x="145" y="410"/>
      <point x="156" y="445" type="curve" smooth="yes"/>
      <point x="173" y="497"/>
      <point x="198" y="631"/>
      <point x="206" y="683" type="curve"/>
      <point x="171" y="676"/>
      <point x="150" y="666"/>
      <point x="115" y="645" type="curve"/>
      <point x="122" y="658"/>
      <point x="125" y="679"/>
      <point x="127" y="687" type="curve"/>
      <point x="170" y="705"/>
      <point x="280" y="726"/>
      <point x="288" y="726" type="curve"/>
      <point x="292" y="711" type="line"/>
      <point x="276" y="694"/>
      <point x="267" y="679"/>
      <point x="260" y="641" type="curve"/>
      <point x="245" y="577"/>
      <point x="227" y="474"/>
      <point x="221" y="443" type="curve" smooth="yes"/>
      <point x="216" y="417"/>
      <point x="219" y="402"/>
      <point x="280" y="387" type="curve"/>
      <point x="275" y="364" type="line"/>
      <point x="235" y="367"/>
      <point x="206" y="369"/>
      <point x="176" y="369" type="curve" smooth="yes"/>
      <point x="146" y="369"/>
      <point x="114" y="367"/>
    </contour>
  </outline>
</glyph>
<glyph name="ordmasculine" format="1">
  <advance width="353"/>
  <unicode hex="00BA"/>
  <outline>
    <contour>
      <point x="179" y="314" type="curve" smooth="yes"/>
      <point x="115" y="314"/>
      <point x="82" y="358"/>
      <point x="82" y="427" type="curve" smooth="yes"/>
      <point x="82" y="436"/>
      <point x="83" y="446"/>
      <point x="84" y="456" type="curve" smooth="yes"/>
      <point x="91" y="519"/>
      <point x="110" y="569"/>
      <point x="171" y="615" type="curve" smooth="yes"/>
      <point x="200" y="636"/>
      <point x="227" y="644"/>
      <point x="247" y="644" type="curve" smooth="yes"/>
      <point x="325" y="644"/>
      <point x="354" y="589"/>
      <point x="346" y="515" type="curve"/>
      <point x="341" y="451"/>
      <point x="323" y="388"/>
      <point x="259" y="342" type="curve" smooth="yes"/>
      <point x="230" y="321"/>
      <point x="207" y="314"/>
    </contour>
    <contour>
      <point x="148" y="425" type="curve" smooth="yes"/>
      <point x="151" y="377"/>
      <point x="163" y="348"/>
      <point x="202" y="348" type="curve" smooth="yes"/>
      <point x="228" y="348"/>
      <point x="245" y="365"/>
      <point x="263" y="418" type="curve" smooth="yes"/>
      <point x="274" y="451"/>
      <point x="282" y="501"/>
      <point x="280" y="533" type="curve" smooth="yes"/>
      <point x="278" y="577"/>
      <point x="274" y="609"/>
      <point x="224" y="609" type="curve" smooth="yes"/>
      <point x="205" y="609"/>
      <point x="184" y="594"/>
      <point x="165" y="539" type="curve" smooth="yes"/>
      <point x="154" y="507"/>
      <point x="146" y="463"/>
    </contour>
  </outline>
</glyph>
<glyph name="guillemotright" format="1">
  <advance width="396"/>
  <unicode hex="00BB"/>
  <outline>
    <contour>
      <point x="77" y="372" type="curve"/>
      <point x="97" y="385" type="line"/>
      <point x="146" y="301"/>
      <point x="171" y="261"/>
      <point x="208" y="214" type="curve"/>
      <point x="135" y="150"/>
      <point x="105" y="123"/>
      <point x="28" y="45" type="curve"/>
      <point x="13" y="64" type="line"/>
      <point x="70" y="132"/>
      <point x="78" y="146"/>
      <point x="121" y="216" type="curve"/>
      <point x="110" y="282"/>
      <point x="108" y="294"/>
    </contour>
    <contour>
      <point x="227" y="372" type="curve"/>
      <point x="247" y="385" type="line"/>
      <point x="296" y="301"/>
      <point x="321" y="261"/>
      <point x="358" y="214" type="curve"/>
      <point x="285" y="150"/>
      <point x="255" y="123"/>
      <point x="178" y="45" type="curve"/>
      <point x="163" y="64" type="line"/>
      <point x="220" y="132"/>
      <point x="228" y="146"/>
      <point x="271" y="216" type="curve"/>
      <point x="260" y="282"/>
      <point x="258" y="294"/>
    </contour>
  </outline>
</glyph>
<glyph name="onequarter" format="1">
  <advance width="757"/>
  <unicode hex="00BC"/>
  <outline>
    <contour>
      <point x="716" y="653" type="curve"/>
      <point x="738" y="633" type="line"/>
      <point x="584" y="485"/>
      <point x="224" y="130"/>
      <point x="71" y="-21" type="curve"/>
      <point x="50" y="0" type="line"/>
      <point x="204" y="148"/>
      <point x="564" y="502"/>
    </contour>
    <contour>
      <point x="511" y="-35" type="curve"/>
      <point x="506" y="-29" type="line"/>
      <point x="524" y="9"/>
      <point x="533" y="50"/>
      <point x="541" y="98" type="curve"/>
      <point x="524" y="99"/>
      <point x="508" y="100"/>
      <point x="494" y="100" type="curve" smooth="yes"/>
      <point x="455" y="100"/>
      <point x="426" y="96"/>
      <point x="400" y="90" type="curve"/>
      <point x="400" y="98"/>
      <point x="399" y="104"/>
      <point x="395" y="113" type="curve"/>
      <point x="439" y="147"/>
      <point x="481" y="196"/>
      <point x="512" y="229" type="curve" smooth="yes"/>
      <point x="569" y="288"/>
      <point x="589" y="311"/>
      <point x="620" y="356" type="curve"/>
      <point x="625" y="352"/>
      <point x="644" y="349"/>
      <point x="651" y="347" type="curve"/>
      <point x="641" y="318"/>
      <point x="614" y="195"/>
      <point x="605" y="131" type="curve"/>
      <point x="630" y="131"/>
      <point x="656" y="134"/>
      <point x="684" y="149" type="curve"/>
      <point x="690" y="142" type="line"/>
      <point x="669" y="125"/>
      <point x="649" y="101"/>
      <point x="638" y="86" type="curve"/>
      <point x="625" y="91"/>
      <point x="606" y="93"/>
      <point x="598" y="94" type="curve"/>
      <point x="592" y="53"/>
      <point x="589" y="11"/>
      <point x="591" y="-1" type="curve"/>
      <point x="570" y="-7"/>
      <point x="531" y="-21"/>
    </contour>
    <contour>
      <point x="575" y="259" type="curve"/>
      <point x="535" y="214"/>
      <point x="500" y="176"/>
      <point x="454" y="131" type="curve"/>
      <point x="492" y="134"/>
      <point x="505" y="134"/>
      <point x="547" y="134" type="curve"/>
      <point x="552" y="155"/>
      <point x="556" y="207"/>
    </contour>
    <contour>
      <point x="53" y="288" type="curve"/>
      <point x="51" y="311" type="line"/>
      <point x="125" y="323"/>
      <point x="130" y="334"/>
      <point x="141" y="369" type="curve" smooth="yes"/>
      <point x="158" y="421"/>
      <point x="183" y="555"/>
      <point x="191" y="607" type="curve"/>
      <point x="156" y="600"/>
      <point x="135" y="590"/>
      <point x="100" y="569" type="curve"/>
      <point x="107" y="582"/>
      <point x="110" y="603"/>
      <point x="112" y="611" type="curve"/>
      <point x="155" y="629"/>
      <point x="265" y="650"/>
      <point x="273" y="650" type="curve"/>
      <point x="277" y="635" type="line"/>
      <point x="261" y="618"/>
      <point x="252" y="603"/>
      <point x="245" y="565" type="curve"/>
      <point x="230" y="501"/>
      <point x="212" y="398"/>
      <point x="206" y="367" type="curve" smooth="yes"/>
      <point x="201" y="341"/>
      <point x="204" y="326"/>
      <point x="265" y="311" type="curve"/>
      <point x="260" y="288" type="line"/>
      <point x="220" y="291"/>
      <point x="191" y="293"/>
      <point x="161" y="293" type="curve" smooth="yes"/>
      <point x="131" y="293"/>
      <point x="99" y="291"/>
    </contour>
  </outline>
</glyph>
<glyph name="onehalf" format="1">
  <advance width="757"/>
  <unicode hex="00BD"/>
  <outline>
    <contour>
      <point x="587" y="156" type="curve" smooth="yes"/>
      <point x="635" y="209"/>
      <point x="641" y="241"/>
      <point x="641" y="255" type="curve" smooth="yes"/>
      <point x="641" y="275"/>
      <point x="635" y="299"/>
      <point x="575" y="299" type="curve" smooth="yes"/>
      <point x="557" y="299"/>
      <point x="532" y="294"/>
      <point x="511" y="285" type="curve"/>
      <point x="522" y="305"/>
      <point x="533" y="333"/>
      <point x="536" y="351" type="curve"/>
      <point x="548" y="355"/>
      <point x="579" y="357"/>
      <point x="593" y="357" type="curve" smooth="yes"/>
      <point x="672" y="357"/>
      <point x="695" y="329"/>
      <point x="695" y="283" type="curve" smooth="yes"/>
      <point x="695" y="231"/>
      <point x="660" y="193"/>
      <point x="612" y="145" type="curve" smooth="yes"/>
      <point x="527" y="62" type="line"/>
      <point x="542" y="65"/>
      <point x="556" y="66"/>
      <point x="569" y="66" type="curve" smooth="yes"/>
      <point x="584" y="66"/>
      <point x="596" y="65"/>
      <point x="607" y="64" type="curve" smooth="yes"/>
      <point x="650" y="59"/>
      <point x="654" y="73"/>
      <point x="678" y="108" type="curve"/>
      <point x="696" y="99" type="line"/>
      <point x="673" y="64"/>
      <point x="657" y="34"/>
      <point x="640" y="-6" type="curve"/>
      <point x="613" y="3"/>
      <point x="581" y="7"/>
      <point x="547" y="7" type="curve" smooth="yes"/>
      <point x="510" y="7"/>
      <point x="472" y="2"/>
      <point x="437" y="-8" type="curve"/>
      <point x="447" y="11"/>
      <point x="454" y="33"/>
      <point x="459" y="49" type="curve"/>
      <point x="516" y="81"/>
      <point x="550" y="115"/>
    </contour>
    <contour>
      <point x="63" y="284" type="curve"/>
      <point x="61" y="307" type="line"/>
      <point x="135" y="319"/>
      <point x="140" y="330"/>
      <point x="151" y="365" type="curve" smooth="yes"/>
      <point x="168" y="417"/>
      <point x="193" y="551"/>
      <point x="201" y="603" type="curve"/>
      <point x="166" y="596"/>
      <point x="145" y="586"/>
      <point x="110" y="565" type="curve"/>
      <point x="117" y="578"/>
      <point x="120" y="599"/>
      <point x="122" y="607" type="curve"/>
      <point x="165" y="625"/>
      <point x="275" y="646"/>
      <point x="283" y="646" type="curve"/>
      <point x="287" y="631" type="line"/>
      <point x="271" y="614"/>
      <point x="262" y="599"/>
      <point x="255" y="561" type="curve"/>
      <point x="240" y="497"/>
      <point x="222" y="394"/>
      <point x="216" y="363" type="curve" smooth="yes"/>
      <point x="211" y="337"/>
      <point x="214" y="322"/>
      <point x="275" y="307" type="curve"/>
      <point x="270" y="284" type="line"/>
      <point x="230" y="287"/>
      <point x="201" y="289"/>
      <point x="171" y="289" type="curve" smooth="yes"/>
      <point x="141" y="289"/>
      <point x="109" y="287"/>
    </contour>
    <contour>
      <point x="716" y="653" type="curve"/>
      <point x="738" y="633" type="line"/>
      <point x="584" y="485"/>
      <point x="224" y="130"/>
      <point x="71" y="-21" type="curve"/>
      <point x="50" y="0" type="line"/>
      <point x="204" y="148"/>
      <point x="564" y="502"/>
    </contour>
  </outline>
</glyph>
<glyph name="threequarters" format="1">
  <advance width="757"/>
  <unicode hex="00BE"/>
  <outline>
    <contour>
      <point x="138" y="282" type="curve" smooth="yes"/>
      <point x="122" y="285"/>
      <point x="70" y="304"/>
      <point x="45" y="308" type="curve"/>
      <point x="56" y="322"/>
      <point x="75" y="358"/>
      <point x="80" y="375" type="curve"/>
      <point x="94" y="365"/>
      <point x="111" y="350"/>
      <point x="136" y="342" type="curve" smooth="yes"/>
      <point x="154" y="336"/>
      <point x="168" y="334"/>
      <point x="180" y="334" type="curve" smooth="yes"/>
      <point x="202" y="334"/>
      <point x="215" y="343"/>
      <point x="224" y="355" type="curve" smooth="yes"/>
      <point x="232" y="366"/>
      <point x="237" y="378"/>
      <point x="237" y="389" type="curve" smooth="yes"/>
      <point x="237" y="404"/>
      <point x="229" y="420"/>
      <point x="214" y="437" type="curve"/>
      <point x="197" y="454"/>
      <point x="168" y="471"/>
      <point x="135" y="474" type="curve"/>
      <point x="131" y="491" type="line"/>
      <point x="172" y="500"/>
      <point x="230" y="517"/>
      <point x="232" y="559" type="curve" smooth="yes"/>
      <point x="233" y="581"/>
      <point x="213" y="592"/>
      <point x="175" y="592" type="curve" smooth="yes"/>
      <point x="166" y="592"/>
      <point x="145" y="590"/>
      <point x="130" y="585" type="curve"/>
      <point x="140" y="603"/>
      <point x="149" y="633"/>
      <point x="150" y="647" type="curve"/>
      <point x="160" y="648"/>
      <point x="177" y="649"/>
      <point x="192" y="649" type="curve" smooth="yes"/>
      <point x="243" y="649"/>
      <point x="279" y="629"/>
      <point x="279" y="584" type="curve" smooth="yes"/>
      <point x="279" y="559"/>
      <point x="271" y="532"/>
      <point x="223" y="503" type="curve"/>
      <point x="244" y="493"/>
      <point x="262" y="479"/>
      <point x="271" y="457" type="curve" smooth="yes"/>
      <point x="276" y="447"/>
      <point x="278" y="436"/>
      <point x="278" y="424" type="curve" smooth="yes"/>
      <point x="278" y="404"/>
      <point x="272" y="382"/>
      <point x="261" y="364" type="curve"/>
      <point x="235" y="314"/>
      <point x="194" y="274"/>
    </contour>
    <contour>
      <point x="716" y="653" type="curve"/>
      <point x="738" y="633" type="line"/>
      <point x="584" y="485"/>
      <point x="224" y="130"/>
      <point x="71" y="-21" type="curve"/>
      <point x="50" y="0" type="line"/>
      <point x="204" y="148"/>
      <point x="564" y="502"/>
    </contour>
    <contour>
      <point x="511" y="-35" type="curve"/>
      <point x="506" y="-29" type="line"/>
      <point x="524" y="9"/>
      <point x="533" y="50"/>
      <point x="541" y="98" type="curve"/>
      <point x="524" y="99"/>
      <point x="508" y="100"/>
      <point x="494" y="100" type="curve" smooth="yes"/>
      <point x="455" y="100"/>
      <point x="426" y="96"/>
      <point x="400" y="90" type="curve"/>
      <point x="400" y="98"/>
      <point x="399" y="104"/>
      <point x="395" y="113" type="curve"/>
      <point x="439" y="147"/>
      <point x="481" y="196"/>
      <point x="512" y="229" type="curve" smooth="yes"/>
      <point x="569" y="288"/>
      <point x="589" y="311"/>
      <point x="620" y="356" type="curve"/>
      <point x="625" y="352"/>
      <point x="644" y="349"/>
      <point x="651" y="347" type="curve"/>
      <point x="641" y="318"/>
      <point x="614" y="195"/>
      <point x="605" y="131" type="curve"/>
      <point x="630" y="131"/>
      <point x="656" y="134"/>
      <point x="684" y="149" type="curve"/>
      <point x="690" y="142" type="line"/>
      <point x="669" y="125"/>
      <point x="649" y="101"/>
      <point x="638" y="86" type="curve"/>
      <point x="625" y="91"/>
      <point x="606" y="93"/>
      <point x="598" y="94" type="curve"/>
      <point x="592" y="53"/>
      <point x="589" y="11"/>
      <point x="591" y="-1" type="curve"/>
      <point x="570" y="-7"/>
      <point x="531" y="-21"/>
    </contour>
    <contour>
      <point x="575" y="259" type="curve"/>
      <point x="535" y="214"/>
      <point x="500" y="176"/>
      <point x="454" y="131" type="curve"/>
      <point x="492" y="134"/>
      <point x="505" y="134"/>
      <point x="547" y="134" type="curve"/>
      <point x="552" y="155"/>
      <point x="556" y="207"/>
    </contour>
  </outline>
</glyph>
<glyph name="questiondown" format="1">
  <advance width="388"/>
  <unicode hex="00BF"/>
  <outline>
    <contour>
      <point x="267" y="301" type="curve"/>
      <point x="295" y="299" type="line"/>
      <point x="280" y="256"/>
      <point x="261" y="191"/>
      <point x="250" y="132" type="curve"/>
      <point x="225" y="144"/>
      <point x="188" y="154"/>
      <point x="159" y="156" type="curve" smooth="yes"/>
      <point x="92" y="161"/>
      <point x="52" y="121"/>
      <point x="38" y="90" type="curve" smooth="yes"/>
      <point x="33" y="78"/>
      <point x="30" y="63"/>
      <point x="30" y="47" type="curve" smooth="yes"/>
      <point x="30" y="6"/>
      <point x="50" y="-43"/>
      <point x="106" y="-75" type="curve" smooth="yes"/>
      <point x="162" y="-107"/>
      <point x="243" y="-128"/>
      <point x="306" y="-123" type="curve"/>
      <point x="286" y="-155"/>
      <point x="277" y="-177"/>
      <point x="266" y="-219" type="curve"/>
      <point x="247" y="-204"/>
      <point x="223" y="-197"/>
      <point x="196" y="-188" type="curve"/>
      <point x="156" y="-173"/>
      <point x="109" y="-160"/>
      <point x="72" y="-135" type="curve" smooth="yes"/>
      <point x="18" y="-99"/>
      <point x="-8" y="-42"/>
      <point x="-8" y="18" type="curve" smooth="yes"/>
      <point x="-8" y="44"/>
      <point x="-3" y="71"/>
      <point x="7" y="97" type="curve" smooth="yes"/>
      <point x="28" y="156"/>
      <point x="96" y="225"/>
      <point x="166" y="225" type="curve" smooth="yes"/>
      <point x="186" y="225"/>
      <point x="220" y="219"/>
      <point x="238" y="212" type="curve"/>
      <point x="248" y="236"/>
      <point x="256" y="261"/>
    </contour>
    <contour>
      <point x="306" y="448" type="curve" smooth="yes"/>
      <point x="341" y="450"/>
      <point x="352" y="423"/>
      <point x="351" y="403" type="curve" smooth="yes"/>
      <point x="350" y="378"/>
      <point x="331" y="354"/>
      <point x="299" y="352" type="curve"/>
      <point x="266" y="351"/>
      <point x="254" y="374"/>
      <point x="255" y="395" type="curve" smooth="yes"/>
      <point x="256" y="421"/>
      <point x="273" y="446"/>
    </contour>
  </outline>
</glyph>
<glyph name="Adieresis" format="1">
  <advance width="709"/>
  <unicode hex="00C4"/>
  <outline>
    <contour>
      <point x="391" y="-3" type="curve"/>
      <point x="394" y="23" type="line"/>
      <point x="454" y="35"/>
      <point x="494" y="42"/>
      <point x="490" y="91" type="curve" smooth="yes"/>
      <point x="489" y="105"/>
      <point x="478" y="175"/>
      <point x="474" y="195" type="curve"/>
      <point x="434" y="193"/>
      <point x="389" y="192"/>
      <point x="343" y="192" type="curve" smooth="yes"/>
      <point x="297" y="192"/>
      <point x="251" y="193"/>
      <point x="211" y="195" type="curve"/>
      <point x="186" y="156"/>
      <point x="167" y="114"/>
      <point x="160" y="96" type="curve" smooth="yes"/>
      <point x="156" y="84"/>
      <point x="153" y="75"/>
      <point x="153" y="67" type="curve" smooth="yes"/>
      <point x="153" y="48"/>
      <point x="169" y="36"/>
      <point x="221" y="23" type="curve"/>
      <point x="213" y="-3" type="line"/>
      <point x="179" y="1"/>
      <point x="139" y="3"/>
      <point x="98" y="3" type="curve" smooth="yes"/>
      <point x="57" y="3"/>
      <point x="16" y="1"/>
      <point x="-19" y="-3" type="curve"/>
      <point x="-19" y="23"/>
      <point x="-20" y="21"/>
      <point x="-20" y="21" type="curve"/>
      <point x="45" y="37"/>
      <point x="60" y="45"/>
      <point x="92" y="87" type="curve" smooth="yes"/>
      <point x="168" y="189"/>
      <point x="282" y="375"/>
      <point x="358" y="513" type="curve" smooth="yes"/>
      <point x="378" y="548"/>
      <point x="392" y="585"/>
      <point x="389" y="625" type="curve"/>
      <point x="423" y="632"/>
      <point x="442" y="637"/>
      <point x="472" y="652" type="curve"/>
      <point x="472" y="637"/>
      <point x="475" y="607"/>
      <point x="481" y="569" type="curve" smooth="yes"/>
      <point x="502" y="437"/>
      <point x="556" y="181"/>
      <point x="578" y="91" type="curve" smooth="yes"/>
      <point x="588" y="52"/>
      <point x="602" y="39"/>
      <point x="658" y="23" type="curve"/>
      <point x="650" y="-3" type="line"/>
      <point x="614" y="2"/>
      <point x="574" y="4"/>
      <point x="532" y="4" type="curve" smooth="yes"/>
      <point x="483" y="4"/>
      <point x="434" y="1"/>
    </contour>
    <contour>
      <point x="231" y="228" type="curve"/>
      <point x="266" y="225"/>
      <point x="302" y="224"/>
      <point x="338" y="224" type="curve" smooth="yes"/>
      <point x="381" y="224"/>
      <point x="424" y="226"/>
      <point x="468" y="229" type="curve"/>
      <point x="446" y="350"/>
      <point x="433" y="420"/>
      <point x="407" y="534" type="curve"/>
      <point x="352" y="442"/>
      <point x="290" y="328"/>
    </contour>
    <contour>
      <point x="367" y="700" type="curve" smooth="yes"/>
      <point x="337" y="699"/>
      <point x="328" y="721"/>
      <point x="329" y="738" type="curve" smooth="yes"/>
      <point x="330" y="759"/>
      <point x="346" y="778"/>
      <point x="372" y="780" type="curve"/>
      <point x="400" y="781"/>
      <point x="410" y="761"/>
      <point x="409" y="744" type="curve" smooth="yes"/>
      <point x="408" y="723"/>
      <point x="394" y="701"/>
    </contour>
    <contour>
      <point x="518" y="700" type="curve" smooth="yes"/>
      <point x="488" y="699"/>
      <point x="480" y="721"/>
      <point x="480" y="738" type="curve" smooth="yes"/>
      <point x="481" y="759"/>
      <point x="497" y="778"/>
      <point x="524" y="780" type="curve"/>
      <point x="552" y="781"/>
      <point x="560" y="761"/>
      <point x="560" y="744" type="curve" smooth="yes"/>
      <point x="560" y="723"/>
      <point x="546" y="701"/>
    </contour>
  </outline>
</glyph>
<glyph name="AE" format="1">
  <advance width="926"/>
  <unicode hex="00C6"/>
  <outline>
    <contour>
      <point x="819" y="-6" type="curve"/>
      <point x="644" y="2"/>
      <point x="595" y="2"/>
      <point x="458" y="2" type="curve" smooth="yes"/>
      <point x="414" y="2" type="line" smooth="yes"/>
      <point x="391" y="2"/>
      <point x="371" y="1"/>
      <point x="335" y="-3" type="curve"/>
      <point x="331" y="23" type="line"/>
      <point x="419" y="47"/>
      <point x="435" y="65"/>
      <point x="451" y="117" type="curve" smooth="yes"/>
      <point x="455" y="132"/>
      <point x="462" y="159"/>
      <point x="469" y="195" type="curve"/>
      <point x="433" y="193"/>
      <point x="389" y="192"/>
      <point x="347" y="192" type="curve" smooth="yes"/>
      <point x="304" y="192"/>
      <point x="263" y="193"/>
      <point x="232" y="195" type="curve"/>
      <point x="198" y="156"/>
      <point x="170" y="115"/>
      <point x="161" y="96" type="curve" smooth="yes"/>
      <point x="156" y="85"/>
      <point x="154" y="76"/>
      <point x="154" y="68" type="curve" smooth="yes"/>
      <point x="154" y="44"/>
      <point x="172" y="30"/>
      <point x="205" y="23" type="curve"/>
      <point x="195" y="-3" type="line"/>
      <point x="162" y="1"/>
      <point x="122" y="3"/>
      <point x="82" y="3" type="curve" smooth="yes"/>
      <point x="41" y="3"/>
      <point x="0" y="1"/>
      <point x="-35" y="-3" type="curve"/>
      <point x="-36" y="21" type="line"/>
      <point x="15" y="37"/>
      <point x="54" y="62"/>
      <point x="105" y="113" type="curve" smooth="yes"/>
      <point x="205" y="214"/>
      <point x="400" y="449"/>
      <point x="511" y="586" type="curve"/>
      <point x="496" y="597"/>
      <point x="475" y="605"/>
      <point x="448" y="614" type="curve"/>
      <point x="456" y="639" type="line"/>
      <point x="502" y="633"/>
      <point x="546" y="633"/>
      <point x="600" y="633" type="curve" smooth="yes"/>
      <point x="695" y="633"/>
      <point x="820" y="634"/>
      <point x="883" y="646" type="curve"/>
      <point x="884" y="608"/>
      <point x="896" y="532"/>
      <point x="912" y="496" type="curve"/>
      <point x="884" y="487" type="line"/>
      <point x="849" y="585"/>
      <point x="793" y="595"/>
      <point x="733" y="597" type="curve" smooth="yes"/>
      <point x="720" y="597"/>
      <point x="703" y="598"/>
      <point x="685" y="598" type="curve" smooth="yes"/>
      <point x="663" y="598"/>
      <point x="640" y="597"/>
      <point x="622" y="595" type="curve"/>
      <point x="612" y="567"/>
      <point x="584" y="427"/>
      <point x="568" y="344" type="curve"/>
      <point x="640" y="343"/>
      <point x="730" y="357"/>
      <point x="802" y="381" type="curve"/>
      <point x="783" y="352"/>
      <point x="771" y="314"/>
      <point x="766" y="282" type="curve"/>
      <point x="716" y="299"/>
      <point x="655" y="312"/>
      <point x="562" y="313" type="curve"/>
      <point x="558" y="294"/>
      <point x="523" y="127"/>
      <point x="518" y="50" type="curve"/>
      <point x="554" y="41"/>
      <point x="615" y="32"/>
      <point x="662" y="32" type="curve" smooth="yes"/>
      <point x="758" y="32"/>
      <point x="800" y="65"/>
      <point x="863" y="155" type="curve"/>
      <point x="890" y="145" type="line"/>
      <point x="859" y="94"/>
      <point x="837" y="45"/>
    </contour>
    <contour>
      <point x="260" y="230" type="curve"/>
      <point x="290" y="227"/>
      <point x="325" y="225"/>
      <point x="361" y="225" type="curve" smooth="yes"/>
      <point x="401" y="225"/>
      <point x="441" y="227"/>
      <point x="477" y="229" type="curve"/>
      <point x="497" y="322"/>
      <point x="521" y="445"/>
      <point x="533" y="516" type="curve"/>
      <point x="535" y="534"/>
      <point x="535" y="547"/>
      <point x="531" y="559" type="curve"/>
      <point x="458" y="472"/>
      <point x="330" y="316"/>
    </contour>
  </outline>
</glyph>
<glyph name="Igrave" format="1">
  <advance width="314"/>
  <unicode hex="00CC"/>
  <outline>
    <contour>
      <point x="88" y="614" type="curve"/>
      <point x="98" y="639" type="line"/>
      <point x="148" y="634"/>
      <point x="190" y="632"/>
      <point x="233" y="632" type="curve" smooth="yes"/>
      <point x="273" y="632"/>
      <point x="314" y="634"/>
      <point x="363" y="639" type="curve"/>
      <point x="361" y="614" type="line"/>
      <point x="278" y="604"/>
      <point x="265" y="592"/>
      <point x="253" y="540" type="curve"/>
      <point x="226" y="437"/>
      <point x="185" y="234"/>
      <point x="162" y="100" type="curve" smooth="yes"/>
      <point x="153" y="45"/>
      <point x="163" y="36"/>
      <point x="245" y="23" type="curve"/>
      <point x="237" y="-3" type="line"/>
      <point x="189" y="1"/>
      <point x="147" y="3"/>
      <point x="105" y="3" type="curve" smooth="yes"/>
      <point x="63" y="3"/>
      <point x="19" y="1"/>
      <point x="-30" y="-3" type="curve"/>
      <point x="-31" y="23" type="line"/>
      <point x="59" y="34"/>
      <point x="70" y="45"/>
      <point x="84" y="96" type="curve"/>
      <point x="118" y="233"/>
      <point x="149" y="399"/>
      <point x="172" y="535" type="curve" smooth="yes"/>
      <point x="181" y="586"/>
      <point x="173" y="599"/>
    </contour>
    <contour>
      <point x="174" y="818" type="curve"/>
      <point x="226" y="783"/>
      <point x="274" y="754"/>
      <point x="344" y="716" type="curve"/>
      <point x="332" y="697" type="line"/>
      <point x="267" y="721"/>
      <point x="205" y="735"/>
      <point x="138" y="748" type="curve"/>
      <point x="154" y="767"/>
      <point x="168" y="794"/>
    </contour>
  </outline>
</glyph>
<glyph name="Icircumflex" format="1">
  <advance width="314"/>
  <unicode hex="00CE"/>
  <outline>
    <contour>
      <point x="88" y="614" type="curve"/>
      <point x="98" y="639" type="line"/>
      <point x="148" y="634"/>
      <point x="190" y="632"/>
      <point x="233" y="632" type="curve" smooth="yes"/>
      <point x="273" y="632"/>
      <point x="314" y="634"/>
      <point x="363" y="639" type="curve"/>
      <point x="361" y="614" type="line"/>
      <point x="278" y="604"/>
      <point x="265" y="592"/>
      <point x="253" y="540" type="curve"/>
      <point x="226" y="437"/>
      <point x="185" y="234"/>
      <point x="162" y="100" type="curve" smooth="yes"/>
      <point x="153" y="45"/>
      <point x="163" y="36"/>
      <point x="245" y="23" type="curve"/>
      <point x="237" y="-3" type="line"/>
      <point x="189" y="1"/>
      <point x="147" y="3"/>
      <point x="105" y="3" type="curve" smooth="yes"/>
      <point x="63" y="3"/>
      <point x="19" y="1"/>
      <point x="-30" y="-3" type="curve"/>
      <point x="-31" y="23" type="line"/>
      <point x="59" y="34"/>
      <point x="70" y="45"/>
      <point x="84" y="96" type="curve"/>
      <point x="118" y="233"/>
      <point x="149" y="399"/>
      <point x="172" y="535" type="curve" smooth="yes"/>
      <point x="181" y="586"/>
      <point x="173" y="599"/>
    </contour>
    <contour>
      <point x="358" y="710" type="curve"/>
      <point x="340" y="693" type="line"/>
      <point x="311" y="718"/>
      <point x="283" y="736"/>
      <point x="254" y="753" type="curve"/>
      <point x="213" y="735"/>
      <point x="180" y="718"/>
      <point x="141" y="693" type="curve"/>
      <point x="128" y="712" type="line"/>
      <point x="183" y="753"/>
      <point x="232" y="791"/>
      <point x="270" y="833" type="curve"/>
      <point x="295" y="789"/>
      <point x="328" y="745"/>
    </contour>
  </outline>
</glyph>
<glyph name="Eth" format="1">
  <advance width="701"/>
  <unicode hex="00D0"/>
  <outline>
    <contour>
      <point x="46" y="315" type="curve"/>
      <point x="54" y="346" type="line"/>
      <point x="81" y="346"/>
      <point x="109" y="345"/>
      <point x="137" y="345" type="curve"/>
      <point x="152" y="418"/>
      <point x="164" y="488"/>
      <point x="170" y="524" type="curve"/>
      <point x="178" y="584"/>
      <point x="151" y="601"/>
      <point x="94" y="614" type="curve"/>
      <point x="103" y="639" type="line"/>
      <point x="130" y="635"/>
      <point x="189" y="634"/>
      <point x="219" y="634" type="curve" smooth="yes"/>
      <point x="295" y="634"/>
      <point x="312" y="639"/>
      <point x="399" y="639" type="curve" smooth="yes"/>
      <point x="580" y="639"/>
      <point x="671" y="541"/>
      <point x="673" y="408" type="curve"/>
      <point x="673" y="331"/>
      <point x="654" y="239"/>
      <point x="610" y="178" type="curve" smooth="yes"/>
      <point x="572" y="125"/>
      <point x="469" y="-2"/>
      <point x="220" y="-2" type="curve" smooth="yes"/>
      <point x="183" y="-2"/>
      <point x="112" y="3"/>
      <point x="73" y="3" type="curve" smooth="yes"/>
      <point x="44" y="3"/>
      <point x="2" y="0"/>
      <point x="-28" y="-3" type="curve"/>
      <point x="-29" y="23" type="line"/>
      <point x="38" y="36"/>
      <point x="72" y="63"/>
      <point x="87" y="115" type="curve" smooth="yes"/>
      <point x="97" y="149"/>
      <point x="115" y="231"/>
      <point x="132" y="316" type="curve"/>
      <point x="103" y="316"/>
      <point x="73" y="315"/>
    </contour>
    <contour>
      <point x="155" y="63" type="curve"/>
      <point x="175" y="55"/>
      <point x="260" y="45"/>
      <point x="283" y="45" type="curve" smooth="yes"/>
      <point x="499" y="41"/>
      <point x="587" y="221"/>
      <point x="587" y="395" type="curve" smooth="yes"/>
      <point x="587" y="518"/>
      <point x="515" y="603"/>
      <point x="339" y="603" type="curve" smooth="yes"/>
      <point x="324" y="603"/>
      <point x="284" y="601"/>
      <point x="266" y="598" type="curve"/>
      <point x="257" y="566"/>
      <point x="233" y="457"/>
      <point x="210" y="345" type="curve"/>
      <point x="273" y="345"/>
      <point x="337" y="346"/>
      <point x="396" y="349" type="curve"/>
      <point x="389" y="314" type="line"/>
      <point x="331" y="316"/>
      <point x="267" y="316"/>
      <point x="204" y="316" type="curve"/>
      <point x="181" y="206"/>
      <point x="160" y="99"/>
    </contour>
  </outline>
</glyph>
<glyph name="Oacute" format="1">
  <advance width="723"/>
  <unicode hex="00D3"/>
  <outline>
    <contour>
      <point x="312" y="-21" type="curve" smooth="yes"/>
      <point x="132" y="-21"/>
      <point x="42" y="118"/>
      <point x="42" y="256" type="curve"/>
      <point x="43" y="322"/>
      <point x="56" y="383"/>
      <point x="83" y="435" type="curve" smooth="yes"/>
      <point x="135" y="539"/>
      <point x="256" y="653"/>
      <point x="419" y="653" type="curve" smooth="yes"/>
      <point x="585" y="653"/>
      <point x="685" y="523"/>
      <point x="685" y="365" type="curve" smooth="yes"/>
      <point x="685" y="294"/>
      <point x="665" y="218"/>
      <point x="626" y="157" type="curve"/>
      <point x="570" y="66"/>
      <point x="455" y="-21"/>
    </contour>
    <contour>
      <point x="123" y="272" type="curve" smooth="yes"/>
      <point x="123" y="95"/>
      <point x="246" y="25"/>
      <point x="345" y="25" type="curve" smooth="yes"/>
      <point x="436" y="25"/>
      <point x="495" y="54"/>
      <point x="551" y="147" type="curve" smooth="yes"/>
      <point x="585" y="204"/>
      <point x="605" y="278"/>
      <point x="605" y="352" type="curve" smooth="yes"/>
      <point x="605" y="545"/>
      <point x="467" y="608"/>
      <point x="378" y="608" type="curve" smooth="yes"/>
      <point x="326" y="608"/>
      <point x="276" y="599"/>
      <point x="212" y="525" type="curve" smooth="yes"/>
      <point x="160" y="466"/>
      <point x="123" y="372"/>
    </contour>
    <contour>
      <point x="516" y="809" type="curve"/>
      <point x="517" y="785"/>
      <point x="522" y="760"/>
      <point x="530" y="738" type="curve"/>
      <point x="459" y="727"/>
      <point x="400" y="717"/>
      <point x="337" y="700" type="curve"/>
      <point x="331" y="719" type="line"/>
      <point x="399" y="750"/>
      <point x="452" y="773"/>
    </contour>
  </outline>
</glyph>
<glyph name="Ocircumflex" format="1">
  <advance width="723"/>
  <unicode hex="00D4"/>
  <outline>
    <contour>
      <point x="312" y="-21" type="curve" smooth="yes"/>
      <point x="132" y="-21"/>
      <point x="42" y="118"/>
      <point x="42" y="256" type="curve"/>
      <point x="43" y="322"/>
      <point x="56" y="383"/>
      <point x="83" y="435" type="curve" smooth="yes"/>
      <point x="135" y="539"/>
      <point x="256" y="653"/>
      <point x="419" y="653" type="curve" smooth="yes"/>
      <point x="585" y="653"/>
      <point x="685" y="523"/>
      <point x="685" y="365" type="curve" smooth="yes"/>
      <point x="685" y="294"/>
      <point x="665" y="218"/>
      <point x="626" y="157" type="curve"/>
      <point x="570" y="66"/>
      <point x="455" y="-21"/>
    </contour>
    <contour>
      <point x="123" y="272" type="curve" smooth="yes"/>
      <point x="123" y="95"/>
      <point x="246" y="25"/>
      <point x="345" y="25" type="curve" smooth="yes"/>
      <point x="436" y="25"/>
      <point x="495" y="54"/>
      <point x="551" y="147" type="curve" smooth="yes"/>
      <point x="585" y="204"/>
      <point x="605" y="278"/>
      <point x="605" y="352" type="curve" smooth="yes"/>
      <point x="605" y="545"/>
      <point x="467" y="608"/>
      <point x="378" y="608" type="curve" smooth="yes"/>
      <point x="326" y="608"/>
      <point x="276" y="599"/>
      <point x="212" y="525" type="curve" smooth="yes"/>
      <point x="160" y="466"/>
      <point x="123" y="372"/>
    </contour>
    <contour>
      <point x="530" y="700" type="curve"/>
      <point x="512" y="683" type="line"/>
      <point x="483" y="708"/>
      <point x="455" y="726"/>
      <point x="426" y="743" type="curve"/>
      <point x="385" y="725"/>
      <point x="352" y="708"/>
      <point x="313" y="683" type="curve"/>
      <point x="300" y="702" type="line"/>
      <point x="355" y="743"/>
      <point x="404" y="781"/>
      <point x="442" y="823" type="curve"/>
      <point x="467" y="779"/>
      <point x="500" y="735"/>
    </contour>
  </outline>
</glyph>
<glyph name="Otilde" format="1">
  <advance width="723"/>
  <unicode hex="00D5"/>
  <outline>
    <contour>
      <point x="312" y="-21" type="curve" smooth="yes"/>
      <point x="132" y="-21"/>
      <point x="42" y="118"/>
      <point x="42" y="256" type="curve"/>
      <point x="43" y="322"/>
      <point x="56" y="383"/>
      <point x="83" y="435" type="curve" smooth="yes"/>
      <point x="135" y="539"/>
      <point x="256" y="653"/>
      <point x="419" y="653" type="curve" smooth="yes"/>
      <point x="585" y="653"/>
      <point x="685" y="523"/>
      <point x="685" y="365" type="curve" smooth="yes"/>
      <point x="685" y="294"/>
      <point x="665" y="218"/>
      <point x="626" y="157" type="curve"/>
      <point x="570" y="66"/>
      <point x="455" y="-21"/>
    </contour>
    <contour>
      <point x="123" y="272" type="curve" smooth="yes"/>
      <point x="123" y="95"/>
      <point x="246" y="25"/>
      <point x="345" y="25" type="curve" smooth="yes"/>
      <point x="436" y="25"/>
      <point x="495" y="54"/>
      <point x="551" y="147" type="curve" smooth="yes"/>
      <point x="585" y="204"/>
      <point x="605" y="278"/>
      <point x="605" y="352" type="curve" smooth="yes"/>
      <point x="605" y="545"/>
      <point x="467" y="608"/>
      <point x="378" y="608" type="curve" smooth="yes"/>
      <point x="326" y="608"/>
      <point x="276" y="599"/>
      <point x="212" y="525" type="curve" smooth="yes"/>
      <point x="160" y="466"/>
      <point x="123" y="372"/>
    </contour>
    <contour>
      <point x="521" y="803" type="curve" smooth="yes"/>
      <point x="532" y="810"/>
      <point x="542" y="819"/>
      <point x="551" y="830" type="curve"/>
      <point x="570" y="817" type="line"/>
      <point x="549" y="790"/>
      <point x="521" y="760"/>
      <point x="501" y="743" type="curve" smooth="yes"/>
      <point x="488" y="732"/>
      <point x="478" y="726"/>
      <point x="458" y="726" type="curve" smooth="yes"/>
      <point x="448" y="726"/>
      <point x="436" y="727"/>
      <point x="419" y="730" type="curve" smooth="yes"/>
      <point x="404" y="733"/>
      <point x="391" y="734"/>
      <point x="381" y="734" type="curve" smooth="yes"/>
      <point x="361" y="734"/>
      <point x="349" y="729"/>
      <point x="336" y="718" type="curve" smooth="yes"/>
      <point x="326" y="709"/>
      <point x="316" y="702"/>
      <point x="305" y="689" type="curve"/>
      <point x="286" y="703" type="line"/>
      <point x="307" y="729"/>
      <point x="330" y="754"/>
      <point x="351" y="771" type="curve" smooth="yes"/>
      <point x="372" y="788"/>
      <point x="383" y="795"/>
      <point x="402" y="795" type="curve" smooth="yes"/>
      <point x="412" y="795"/>
      <point x="424" y="793"/>
      <point x="442" y="790" type="curve" smooth="yes"/>
      <point x="457" y="788"/>
      <point x="468" y="787"/>
      <point x="477" y="787" type="curve" smooth="yes"/>
      <point x="499" y="787"/>
      <point x="507" y="793"/>
    </contour>
  </outline>
</glyph>
<glyph name="Odieresis" format="1">
  <advance width="723"/>
  <unicode hex="00D6"/>
  <outline>
    <contour>
      <point x="312" y="-21" type="curve" smooth="yes"/>
      <point x="132" y="-21"/>
      <point x="42" y="118"/>
      <point x="42" y="256" type="curve"/>
      <point x="43" y="322"/>
      <point x="56" y="383"/>
      <point x="83" y="435" type="curve" smooth="yes"/>
      <point x="135" y="539"/>
      <point x="256" y="653"/>
      <point x="419" y="653" type="curve" smooth="yes"/>
      <point x="585" y="653"/>
      <point x="685" y="523"/>
      <point x="685" y="365" type="curve" smooth="yes"/>
      <point x="685" y="294"/>
      <point x="665" y="218"/>
      <point x="626" y="157" type="curve"/>
      <point x="570" y="66"/>
      <point x="455" y="-21"/>
    </contour>
    <contour>
      <point x="123" y="272" type="curve" smooth="yes"/>
      <point x="123" y="95"/>
      <point x="246" y="25"/>
      <point x="345" y="25" type="curve" smooth="yes"/>
      <point x="436" y="25"/>
      <point x="495" y="54"/>
      <point x="551" y="147" type="curve" smooth="yes"/>
      <point x="585" y="204"/>
      <point x="605" y="278"/>
      <point x="605" y="352" type="curve" smooth="yes"/>
      <point x="605" y="545"/>
      <point x="467" y="608"/>
      <point x="378" y="608" type="curve" smooth="yes"/>
      <point x="326" y="608"/>
      <point x="276" y="599"/>
      <point x="212" y="525" type="curve" smooth="yes"/>
      <point x="160" y="466"/>
      <point x="123" y="372"/>
    </contour>
    <contour>
      <point x="346" y="698" type="curve" smooth="yes"/>
      <point x="316" y="697"/>
      <point x="307" y="719"/>
      <point x="308" y="736" type="curve" smooth="yes"/>
      <point x="309" y="757"/>
      <point x="325" y="776"/>
      <point x="351" y="778" type="curve"/>
      <point x="379" y="779"/>
      <point x="389" y="759"/>
      <point x="388" y="742" type="curve" smooth="yes"/>
      <point x="387" y="721"/>
      <point x="373" y="699"/>
    </contour>
    <contour>
      <point x="497" y="698" type="curve" smooth="yes"/>
      <point x="467" y="697"/>
      <point x="459" y="719"/>
      <point x="459" y="736" type="curve" smooth="yes"/>
      <point x="460" y="757"/>
      <point x="476" y="776"/>
      <point x="503" y="778" type="curve"/>
      <point x="531" y="779"/>
      <point x="539" y="759"/>
      <point x="539" y="742" type="curve" smooth="yes"/>
      <point x="539" y="721"/>
      <point x="525" y="699"/>
    </contour>
  </outline>
</glyph>
<glyph name="multiply" format="1">
  <advance width="442"/>
  <unicode hex="00D7"/>
  <outline>
    <contour>
      <point x="28" y="439" type="line"/>
      <point x="54" y="464" type="line"/>
      <point x="218" y="299" type="line"/>
      <point x="385" y="465" type="line"/>
      <point x="410" y="440" type="line"/>
      <point x="244" y="274" type="line"/>
      <point x="409" y="108" type="line"/>
      <point x="385" y="83" type="line"/>
      <point x="218" y="249" type="line"/>
      <point x="53" y="83" type="line"/>
      <point x="27" y="108" type="line"/>
      <point x="194" y="274" type="line"/>
    </contour>
  </outline>
</glyph>
<glyph name="Udieresis" format="1">
  <advance width="703"/>
  <unicode hex="00DC"/>
  <outline>
    <contour>
      <point x="287" y="-25" type="curve"/>
      <point x="145" y="-22"/>
      <point x="84" y="55"/>
      <point x="84" y="161" type="curve" smooth="yes"/>
      <point x="84" y="182"/>
      <point x="86" y="204"/>
      <point x="91" y="227" type="curve" smooth="yes"/>
      <point x="96" y="253"/>
      <point x="145" y="475"/>
      <point x="155" y="530" type="curve" smooth="yes"/>
      <point x="157" y="543"/>
      <point x="158" y="553"/>
      <point x="158" y="562" type="curve" smooth="yes"/>
      <point x="158" y="599"/>
      <point x="138" y="606"/>
      <point x="89" y="615" type="curve"/>
      <point x="98" y="639" type="line"/>
      <point x="138" y="634"/>
      <point x="174" y="631"/>
      <point x="213" y="631" type="curve" smooth="yes"/>
      <point x="249" y="631"/>
      <point x="287" y="633"/>
      <point x="333" y="639" type="curve"/>
      <point x="334" y="615" type="line"/>
      <point x="263" y="601"/>
      <point x="248" y="597"/>
      <point x="232" y="532" type="curve"/>
      <point x="215" y="469"/>
      <point x="181" y="293"/>
      <point x="172" y="240" type="curve" smooth="yes"/>
      <point x="168" y="216"/>
      <point x="166" y="194"/>
      <point x="166" y="173" type="curve" smooth="yes"/>
      <point x="166" y="80"/>
      <point x="210" y="20"/>
      <point x="319" y="20" type="curve" smooth="yes"/>
      <point x="471" y="20"/>
      <point x="516" y="102"/>
      <point x="541" y="195" type="curve" smooth="yes"/>
      <point x="561" y="271"/>
      <point x="598" y="439"/>
      <point x="609" y="531" type="curve" smooth="yes"/>
      <point x="615" y="579"/>
      <point x="613" y="604"/>
      <point x="537" y="615" type="curve"/>
      <point x="545" y="639" type="line"/>
      <point x="583" y="634"/>
      <point x="617" y="631"/>
      <point x="652" y="631" type="curve" smooth="yes"/>
      <point x="684" y="631"/>
      <point x="716" y="634"/>
      <point x="754" y="639" type="curve"/>
      <point x="755" y="615" type="line"/>
      <point x="685" y="605"/>
      <point x="674" y="589"/>
      <point x="657" y="529" type="curve"/>
      <point x="639" y="461"/>
      <point x="620" y="368"/>
      <point x="579" y="186" type="curve" smooth="yes"/>
      <point x="554" y="74"/>
      <point x="484" y="-32"/>
    </contour>
    <contour>
      <point x="381" y="698" type="curve" smooth="yes"/>
      <point x="351" y="697"/>
      <point x="342" y="719"/>
      <point x="343" y="736" type="curve" smooth="yes"/>
      <point x="344" y="757"/>
      <point x="360" y="776"/>
      <point x="386" y="778" type="curve"/>
      <point x="414" y="779"/>
      <point x="424" y="759"/>
      <point x="423" y="742" type="curve" smooth="yes"/>
      <point x="422" y="721"/>
      <point x="408" y="699"/>
    </contour>
    <contour>
      <point x="532" y="698" type="curve" smooth="yes"/>
      <point x="502" y="697"/>
      <point x="494" y="719"/>
      <point x="494" y="736" type="curve" smooth="yes"/>
      <point x="495" y="757"/>
      <point x="511" y="776"/>
      <point x="538" y="778" type="curve"/>
      <point x="566" y="779"/>
      <point x="574" y="759"/>
      <point x="574" y="742" type="curve" smooth="yes"/>
      <point x="574" y="721"/>
      <point x="560" y="699"/>
    </contour>
  </outline>
</glyph>
<glyph name="Thorn" format="1">
  <advance width="587"/>
  <unicode hex="00DE"/>
  <outline>
    <contour>
      <point x="98" y="639" type="line"/>
      <point x="99" y="639" type="line"/>
      <point x="147" y="634"/>
      <point x="187" y="631"/>
      <point x="229" y="631" type="curve" smooth="yes"/>
      <point x="270" y="631"/>
      <point x="313" y="634"/>
      <point x="363" y="639" type="curve"/>
      <point x="361" y="614" type="line"/>
      <point x="291" y="598"/>
      <point x="261" y="583"/>
      <point x="245" y="511" type="curve"/>
      <point x="274" y="513"/>
      <point x="304" y="515"/>
      <point x="334" y="515" type="curve" smooth="yes"/>
      <point x="456" y="515"/>
      <point x="553" y="478"/>
      <point x="553" y="370" type="curve" smooth="yes"/>
      <point x="553" y="358"/>
      <point x="551" y="345"/>
      <point x="549" y="331" type="curve" smooth="yes"/>
      <point x="534" y="230"/>
      <point x="446" y="144"/>
      <point x="314" y="144" type="curve" smooth="yes"/>
      <point x="292" y="144"/>
      <point x="230" y="160"/>
      <point x="213" y="171" type="curve"/>
      <point x="225" y="180"/>
      <point x="235" y="192"/>
      <point x="245" y="207" type="curve"/>
      <point x="263" y="193"/>
      <point x="292" y="176"/>
      <point x="321" y="176" type="curve" smooth="yes"/>
      <point x="407" y="176"/>
      <point x="454" y="254"/>
      <point x="466" y="320" type="curve" smooth="yes"/>
      <point x="468" y="330"/>
      <point x="469" y="340"/>
      <point x="469" y="350" type="curve" smooth="yes"/>
      <point x="469" y="416"/>
      <point x="425" y="478"/>
      <point x="305" y="478" type="curve" smooth="yes"/>
      <point x="284" y="478"/>
      <point x="255" y="475"/>
      <point x="235" y="469" type="curve"/>
      <point x="211" y="367"/>
      <point x="185" y="229"/>
      <point x="165" y="115" type="curve" smooth="yes"/>
      <point x="156" y="60"/>
      <point x="173" y="43"/>
      <point x="245" y="23" type="curve"/>
      <point x="237" y="-3" type="line"/>
      <point x="189" y="1"/>
      <point x="147" y="3"/>
      <point x="105" y="3" type="curve" smooth="yes"/>
      <point x="63" y="3"/>
      <point x="19" y="1"/>
      <point x="-30" y="-3" type="curve"/>
      <point x="-31" y="23" type="line"/>
      <point x="55" y="40"/>
      <point x="75" y="65"/>
      <point x="88" y="116" type="curve" smooth="yes"/>
      <point x="123" y="252"/>
      <point x="147" y="385"/>
      <point x="170" y="521" type="curve" smooth="yes"/>
      <point x="178" y="572"/>
      <point x="163" y="597"/>
      <point x="88" y="614" type="curve"/>
    </contour>
  </outline>
</glyph>
<glyph name="germandbls" format="1">
  <advance width="485"/>
  <unicode hex="00DF"/>
  <outline>
    <contour>
      <point x="-117" y="-260" type="curve" smooth="yes"/>
      <point x="-134" y="-255"/>
      <point x="-192" y="-238"/>
      <point x="-206" y="-238" type="curve"/>
      <point x="-190" y="-215"/>
      <point x="-174" y="-175"/>
      <point x="-167" y="-152" type="curve"/>
      <point x="-144" y="-165"/>
      <point x="-104" y="-182"/>
      <point x="-73" y="-185" type="curve"/>
      <point x="-2" y="-195"/>
      <point x="18" y="-130"/>
      <point x="36" y="-64" type="curve" smooth="yes"/>
      <point x="76" y="85"/>
      <point x="100" y="255"/>
      <point x="120" y="395" type="curve"/>
      <point x="91" y="397"/>
      <point x="47" y="392"/>
      <point x="43" y="390" type="curve"/>
      <point x="40" y="404" type="line"/>
      <point x="64" y="411"/>
      <point x="106" y="423"/>
      <point x="125" y="433" type="curve"/>
      <point x="132" y="457"/>
      <point x="139" y="509"/>
      <point x="149" y="553" type="curve" smooth="yes"/>
      <point x="166" y="625"/>
      <point x="184" y="634"/>
      <point x="228" y="677" type="curve" smooth="yes"/>
      <point x="280" y="727"/>
      <point x="313" y="733"/>
      <point x="345" y="733" type="curve" smooth="yes"/>
      <point x="410" y="733"/>
      <point x="463" y="659"/>
      <point x="464" y="587" type="curve" smooth="yes"/>
      <point x="465" y="555"/>
      <point x="456" y="521"/>
      <point x="395" y="474" type="curve" smooth="yes"/>
      <point x="374" y="458"/>
      <point x="344" y="435"/>
      <point x="325" y="412" type="curve" smooth="yes"/>
      <point x="319" y="404"/>
      <point x="314" y="396"/>
      <point x="314" y="384" type="curve" smooth="yes"/>
      <point x="314" y="372"/>
      <point x="319" y="357"/>
      <point x="332" y="334" type="curve" smooth="yes"/>
      <point x="349" y="305"/>
      <point x="375" y="272"/>
      <point x="409" y="227" type="curve" smooth="yes"/>
      <point x="430" y="198"/>
      <point x="447" y="162"/>
      <point x="439" y="128" type="curve" smooth="yes"/>
      <point x="426" y="79"/>
      <point x="399" y="39"/>
      <point x="361" y="8" type="curve" smooth="yes"/>
      <point x="347" y="-3"/>
      <point x="331" y="-7"/>
      <point x="314" y="-7" type="curve" smooth="yes"/>
      <point x="299" y="-7"/>
      <point x="283" y="-4"/>
      <point x="266" y="-1" type="curve" smooth="yes"/>
      <point x="237" y="5"/>
      <point x="215" y="11"/>
      <point x="192" y="15" type="curve"/>
      <point x="207" y="36"/>
      <point x="219" y="61"/>
      <point x="227" y="93" type="curve"/>
      <point x="257" y="75"/>
      <point x="278" y="66"/>
      <point x="313" y="58" type="curve" smooth="yes"/>
      <point x="352" y="48"/>
      <point x="375" y="61"/>
      <point x="383" y="74" type="curve" smooth="yes"/>
      <point x="401" y="102"/>
      <point x="385" y="141"/>
      <point x="348" y="192" type="curve" smooth="yes"/>
      <point x="327" y="221"/>
      <point x="288" y="269"/>
      <point x="267" y="303" type="curve" smooth="yes"/>
      <point x="254" y="324"/>
      <point x="247" y="343"/>
      <point x="247" y="359" type="curve" smooth="yes"/>
      <point x="247" y="378"/>
      <point x="256" y="394"/>
      <point x="270" y="408" type="curve" smooth="yes"/>
      <point x="297" y="434"/>
      <point x="338" y="464"/>
      <point x="364" y="485" type="curve"/>
      <point x="394" y="511"/>
      <point x="405" y="538"/>
      <point x="399" y="576" type="curve"/>
      <point x="391" y="640"/>
      <point x="352" y="675"/>
      <point x="320" y="679" type="curve" smooth="yes"/>
      <point x="275" y="686"/>
      <point x="245" y="663"/>
      <point x="227" y="608" type="curve" smooth="yes"/>
      <point x="208" y="551"/>
      <point x="195" y="475"/>
      <point x="189" y="433" type="curve" smooth="yes"/>
      <point x="160" y="244"/>
      <point x="145" y="132"/>
      <point x="108" y="-22" type="curve"/>
      <point x="94" y="-85"/>
      <point x="55" y="-145"/>
      <point x="13" y="-194" type="curve" smooth="yes"/>
      <point x="-16" y="-228"/>
      <point x="-67" y="-274"/>
    </contour>
  </outline>
</glyph>
<glyph name="aacute" format="1">
  <advance width="458"/>
  <unicode hex="00E1"/>
  <outline>
    <contour>
      <point x="280" y="-13" type="curve" smooth="yes"/>
      <point x="251" y="-13"/>
      <point x="238" y="8"/>
      <point x="239" y="33" type="curve"/>
      <point x="198" y="15"/>
      <point x="139" y="-11"/>
      <point x="111" y="-11" type="curve" smooth="yes"/>
      <point x="54" y="-11"/>
      <point x="18" y="40"/>
      <point x="26" y="120" type="curve" smooth="yes"/>
      <point x="32" y="183"/>
      <point x="51" y="247"/>
      <point x="85" y="308" type="curve" smooth="yes"/>
      <point x="110" y="353"/>
      <point x="143" y="391"/>
      <point x="215" y="423" type="curve" smooth="yes"/>
      <point x="257" y="441"/>
      <point x="297" y="445"/>
      <point x="345" y="442" type="curve" smooth="yes"/>
      <point x="367" y="440"/>
      <point x="391" y="435"/>
      <point x="418" y="431" type="curve"/>
      <point x="408" y="418"/>
      <point x="394" y="385"/>
      <point x="392" y="378" type="curve" smooth="yes"/>
      <point x="362" y="274"/>
      <point x="340" y="195"/>
      <point x="325" y="100" type="curve" smooth="yes"/>
      <point x="318" y="61"/>
      <point x="336" y="47"/>
      <point x="373" y="47" type="curve" smooth="yes"/>
      <point x="384" y="47"/>
      <point x="402" y="48"/>
      <point x="417" y="50" type="curve"/>
      <point x="421" y="29" type="line"/>
      <point x="374" y="9"/>
      <point x="304" y="-13"/>
    </contour>
    <contour>
      <point x="100" y="136" type="curve"/>
      <point x="92" y="74"/>
      <point x="115" y="48"/>
      <point x="155" y="48" type="curve" smooth="yes"/>
      <point x="183" y="48"/>
      <point x="218" y="55"/>
      <point x="245" y="63" type="curve"/>
      <point x="271" y="179"/>
      <point x="309" y="313"/>
      <point x="326" y="390" type="curve"/>
      <point x="316" y="395"/>
      <point x="287" y="402"/>
      <point x="275" y="404" type="curve" smooth="yes"/>
      <point x="216" y="409"/>
      <point x="174" y="372"/>
      <point x="143" y="299" type="curve" smooth="yes"/>
      <point x="122" y="250"/>
      <point x="105" y="191"/>
    </contour>
    <contour>
      <point x="301" y="496" type="curve"/>
      <point x="280" y="512" type="line"/>
      <point x="322" y="568"/>
      <point x="363" y="635"/>
      <point x="388" y="688" type="curve"/>
      <point x="402" y="674"/>
      <point x="427" y="652"/>
      <point x="448" y="642" type="curve"/>
      <point x="401" y="602"/>
      <point x="351" y="555"/>
    </contour>
  </outline>
</glyph>
